<?xml version="1.0" encoding="utf-8"?>
<!-- Generator: Adobe Illustrator 23.1.1, SVG Export Plug-In . SVG Version: 6.00 Build 0)  -->
<svg version="1.1" id="Layer_1" xmlns="http://www.w3.org/2000/svg" xmlns:xlink="http://www.w3.org/1999/xlink" x="0px" y="0px"
	 viewBox="0 0 24 24" style="enable-background:new 0 0 24 24;" xml:space="preserve">
<style type="text/css">
	.st0{fill:none;}
</style>
<g>
	<path class="st0" d="M0,0h24v24H0V0z"/>
</g>
<g>
	<path d="M12,15.3c-2.1,0-3.8-1.7-3.8-3.8V9.8c0-2.1,1.7-3.8,3.8-3.8s3.8,1.7,3.8,3.8v1.7C15.8,13.6,14.1,15.3,12,15.3z M12,7.7
		c-1.2,0-2.2,1-2.2,2.2v1.7c0,1.2,1,2.2,2.2,2.2c1.2,0,2.2-1,2.2-2.2V9.8C14.2,8.6,13.2,7.7,12,7.7z"/>
</g>
<path d="M12,1.9c-5.5,0-10,4.5-10,10s4.5,10,10,10c5.5,0,10-4.5,10-10S17.5,1.9,12,1.9z M12,20.3c-2.6,0-5-1.2-6.5-3.1
	c0-0.3,0.2-0.9,1-1.1l1.7-0.5l-0.4-1.5l-1.7,0.5c-0.8,0.2-1.3,0.6-1.6,1.1c-0.6-1.1-0.9-2.4-0.9-3.7c0-4.6,3.8-8.4,8.4-8.4
	s8.4,3.8,8.4,8.4c0,1.3-0.3,2.6-0.9,3.7c-0.4-0.5-0.9-0.9-1.6-1.1l-1.6-0.4l-0.4,1.5l1.6,0.4c0.8,0.2,1,0.8,1.1,1.1
	C17,19.1,14.6,20.3,12,20.3z"/>
</svg>
