<?xml version="1.0" encoding="utf-8"?>
<!-- Generator: Adobe Illustrator 23.1.1, SVG Export Plug-In . SVG Version: 6.00 Build 0)  -->
<svg version="1.1" id="Layer_1" xmlns="http://www.w3.org/2000/svg" xmlns:xlink="http://www.w3.org/1999/xlink" x="0px" y="0px"
	 viewBox="0 0 24 24" style="enable-background:new 0 0 24 24;" xml:space="preserve">
<style type="text/css">
	.st0{fill:none;}
</style>
<path d="M12,3.6c4.6,0,8.4,3.8,8.4,8.4s-3.8,8.4-8.4,8.4S3.6,16.6,3.6,12S7.4,3.6,12,3.6 M12,2C6.5,2,2,6.5,2,12s4.5,10,10,10
	s10-4.5,10-10S17.5,2,12,2L12,2z"/>
<path class="st0" d="M0,0h24v24H0V0z"/>
<polygon points="16.8,12.8 16.8,11.2 13,11.2 12.8,11.2 12.8,11 12.8,7.2 11.2,7.2 11.2,11 11.2,11.2 11,11.2 7.2,11.2 7.2,12.8 
	11,12.8 11.2,12.8 11.2,13 11.2,16.8 12.8,16.8 12.8,13 12.8,12.8 13,12.8 "/>
</svg>
