<?xml version="1.0" encoding="utf-8"?>
<!-- Generator: Adobe Illustrator 23.1.1, SVG Export Plug-In . SVG Version: 6.00 Build 0)  -->
<svg version="1.1" id="Layer_1" xmlns="http://www.w3.org/2000/svg" xmlns:xlink="http://www.w3.org/1999/xlink" x="0px" y="0px"
	 viewBox="0 0 24 24" style="enable-background:new 0 0 24 24;" xml:space="preserve">
<style type="text/css">
	.st0{fill:none;}
</style>
<path class="st0" d="M0,0h24v24H0V0z"/>
<g>
	<path d="M17,18.2c-1,0-1.8,0.8-1.8,1.8s0.8,1.8,1.8,1.8c1,0,1.8-0.8,1.8-1.8S18,18.2,17,18.2z"/>
	<path d="M7,18.2c-1,0-1.8,0.8-1.8,1.8S6,21.8,7,21.8c1,0,1.8-0.8,1.8-1.8S8,18.2,7,18.2z"/>
	<polygon points="8.2,4.2 8.2,5.8 11,5.8 11.2,5.8 11.2,6 11.2,8.8 12.8,8.8 12.8,6 12.8,5.8 13,5.8 15.8,5.8 15.8,4.2 13,4.2 
		12.8,4.2 12.8,4 12.8,1.2 11.2,1.2 11.2,4 11.2,4.2 11,4.2 	"/>
	<path d="M7,16.8h11.8v-1.6H7H6.7l0.2-0.3l1.1-2L8,12.8h0.1h7.5c0.7,0,1.3-0.4,1.6-0.9L20.9,5l-1.4-0.8l-3.8,6.8l-0.1,0.1h-0.1h-7
		H8.4l-0.1-0.1L4.1,2.2H1.2v1.6H3h0.1l0.1,0.1l3.6,7.6l0,0.1l0,0.1l-1.4,2.4c-0.3,0.6-0.3,1.2,0,1.8C5.8,16.5,6.4,16.8,7,16.8z"/>
</g>
</svg>
