<?xml version="1.0" encoding="utf-8"?>
<!-- Generator: Adobe Illustrator 23.1.1, SVG Export Plug-In . SVG Version: 6.00 Build 0)  -->
<svg version="1.1" id="Layer_1" xmlns="http://www.w3.org/2000/svg" xmlns:xlink="http://www.w3.org/1999/xlink" x="0px" y="0px"
	 viewBox="0 0 24 24" style="enable-background:new 0 0 24 24;" xml:space="preserve">
<style type="text/css">
	.st0{fill:none;}
</style>
<path class="st0" d="M0,0h24v24H0V0z"/>
<g>
	<path d="M12,4.2c-4.9,0-8.8,3.9-8.8,8.8s3.9,8.8,8.8,8.8s8.8-3.9,8.8-8.8S16.9,4.2,12,4.2z M12,20.2c-4,0-7.2-3.2-7.2-7.2
		S8,5.8,12,5.8S19.2,9,19.2,13S16,20.2,12,20.2z"/>
	<rect x="2.2" y="3.7" transform="matrix(0.7677 -0.6408 0.6408 0.7677 -1.722 4.2495)" width="5.6" height="1.6"/>
	<rect x="18.2" y="1.7" transform="matrix(0.6404 -0.768 0.768 0.6404 3.3753 16.2104)" width="1.6" height="5.6"/>
</g>
<path d="M16.6,10.6l-1.1-1.1l0,0l0,0l-4.9,4.9l-2.1-2.1l0,0l0,0l-1.1,1.1l0,0l0,0l3.2,3.2l0,0l0,0L16.6,10.6L16.6,10.6L16.6,10.6z
	 M10.6,14.5L10.6,14.5L10.6,14.5L10.6,14.5z"/>
</svg>
