<?xml version="1.0" encoding="utf-8"?>
<!-- Generator: Adobe Illustrator 23.1.1, SVG Export Plug-In . SVG Version: 6.00 Build 0)  -->
<svg version="1.1" id="Layer_1" xmlns="http://www.w3.org/2000/svg" xmlns:xlink="http://www.w3.org/1999/xlink" x="0px" y="0px"
	 viewBox="0 0 24 24" style="enable-background:new 0 0 24 24;" xml:space="preserve">
<style type="text/css">
	.st0{fill:none;}
</style>
<path class="st0" d="M0,0h24v24H0V0z"/>
<path d="M19.5,6.5H7c-3.1,0-5.5,2.5-5.5,5.5s2.5,5.5,5.5,5.5h11.5h0v0V16v0h0H7c-2.2,0-4-1.8-4-4s1.8-4,4-4h12.5
	c1.4,0,2.5,1.1,2.5,2.5S20.9,13,19.5,13H9c-0.5,0-1-0.4-1-1s0.4-1,1-1h9.5h0v0V9.5v0h0H9c-1.4,0-2.5,1.1-2.5,2.5s1.1,2.5,2.5,2.5
	h10.5c2.2,0,4-1.8,4-4S21.7,6.5,19.5,6.5z"/>
</svg>
