<?xml version="1.0" encoding="utf-8"?>
<!-- Generator: Adobe Illustrator 23.1.1, SVG Export Plug-In . SVG Version: 6.00 Build 0)  -->
<svg version="1.1" id="Layer_1" xmlns="http://www.w3.org/2000/svg" xmlns:xlink="http://www.w3.org/1999/xlink" x="0px" y="0px"
	 viewBox="0 0 24 24" style="enable-background:new 0 0 24 24;" xml:space="preserve">
<style type="text/css">
	.st0{fill:none;}
</style>
<path class="st0" d="M0,0h24v24H0V0z"/>
<path d="M12,2.2c-5.4,0-9.8,4.4-9.8,9.8s4.4,9.8,9.8,9.8s9.8-4.4,9.8-9.8S17.4,2.2,12,2.2z M5.7,17.2L5.5,17c-1.1-1.4-1.7-3.2-1.7-5
	c0-4.5,3.7-8.2,8.2-8.2c1.8,0,3.6,0.6,5,1.7l0.2,0.1L17,5.8L5.8,17L5.7,17.2z M12,20.2c-1.8,0-3.6-0.6-5-1.7l-0.2-0.1L7,18.2L18.2,7
	l0.2-0.2L18.5,7c1.1,1.4,1.7,3.2,1.7,5C20.2,16.5,16.5,20.2,12,20.2z"/>
</svg>
