<?xml version="1.0" encoding="utf-8"?>
<!-- Generator: Adobe Illustrator 23.1.1, SVG Export Plug-In . SVG Version: 6.00 Build 0)  -->
<svg version="1.1" id="Layer_1" xmlns="http://www.w3.org/2000/svg" xmlns:xlink="http://www.w3.org/1999/xlink" x="0px" y="0px"
	 viewBox="0 0 24 24" style="enable-background:new 0 0 24 24;" xml:space="preserve">
<style type="text/css">
	.st0{fill:none;}
</style>
<path class="st0" d="M0,0h24v24H0V0z"/>
<path d="M3.2,22.7l6.7-2.9l0.1,0l0.1,0l6.7,2.9V7c0-1-0.8-1.8-1.8-1.8H5C4,5.2,3.2,6,3.2,7V22.7z M4.8,20V7V6.8H5h10h0.2V7v13v0.3
	l-0.3-0.1l-4.2-1.8L10,18l-0.7,0.3l-4.2,1.8l-0.3,0.1V20z"/>
<path d="M20.8,18.7V3c0-1-0.8-1.8-1.8-1.8H9c-0.9,0-1.7,0.7-1.8,1.6H17c1.2,0,2.2,1,2.2,2.2v12.9L20.8,18.7z"/>
</svg>
