<?xml version="1.0" encoding="utf-8"?>
<!-- Generator: Adobe Illustrator 23.1.1, SVG Export Plug-In . SVG Version: 6.00 Build 0)  -->
<svg version="1.1" id="Layer_1" xmlns="http://www.w3.org/2000/svg" xmlns:xlink="http://www.w3.org/1999/xlink" x="0px" y="0px"
	 viewBox="0 0 24 24" style="enable-background:new 0 0 24 24;" xml:space="preserve">
<style type="text/css">
	.st0{fill:none;}
</style>
<path class="st0" d="M0,0h24v24H0V0z"/>
<polygon points="8.5,13.2 12,16.7 15.5,13.2 13.5,13.2 13.2,13.2 13.2,13 13.2,10.2 10.8,10.2 10.8,13 10.8,13.2 10.5,13.2 "/>
<path d="M12,5.6c2.8,0,5.2,2,5.8,4.7l0.2,1.2l1.2,0.1c1.8,0.1,3.2,1.6,3.2,3.4c0,1.9-1.5,3.4-3.4,3.4H6c-2.4,0-4.4-2-4.4-4.4
	c0-2.3,1.7-4.1,3.9-4.4l0.9-0.1l0.4-0.8C7.8,6.8,9.8,5.6,12,5.6 M12,4C9.1,4,6.6,5.6,5.3,8C2.3,8.4,0,10.9,0,14c0,3.3,2.7,6,6,6h13
	c2.8,0,5-2.2,5-5c0-2.6-2-4.8-4.6-5C18.7,6.6,15.6,4,12,4L12,4z"/>
</svg>
