<?xml version="1.0" encoding="utf-8"?>
<!-- Generator: Adobe Illustrator 23.1.1, SVG Export Plug-In . SVG Version: 6.00 Build 0)  -->
<svg version="1.1" id="Layer_1" xmlns="http://www.w3.org/2000/svg" xmlns:xlink="http://www.w3.org/1999/xlink" x="0px" y="0px"
	 viewBox="0 0 24 24" style="enable-background:new 0 0 24 24;" xml:space="preserve">
<style type="text/css">
	.st0{fill:none;}
</style>
<path class="st0" d="M0,0h24v24H0V0z"/>
<g>
	<path d="M6,19.8h11.7h0.1l0.1,0.1l1.9,1.9l1.1-1.1L4.4,4.1L3.3,5.3l2.6,2.6l0.3,0.3H5.8H5.3C2.4,8.6,0.2,11,0.2,14
		C0.2,17.2,2.8,19.8,6,19.8z M6,9.8h1.7h0.1l0.1,0.1l8,8l0.3,0.3h-0.5H6c-2.3,0-4.2-1.9-4.2-4.2S3.7,9.8,6,9.8z"/>
	<path d="M23.8,15c0-2.5-2-4.6-4.5-4.8l-0.2,0l0-0.2c-0.7-3.4-3.7-5.9-7.2-5.9c-1.2,0-2.3,0.3-3.3,0.8l1.2,1.2
		c0.7-0.3,1.4-0.4,2.1-0.4c3.1,0,5.7,2.6,5.7,5.7v0.3H19c1.8,0,3.2,1.4,3.2,3.2c0,0.9-0.4,1.8-1.1,2.4l1.1,1.1
		C23.2,17.6,23.8,16.3,23.8,15z"/>
</g>
</svg>
