<?xml version="1.0" encoding="utf-8"?>
<!-- Generator: Adobe Illustrator 23.1.1, SVG Export Plug-In . SVG Version: 6.00 Build 0)  -->
<svg version="1.1" id="Layer_1" xmlns="http://www.w3.org/2000/svg" xmlns:xlink="http://www.w3.org/1999/xlink" x="0px" y="0px"
	 viewBox="0 0 24 24" style="enable-background:new 0 0 24 24;" xml:space="preserve">
<style type="text/css">
	.st0{fill:none;}
</style>
<path class="st0" d="M0,1.1h24v24H0V1.1z"/>
<path d="M21.8,6.6c0-1-0.8-1.8-1.8-1.8H4c-1,0-1.8,0.8-1.8,1.8l0,10.9c0,1,0.8,1.8,1.8,1.8h16c1,0,1.8-0.8,1.8-1.8V6.6z M20.2,12.6
	v4.9v0.2H20H4H3.8v-0.2v-4.9v-0.2H4h16h0.2V12.6z M20.2,6.6v2.7v0.2H20H4H3.8V9.3V6.6V6.4H4h16h0.2V6.6z"/>
</svg>
