<?xml version="1.0" encoding="utf-8"?>
<!-- Generator: Adobe Illustrator 23.1.1, SVG Export Plug-In . SVG Version: 6.00 Build 0)  -->
<svg version="1.1" id="Layer_1" xmlns="http://www.w3.org/2000/svg" xmlns:xlink="http://www.w3.org/1999/xlink" x="0px" y="0px"
	 viewBox="0 0 24 24" style="enable-background:new 0 0 24 24;" xml:space="preserve">
<style type="text/css">
	.st0{fill:none;}
</style>
<path class="st0" d="M0,0h24v24H0V0z"/>
<g>
	<g>
		<path d="M19,4.2h-1h-2.5l-1-1h-5l-1,1H6H5v1.6h1V19c0,1.1,0.9,2,2,2h8c1.1,0,2-0.9,2-2V5.8h1V4.2z M16.4,19c0,0.2-0.2,0.4-0.4,0.4
			H8c-0.2,0-0.4-0.2-0.4-0.4V5.8h8.8V19z"/>
	</g>
	<g>
		<rect x="9" y="7.1" width="1.6" height="10.7"/>
	</g>
	<g>
		<rect x="13.3" y="7.1" width="1.6" height="10.7"/>
	</g>
</g>
</svg>
