<?xml version="1.0" encoding="utf-8"?>
<!-- Generator: Adobe Illustrator 23.1.1, SVG Export Plug-In . SVG Version: 6.00 Build 0)  -->
<svg version="1.1" id="Layer_1" xmlns="http://www.w3.org/2000/svg" xmlns:xlink="http://www.w3.org/1999/xlink" x="0px" y="0px"
	 viewBox="0 0 24 24" style="enable-background:new 0 0 24 24;" xml:space="preserve">
<style type="text/css">
	.st0{fill:none;}
</style>
<path class="st0" d="M0,0h24v24H0V0z"/>
<path d="M20.8,5c0-1-0.8-1.8-1.8-1.8H7C6,3.2,5.2,4,5.2,5v3.8h1.6V5V4.8H7h12h0.2V5v14v0.2H19H7H6.8V19v-3.8H5.2V19
	c0,1,0.8,1.8,1.8,1.8h12c1,0,1.8-0.8,1.8-1.8V5z"/>
<polygon points="16.2,12 11.5,7.3 10.4,8.4 12.8,10.9 13.2,11.2 12.7,11.2 3.2,11.2 3.2,12.8 12.7,12.8 13.2,12.8 12.8,13.1 
	10.4,15.6 11.5,16.7 "/>
</svg>
