<svg width="24" height="24" viewBox="0 0 24 24" fill="none" xmlns="http://www.w3.org/2000/svg">
<path fill-rule="evenodd" clip-rule="evenodd" d="M15.7992 5C17.0138 5 18 5.96094 18 7.14453H9.2008V15.9453C9.2008 15.9883 9.16472 16.0234 9.12063 16.0234H7.08017C7.03608 16.0234 7 15.9883 7 15.9453V7.14453C7 5.96094 7.98615 5 9.2008 5H15.7992ZM15.7992 17.8555H7C7 19.0391 7.98615 20 9.2008 20H15.7992C17.0138 20 18 19.0391 18 17.8555V9.05859C18 9.01562 17.9639 8.98047 17.9198 8.98047H15.8794C15.8353 8.98047 15.7992 9.01562 15.7992 9.05859V17.8555Z" fill="black"/>
</svg>
