<?xml version="1.0" encoding="utf-8"?>
<!-- Generator: Adobe Illustrator 23.1.1, SVG Export Plug-In . SVG Version: 6.00 Build 0)  -->
<svg version="1.1" id="Layer_1" xmlns="http://www.w3.org/2000/svg" xmlns:xlink="http://www.w3.org/1999/xlink" x="0px" y="0px"
	 viewBox="0 0 24 24" style="enable-background:new 0 0 24 24;" xml:space="preserve">
<style type="text/css">
	.st0{fill:none;}
</style>
<path d="M12,3.6c4.6,0,8.4,3.8,8.4,8.4s-3.8,8.4-8.4,8.4S3.6,16.6,3.6,12S7.4,3.6,12,3.6 M12,2C6.5,2,2,6.5,2,12s4.5,10,10,10
	s10-4.5,10-10S17.5,2,12,2L12,2z"/>
<path class="st0" d="M0,0h24v24H0V0z"/>
<g>
	<rect x="11.2" y="16.2" width="1.6" height="1.6"/>
	<path d="M14.3,12.5c0.8-0.7,1.5-1.3,1.5-2.5c0-2.1-1.7-3.8-3.8-3.8c-2,0-3.7,1.6-3.8,3.6h1.6c0.1-1.1,1-2,2.2-2
		c1.2,0,2.2,1,2.2,2.2c0,1-0.6,1.5-1.3,2c-0.8,0.6-1.6,1.2-1.7,2.8h1.6C12.9,13.7,13.6,13.1,14.3,12.5z"/>
</g>
</svg>
