<?xml version="1.0" encoding="utf-8"?>
<!-- Generator: Adobe Illustrator 23.1.1, SVG Export Plug-In . SVG Version: 6.00 Build 0)  -->
<svg version="1.1" id="Layer_1" xmlns="http://www.w3.org/2000/svg" xmlns:xlink="http://www.w3.org/1999/xlink" x="0px" y="0px"
	 viewBox="0 0 24 24" style="enable-background:new 0 0 24 24;" xml:space="preserve">
<style type="text/css">
	.st0{fill:none;}
</style>
<g>
	<rect x="17.2" y="7.2" width="1.5" height="1.5"/>
	<rect x="17.2" y="11.2" width="1.5" height="1.5"/>
	<rect x="17.2" y="15.2" width="1.5" height="1.5"/>
</g>
<path d="M17.2,19.8v0.4c0,0.3,0.3,0.6,0.6,0.6h4.4c0.3,0,0.6-0.3,0.6-0.6V3.8c0-0.3-0.3-0.6-0.6-0.6h-12v0.9c0,0.2,0.1,0.4,0.3,0.5
	l1.3,0.8V4.8h8.8c0.3,0,0.6,0.3,0.6,0.6v13.2c0,0.3-0.3,0.6-0.6,0.6h-2.8C17.5,19.2,17.2,19.5,17.2,19.8z"/>
<path class="st0" d="M0,0h24v24H0V0z"/>
<path d="M14,10.4c0-0.2-0.1-0.4-0.2-0.5L7.5,4.2C7.4,4.1,7.2,4,7.1,4C6.9,4,6.8,4.1,6.7,4.2L0.2,9.9C0.1,10,0,10.2,0,10.4v9.7
	c0,0.4,0.3,0.7,0.7,0.7h5.5H8h5.3c0.4,0,0.7-0.3,0.7-0.7V10.4z M9.3,19.2v-5.1c0-0.7-0.6-1.3-1.3-1.3H6.2c-0.7,0-1.3,0.6-1.3,1.3
	v5.1H1.6v-8.4L7,6l5.4,4.9v8.4H9.3V19.2z"/>
</svg>
