<svg width="24" height="24" viewBox="0 0 24 24" fill="none" xmlns="http://www.w3.org/2000/svg">
<path d="M12.3999 6.32254C14.3837 6.32254 14.6042 6.32254 15.3914 6.35403C16.1156 6.38552 16.4935 6.51147 16.7769 6.60594C17.1233 6.7319 17.3752 6.88934 17.6271 7.17274C17.879 7.42465 18.0365 7.67657 18.1939 8.02295C18.2884 8.27486 18.4143 8.68422 18.4458 9.40846C18.4773 10.1957 18.4773 10.4161 18.4773 12.3999C18.4773 14.3837 18.4773 14.6042 18.4458 15.3914C18.4143 16.1156 18.2884 16.4935 18.1939 16.7769C18.0679 17.1233 17.9105 17.3752 17.6271 17.6271C17.3752 17.879 17.1233 18.0365 16.7769 18.1939C16.525 18.2884 16.1156 18.4143 15.3914 18.4458C14.6042 18.4773 14.3837 18.4773 12.3999 18.4773C10.4161 18.4773 10.1957 18.4773 9.40846 18.4458C8.68422 18.4143 8.30635 18.2884 8.02295 18.1939C7.67657 18.0679 7.42465 17.9105 7.17274 17.6271C6.92083 17.3752 6.76339 17.1233 6.60594 16.7769C6.51147 16.525 6.38552 16.1156 6.35403 15.3914C6.32254 14.6042 6.32254 14.3837 6.32254 12.3999C6.32254 10.4161 6.32254 10.1957 6.35403 9.40846C6.38552 8.68422 6.51147 8.30635 6.60594 8.02295C6.7319 7.67657 6.88934 7.42465 7.17274 7.17274C7.42465 6.92083 7.67657 6.76339 8.02295 6.60594C8.27486 6.51147 8.68422 6.38552 9.40846 6.35403C10.1957 6.35403 10.4161 6.32254 12.3999 6.32254ZM12.3999 5C10.3846 5 10.1327 5 9.34549 5.03149C8.55826 5.06298 8.02295 5.18893 7.55061 5.37787C7.07828 5.5668 6.66892 5.81871 6.22807 6.22807C5.81871 6.66892 5.5668 7.07828 5.37787 7.55061C5.18893 8.02295 5.06298 8.55826 5.03149 9.34549C5 10.1327 5 10.3846 5 12.3999C5 14.4152 5 14.6671 5.03149 15.4544C5.06298 16.2416 5.18893 16.7769 5.37787 17.2492C5.5668 17.7216 5.81871 18.1624 6.22807 18.5718C6.63743 18.9811 7.04679 19.233 7.55061 19.422C8.02295 19.6109 8.55826 19.7369 9.34549 19.7684C10.1327 19.7998 10.3846 19.7998 12.3999 19.7998C14.4152 19.7998 14.6671 19.7998 15.4544 19.7684C16.2416 19.7369 16.7769 19.6109 17.2492 19.422C17.7216 19.233 18.1624 18.9811 18.5718 18.5718C18.9811 18.1624 19.233 17.7531 19.422 17.2492C19.6109 16.7769 19.7369 16.2416 19.7684 15.4544C19.7998 14.6671 19.7998 14.4152 19.7998 12.3999C19.7998 10.3846 19.7998 10.1327 19.7684 9.34549C19.7369 8.55826 19.6109 8.02295 19.422 7.55061C19.233 7.07828 18.9811 6.63743 18.5718 6.22807C18.1624 5.81871 17.7531 5.5668 17.2492 5.37787C16.7769 5.18893 16.2416 5.06298 15.4544 5.03149C14.6671 5 14.4152 5 12.3999 5Z" fill="black"/>
<path d="M12.4 8.58972C10.2903 8.58972 8.58986 10.2901 8.58986 12.3999C8.58986 14.5097 10.2903 16.2101 12.4 16.2101C14.5098 16.2101 16.2102 14.5097 16.2102 12.3999C16.2102 10.2901 14.5098 8.58972 12.4 8.58972ZM12.4 14.8875C11.046 14.8875 9.94389 13.7854 9.94389 12.4314C9.94389 11.0774 11.046 9.97524 12.4 9.97524C13.7541 9.97524 14.8562 11.0774 14.8562 12.4314C14.8562 13.7854 13.7541 14.8875 12.4 14.8875Z" fill="black"/>
<path d="M17.2491 8.46396C17.2491 8.96779 16.8397 9.34566 16.3674 9.34566C15.8636 9.34566 15.4857 8.9363 15.4857 8.46396C15.4857 7.96014 15.8951 7.58227 16.3674 7.58227C16.8397 7.55078 17.2491 7.96014 17.2491 8.46396Z" fill="black"/>
</svg>
