<?xml version="1.0" encoding="utf-8"?>
<!-- Generator: Adobe Illustrator 23.1.1, SVG Export Plug-In . SVG Version: 6.00 Build 0)  -->
<svg version="1.1" id="Layer_1" xmlns="http://www.w3.org/2000/svg" xmlns:xlink="http://www.w3.org/1999/xlink" x="0px" y="0px"
	 viewBox="0 0 24 24" style="enable-background:new 0 0 24 24;" xml:space="preserve">
<style type="text/css">
	.st0{fill:none;}
</style>
<path class="st0" d="M0,0h24v24H0V0z M0,0h24v24H0V0z"/>
<g>
	<rect x="11.2" y="8.2" width="1.6" height="1.6"/>
	<rect x="14.2" y="11.2" width="1.6" height="1.6"/>
	<rect x="11.2" y="11.2" width="1.6" height="1.6"/>
	<rect x="14.2" y="8.2" width="1.6" height="1.6"/>
	<rect x="17.2" y="8.2" width="1.6" height="1.6"/>
	<rect x="17.2" y="11.2" width="1.6" height="1.6"/>
	<rect x="8.2" y="11.2" width="1.6" height="1.6"/>
	<rect x="5.2" y="11.2" width="1.6" height="1.6"/>
	<rect x="8.2" y="8.2" width="1.6" height="1.6"/>
	<rect x="8.2" y="14.2" width="7.6" height="1.6"/>
	<rect x="5.2" y="8.2" width="1.6" height="1.6"/>
</g>
<path d="M21.8,7c0-1-0.8-1.8-1.8-1.8H4C3,5.2,2.2,6,2.2,7l0,10c0,1,0.8,1.8,1.8,1.8h16c1,0,1.8-0.8,1.8-1.8V7z M20.2,7v10v0.2H20H4
	H3.8V17V7V6.8H4h16h0.2V7z"/>
</svg>
