<?xml version="1.0" encoding="utf-8"?>
<!-- Generator: Adobe Illustrator 23.1.1, SVG Export Plug-In . SVG Version: 6.00 Build 0)  -->
<svg version="1.1" id="Layer_1" xmlns="http://www.w3.org/2000/svg" xmlns:xlink="http://www.w3.org/1999/xlink" x="0px" y="0px"
	 viewBox="0 0 24 24" style="enable-background:new 0 0 24 24;" xml:space="preserve">
<style type="text/css">
	.st0{fill:none;}
</style>
<path class="st0" d="M0,0h24v24H0V0z"/>
<path d="M21.8,12l-4.3-6c-0.3-0.5-0.9-0.8-1.5-0.8l-11,0C4,5.2,3.2,6,3.2,7v10c0,1,0.8,1.8,1.8,1.8l11,0c0.6,0,1.1-0.3,1.5-0.8
	L21.8,12z M16.2,17.1L16.2,17.1L16,17.2H5H4.8V17V7V6.8H5h11h0.1l0.1,0.1l3.5,5l0.1,0.1l-0.1,0.1L16.2,17.1z"/>
</svg>
