<?xml version="1.0" encoding="utf-8"?>
<!-- Generator: Adobe Illustrator 23.1.1, SVG Export Plug-In . SVG Version: 6.00 Build 0)  -->
<svg version="1.1" id="Layer_1" xmlns="http://www.w3.org/2000/svg" xmlns:xlink="http://www.w3.org/1999/xlink" x="0px" y="0px"
	 viewBox="0 0 24 24" style="enable-background:new 0 0 24 24;" xml:space="preserve">
<style type="text/css">
	.st0{fill:none;}
</style>
<path class="st0" d="M0,0h24v24H0V0z"/>
<g>
	<path d="M2.4,5c0-1,0.8-1.8,1.8-1.8h8C13.2,3.2,14,4,14,5v3.8h-1.6V5V4.8h-0.2h-8H4V5v14v0.2h0.2h8h0.2V19v-3.8H14V19
		c0,1-0.8,1.8-1.8,1.8h-8c-1,0-1.8-0.8-1.8-1.8V5z"/>
	<polygon points="21.6,12 16.9,7.3 15.7,8.4 18.2,10.9 18.5,11.2 18,11.2 8.6,11.2 8.6,12.8 18,12.8 18.5,12.8 18.2,13.1 15.7,15.6 
		16.9,16.7 	"/>
</g>
</svg>
