<?xml version="1.0" encoding="utf-8"?>
<!-- Generator: Adobe Illustrator 23.1.1, SVG Export Plug-In . SVG Version: 6.00 Build 0)  -->
<svg version="1.1" id="Layer_1" xmlns="http://www.w3.org/2000/svg" xmlns:xlink="http://www.w3.org/1999/xlink" x="0px" y="0px"
	 viewBox="0 0 24 24" style="enable-background:new 0 0 24 24;" xml:space="preserve">
<style type="text/css">
	.st0{fill:none;}
</style>
<path class="st0" d="M0,0h24v24H0V0z"/>
<path d="M21.8,6c0-1-0.8-1.8-1.8-1.8H4C3,4.2,2.2,5,2.2,6v12c0,1,0.8,1.8,1.8,1.8h16c1,0,1.8-0.8,1.8-1.8V6z M20.2,8.3V18v0.2H20H4
	H3.8V18V8.3V7.9l0.3,0.2L12,14l7.9-5.9l0.3-0.2C20.2,7.9,20.2,8.3,20.2,8.3z M20.1,6.2l-8,6H12l-0.1-0.1l-8-6L3.4,5.8H4h16h0.6
	L20.1,6.2z"/>
</svg>
