<?xml version="1.0" encoding="utf-8"?>
<!-- Generator: Adobe Illustrator 24.0.0, SVG Export Plug-In . SVG Version: 6.00 Build 0)  -->
<svg version="1.1" id="Layer_1" xmlns="http://www.w3.org/2000/svg" xmlns:xlink="http://www.w3.org/1999/xlink" x="0px" y="0px"
	 viewBox="0 0 24 24" style="enable-background:new 0 0 24 24;" xml:space="preserve">
<style type="text/css">
	.st0{fill:none;}
</style>
<path class="st0" d="M0,0h24v24H0V0z"/>
<g>
	<path d="M19.8,18.5L5.5,4.2L4.3,5.3l3.3,3.3l0.1,0.1v0.1c0,1.8,1.2,3,3.8,3.7l0,0l0,0l3.5,3.5l0.1,0.1l-0.1,0.1c-0.3,0.5-1,1-2.6,1
		c-2.4,0-3-1.2-3.2-2.1H7.5c0.3,2.5,2.5,3.2,3.5,3.4l0.2,0v0.2v2h2.6v-2v-0.2l0.2,0c1-0.2,1.8-0.6,2.4-1.1l0.1-0.1l0.1,0.1l2.1,2.1
		L19.8,18.5z"/>
	<path d="M11.5,6.8c0.3-0.1,0.7-0.1,1-0.1c1.6,0,2.5,0.7,2.7,2.1H17c-0.1-1.7-1.3-3-3-3.4l-0.2,0V5.2v-2h-2.6v2v0.2l-0.2,0
		c-0.2,0.1-0.5,0.1-0.8,0.2L11.5,6.8z"/>
</g>
</svg>
