<?xml version="1.0" encoding="utf-8"?>
<!-- Generator: Adobe Illustrator 23.1.1, SVG Export Plug-In . SVG Version: 6.00 Build 0)  -->
<svg version="1.1" id="Layer_1" xmlns="http://www.w3.org/2000/svg" xmlns:xlink="http://www.w3.org/1999/xlink" x="0px" y="0px"
	 viewBox="0 0 24 24" style="enable-background:new 0 0 24 24;" xml:space="preserve">
<style type="text/css">
	.st0{fill:none;}
</style>
<path class="st0" d="M0,0h24v24H0V0z"/>
<g>
	<circle cx="15.5" cy="9.5" r="1.3"/>
	<path d="M12,13.7c-2.1,0-3.9,1.2-4.8,3.1h9.6C15.9,14.9,14.1,13.7,12,13.7z"/>
	<circle cx="8.5" cy="9.5" r="1.3"/>
</g>
<path d="M12,3.6c4.6,0,8.4,3.8,8.4,8.4s-3.8,8.4-8.4,8.4c-4.6,0-8.4-3.8-8.4-8.4S7.4,3.6,12,3.6 M12,2C6.5,2,2,6.5,2,12
	s4.5,10,10,10c5.5,0,10-4.5,10-10S17.5,2,12,2L12,2z"/>
</svg>
