<?xml version="1.0" encoding="utf-8"?>
<!-- Generator: Adobe Illustrator 23.1.1, SVG Export Plug-In . SVG Version: 6.00 Build 0)  -->
<svg version="1.1" id="Layer_1" xmlns="http://www.w3.org/2000/svg" xmlns:xlink="http://www.w3.org/1999/xlink" x="0px" y="0px"
	 viewBox="0 0 24 24" style="enable-background:new 0 0 24 24;" xml:space="preserve">
<style type="text/css">
	.st0{fill:none;}
</style>
<path class="st0" d="M0,0h24v24H0V0z"/>
<g>
	<polygon points="12.8,11.2 11.2,11.2 11.2,14 11.2,14.2 11,14.2 8.2,14.2 8.2,15.8 11,15.8 11.2,15.8 11.2,16 11.2,18.8 12.8,18.8 
		12.8,16 12.8,15.8 13,15.8 15.8,15.8 15.8,14.2 13,14.2 12.8,14.2 12.8,14 	"/>
	<path d="M19.8,8.1l-5.9-5.9H6C5,2.2,4.2,3,4.2,4v16c0,1,0.8,1.8,1.8,1.8h12c1,0,1.8-0.8,1.8-1.8V8.1z M18.2,9v11v0.2H18H6H5.8V20V4
		V3.8H6h7h0.2V4v4.8H18h0.2V9z"/>
</g>
</svg>
