<?xml version="1.0" encoding="utf-8"?>
<!-- Generator: Adobe Illustrator 23.1.1, SVG Export Plug-In . SVG Version: 6.00 Build 0)  -->
<svg version="1.1" id="Layer_1" xmlns="http://www.w3.org/2000/svg" xmlns:xlink="http://www.w3.org/1999/xlink" x="0px" y="0px"
	 viewBox="0 0 24 24" style="enable-background:new 0 0 24 24;" xml:space="preserve">
<style type="text/css">
	.st0{fill:none;}
</style>
<path class="st0" d="M0,0h24v24H0V0z"/>
<g>
	<path d="M10.2,20.2c0.1,0.9,0.9,1.6,1.8,1.6s1.7-0.7,1.8-1.6H10.2z"/>
	<path d="M6.2,11v5v0.1l-0.1,0.1l-1.9,1.9v0.7h15.6v-0.7l-1.9-1.9l-0.1-0.1V16v-5c0-3.1-1.7-5.5-4.3-6.1l-0.2,0V4.7V4
		c0-0.7-0.6-1.3-1.3-1.3S10.7,3.3,10.7,4v0.7v0.2l-0.2,0C7.9,5.5,6.2,7.9,6.2,11z M12,6.3c2.5,0,4.2,1.9,4.2,4.7v6v0.2H16H8H7.8V17
		v-6C7.8,8.2,9.5,6.3,12,6.3z"/>
</g>
</svg>
