<?xml version="1.0" encoding="utf-8"?>
<!-- Generator: Adobe Illustrator 23.1.1, SVG Export Plug-In . SVG Version: 6.00 Build 0)  -->
<svg version="1.1" id="Layer_1" xmlns="http://www.w3.org/2000/svg" xmlns:xlink="http://www.w3.org/1999/xlink" x="0px" y="0px"
	 viewBox="0 0 24 24" style="enable-background:new 0 0 24 24;" xml:space="preserve">
<style type="text/css">
	.st0{fill:none;}
</style>
<path class="st0" d="M0,0h24v24H0V0z"/>
<g>
	<path d="M20.8,14.2h-1.6V19v0.2H19H5H4.8V19V8V7.8H5h4.8V6.2H5C4,6.2,3.2,7,3.2,8v11c0,1,0.8,1.8,1.8,1.8h14c1,0,1.8-0.8,1.8-1.8
		V14.2z"/>
	<polygon points="19.2,9.8 20.8,9.8 20.8,3.2 14.2,3.2 14.2,4.8 17.6,4.8 18.1,4.8 17.7,5.1 8,14.8 9.2,16 18.9,6.3 19.2,5.9 
		19.2,6.4 	"/>
</g>
</svg>
