<?xml version="1.0" encoding="utf-8"?>
<!-- Generator: Adobe Illustrator 23.1.1, SVG Export Plug-In . SVG Version: 6.00 Build 0)  -->
<svg version="1.1" id="Layer_1" xmlns="http://www.w3.org/2000/svg" xmlns:xlink="http://www.w3.org/1999/xlink" x="0px" y="0px"
	 viewBox="0 0 24 24" style="enable-background:new 0 0 24 24;" xml:space="preserve">
<style type="text/css">
	.st0{fill:none;}
</style>
<path class="st0" d="M0,0h24v24H0V0z"/>
<g>
	<polygon points="8.8,9.8 8.8,8.2 6,8.2 5.8,8.2 5.8,8 5.8,5.2 4.2,5.2 4.2,8 4.2,8.2 4,8.2 1.2,8.2 1.2,9.8 4,9.8 4.2,9.8 4.2,10 
		4.2,12.8 5.8,12.8 5.8,10 5.8,9.8 6,9.8 	"/>
</g>
<g>
	<path d="M15,13.2c-2.1,0-3.8-1.7-3.8-3.8V7.7C11.3,5.7,13,4,15,4s3.8,1.7,3.8,3.8v1.7C18.8,11.5,17.1,13.2,15,13.2z M15,5.6
		c-1.2,0-2.2,1-2.2,2.2v1.7c0,1.2,1,2.2,2.2,2.2c1.2,0,2.2-1,2.2-2.2V7.7C17.2,6.6,16.2,5.6,15,5.6z"/>
</g>
<g>
	<path d="M20.6,20H9.4c-1.4,0-2.5-1.1-2.5-2.5v-1.3c0-0.7,0.3-1.9,2.2-2.5l1.7-0.5l0.4,1.5l-1.7,0.5c-1.1,0.3-1.1,0.8-1.1,0.9v1.3
		c0,0.5,0.4,0.9,0.9,0.9h11.2c0.5,0,0.9-0.4,0.9-0.9v-1.3c0-0.2,0-0.6-1.1-0.9l-1.6-0.4l0.4-1.5l1.6,0.4c2,0.6,2.2,1.9,2.2,2.5v1.3
		C23.1,18.9,22,20,20.6,20z"/>
</g>
</svg>
