<?xml version="1.0" encoding="utf-8"?>
<!-- Generator: Adobe Illustrator 23.1.1, SVG Export Plug-In . SVG Version: 6.00 Build 0)  -->
<svg version="1.1" id="Layer_1" xmlns="http://www.w3.org/2000/svg" xmlns:xlink="http://www.w3.org/1999/xlink" x="0px" y="0px"
	 viewBox="0 0 24 24" style="enable-background:new 0 0 24 24;" xml:space="preserve">
<style type="text/css">
	.st0{fill:none;}
</style>
<path class="st0" d="M0,0h24v24H0V0z"/>
<path d="M21.8,16.8V11c0-1.5-1.3-2.8-2.8-2.8h-1h-0.2V8V3.2H6.2V8v0.2H6H5c-1.5,0-2.8,1.3-2.8,2.8v5.8H6h0.2V17v3.8h11.6V17v-0.2H18
	H21.8z M7.8,8V5V4.8H8h8h0.2V5v3v0.2H16H8H7.8V8z M16.2,15v2v2v0.2H16H8H7.8V19v-4v-0.2H8h8h0.2V15z M6.2,13.2V15v0.2H6H4H3.8V15v-4
	c0-0.7,0.5-1.2,1.2-1.2h14c0.7,0,1.2,0.5,1.2,1.2v4v0.2H20h-2h-0.2V15v-1.8H6.2z"/>
<circle cx="18" cy="11.5" r="0.8"/>
</svg>
