<?xml version="1.0" encoding="utf-8"?>
<!-- Generator: Adobe Illustrator 23.1.1, SVG Export Plug-In . SVG Version: 6.00 Build 0)  -->
<svg version="1.1" id="Layer_1" xmlns="http://www.w3.org/2000/svg" xmlns:xlink="http://www.w3.org/1999/xlink" x="0px" y="0px"
	 viewBox="0 0 24 24" style="enable-background:new 0 0 24 24;" xml:space="preserve">
<style type="text/css">
	.st0{fill:none;}
</style>
<path class="st0" d="M0,0h24v24H0V0z"/>
<path d="M12,21.7c1-1.2,6.8-8,6.8-12.7c0-3.7-3.1-6.8-6.8-6.8S5.2,5.3,5.2,9C5.2,13.7,11,20.5,12,21.7z M12,3.8
	c2.9,0,5.2,2.3,5.2,5.2c0,3.3-3.5,8.1-5,10L12,19.2L11.8,19c-1.5-1.9-5-6.8-5-10C6.8,6.1,9.1,3.8,12,3.8z"/>
<circle cx="12" cy="9" r="2.3"/>
</svg>
