<?xml version="1.0" encoding="utf-8"?>
<!-- Generator: Adobe Illustrator 24.0.3, SVG Export Plug-In . SVG Version: 6.00 Build 0)  -->
<svg version="1.1" id="Layer_1" xmlns="http://www.w3.org/2000/svg" xmlns:xlink="http://www.w3.org/1999/xlink" x="0px" y="0px"
	 viewBox="0 0 24 24" style="enable-background:new 0 0 24 24;" xml:space="preserve">
<style type="text/css">
	.st0{fill:none;}
</style>
<path class="st0" d="M0,0h24v24H0V0z"/>
<path d="M16,3H5C3.9,3,3,3.9,3,5v14c0,1.1,0.9,2,2,2h14c1.1,0,2-0.9,2-2V8L16,3z M16.2,19.4H7.8v-5.6h8.4V19.4z M19.4,19
	c0,0.2-0.2,0.4-0.4,0.4h-1.2V13c0-0.4-0.4-0.8-0.8-0.8H7c-0.4,0-0.8,0.4-0.8,0.8v6.4H5c-0.2,0-0.4-0.2-0.4-0.4V5
	c0-0.2,0.2-0.4,0.4-0.4h1.2v4C6.2,9,6.6,9.4,7,9.4h8.8V7.8h-8V4.6h7.5l4.1,4.1V19z"/>
</svg>
