<?xml version="1.0" encoding="utf-8"?>
<!-- Generator: Adobe Illustrator 23.1.1, SVG Export Plug-In . SVG Version: 6.00 Build 0)  -->
<svg version="1.1" id="Layer_1" xmlns="http://www.w3.org/2000/svg" xmlns:xlink="http://www.w3.org/1999/xlink" x="0px" y="0px"
	 viewBox="0 0 24 24" style="enable-background:new 0 0 24 24;" xml:space="preserve">
<style type="text/css">
	.st0{fill:none;}
</style>
<path class="st0" d="M0,0h24v24H0V0z"/>
<path d="M21.2,16.8h1.6V9.1L12,3.2L1.4,9l3.7,2l0.1,0.1v0.1v5.9l6.8,3.7l6.8-3.7v-5.9v-0.1l0.1-0.1l2-1.1l0.3-0.2v0.3V16.8z
	 M17.2,12.3V16v0.1l-0.1,0.1l-5,2.7L12,18.9l-0.1-0.1l-5-2.7l-0.1-0.1V16v-3.7v-0.3l0.3,0.2l4.9,2.7l4.9-2.7l0.3-0.2V12.3z
	 M18.9,9.2l-6.8,3.7L12,12.9l-0.1-0.1L5.1,9.2L4.8,9l0.3-0.2l6.8-3.7L12,5.1l0.1,0.1l6.8,3.7L19.2,9L18.9,9.2z"/>
</svg>
