<?xml version="1.0" encoding="utf-8"?>
<!-- Generator: Adobe Illustrator 23.1.1, SVG Export Plug-In . SVG Version: 6.00 Build 0)  -->
<svg version="1.1" id="Layer_1" xmlns="http://www.w3.org/2000/svg" xmlns:xlink="http://www.w3.org/1999/xlink" x="0px" y="0px"
	 viewBox="0 0 24 24" style="enable-background:new 0 0 24 24;" xml:space="preserve">
<style type="text/css">
	.st0{fill:none;}
</style>
<path class="st0" d="M0,0h24v24H0V0z"/>
<path d="M22.1,12.5c0-0.1,0.1-0.1,0.1-0.2c0,0,0,0,0-0.1c0-0.1,0.1-0.2,0.1-0.3s0-0.2-0.1-0.3c0,0,0-0.1,0-0.1
	c0-0.1-0.1-0.1-0.1-0.2c0,0,0,0-0.1-0.1c-0.1-0.1-0.1-0.1-0.2-0.1c0,0,0,0,0,0c0,0,0,0,0,0l-19-7.5C2.5,3.7,2.2,3.7,2,3.9
	C1.7,4.1,1.7,4.5,1.7,4.8L4,12l-2.2,7.2c-0.1,0.3,0,0.6,0.2,0.8c0.2,0.1,0.3,0.2,0.5,0.2c0.1,0,0.2,0,0.3-0.1l19-7.5c0,0,0,0,0,0
	c0,0,0,0,0,0C21.9,12.7,22,12.6,22.1,12.5C22.1,12.6,22.1,12.5,22.1,12.5z M3.8,5.9l13.5,5.3H5.4L3.8,5.9z M5.4,12.8h11.9L3.8,18.1
	L5.4,12.8z"/>
</svg>
