<?xml version="1.0" encoding="utf-8"?>
<!-- Generator: Adobe Illustrator 23.1.1, SVG Export Plug-In . SVG Version: 6.00 Build 0)  -->
<svg version="1.1" id="Layer_1" xmlns="http://www.w3.org/2000/svg" xmlns:xlink="http://www.w3.org/1999/xlink" x="0px" y="0px"
	 viewBox="0 0 24 24" style="enable-background:new 0 0 24 24;" xml:space="preserve">
<style type="text/css">
	.st0{fill:none;}
</style>
<g>
	<path class="st0" d="M0,0h24v24H0V0z"/>
</g>
<g>
	<path d="M13.9,22.1h-3.7c-0.6,0-1.1-0.4-1.2-1L8.6,19c-0.3-0.2-0.6-0.3-0.9-0.6l-1.9,0.8c-0.6,0.2-1.2,0-1.6-0.5l-1.9-3.2
		c-0.3-0.5-0.2-1.2,0.2-1.6l1.7-1.3c0-0.2,0-0.4,0-0.6c0-0.2,0-0.4,0-0.6l-1.6-1.3C2.1,9.7,2,9,2.3,8.5l1.8-3.2
		c0.3-0.5,1-0.8,1.5-0.6l1.9,0.8C7.9,5.4,8.3,5.2,8.6,5l0.3-2C9,2.3,9.5,1.9,10.1,1.9h3.7c0.6,0,1.1,0.4,1.2,1L15.4,5
		c0.3,0.2,0.6,0.3,0.9,0.6l1.9-0.8c0.6-0.2,1.2,0,1.6,0.5l1.9,3.2c0.3,0.5,0.2,1.2-0.3,1.6l-1.6,1.3c0,0.2,0,0.4,0,0.6
		c0,0.2,0,0.4,0,0.5l1.6,1.3c0.5,0.5,0.6,1.1,0.3,1.7l-1.8,3.2c-0.3,0.5-1,0.8-1.5,0.6l-1.9-0.8c-0.3,0.2-0.6,0.4-0.9,0.6l-0.3,2
		C15,21.7,14.5,22.1,13.9,22.1z M10.4,20.5h3.1l0.3-2.2c0-0.3,0.2-0.5,0.5-0.6c0.5-0.2,1-0.5,1.4-0.8c0.2-0.2,0.5-0.2,0.8-0.1l2,0.8
		l1.6-2.7l-1.7-1.4c-0.2-0.2-0.3-0.5-0.3-0.8c0-0.2,0.1-0.5,0.1-0.8c0-0.3,0-0.5-0.1-0.8c0-0.3,0.1-0.6,0.3-0.8l1.7-1.4l-1.6-2.7
		l-2,0.8c-0.3,0.1-0.6,0.1-0.8-0.1c-0.5-0.3-0.9-0.6-1.4-0.8c-0.3-0.1-0.5-0.3-0.5-0.6l-0.3-2.2h-3.1l-0.3,2.2
		c0,0.3-0.2,0.5-0.5,0.6c-0.5,0.2-1,0.5-1.4,0.8C8,7.3,7.7,7.3,7.5,7.2l-2-0.8L3.9,9.1l1.7,1.4c0.2,0.2,0.3,0.5,0.3,0.7
		c0,0.3-0.1,0.6-0.1,0.8c0,0.3,0,0.5,0.1,0.8c0,0.3-0.1,0.6-0.3,0.8l-1.7,1.3l1.6,2.7l2-0.8c0.3-0.1,0.6-0.1,0.8,0.1
		c0.5,0.4,0.9,0.6,1.4,0.8c0.3,0.1,0.5,0.3,0.5,0.6L10.4,20.5z M20.3,14.6C20.3,14.6,20.3,14.6,20.3,14.6L20.3,14.6z M3.7,14.6
		C3.7,14.6,3.7,14.6,3.7,14.6S3.7,14.6,3.7,14.6z M20.3,9.3C20.3,9.4,20.3,9.4,20.3,9.3L20.3,9.3z M3.7,9.3L3.7,9.3
		C3.7,9.3,3.7,9.3,3.7,9.3z M12,15.5c-1.9,0-3.5-1.5-3.5-3.5s1.5-3.5,3.5-3.5c1.9,0,3.5,1.5,3.5,3.5S13.9,15.5,12,15.5z M12,10.1
		c-1,0-1.9,0.8-1.9,1.9s0.8,1.9,1.9,1.9c1,0,1.9-0.8,1.9-1.9S13,10.1,12,10.1z"/>
</g>
</svg>
