<?xml version="1.0" encoding="utf-8"?>
<!-- Generator: Adobe Illustrator 23.1.1, SVG Export Plug-In . SVG Version: 6.00 Build 0)  -->
<svg version="1.1" id="Layer_1" xmlns="http://www.w3.org/2000/svg" xmlns:xlink="http://www.w3.org/1999/xlink" x="0px" y="0px"
	 viewBox="0 0 24 24" style="enable-background:new 0 0 24 24;" xml:space="preserve">
<style type="text/css">
	.st0{fill:none;}
</style>
<path class="st0" d="M0,0h24v24H0V0z"/>
<path d="M18,16.3c-0.7,0-1.3,0.3-1.8,0.7l-0.1,0.1L15.9,17l-7.1-4.1l-0.1-0.1l0-0.1c0-0.2,0.1-0.4,0.1-0.7s0-0.5-0.1-0.7l0-0.1
	l0.1-0.1l7-4.1L16,6.9L16.1,7c0.5,0.5,1.2,0.8,1.9,0.8c1.5,0,2.8-1.3,2.8-2.8S19.5,2.2,18,2.2S15.2,3.5,15.2,5c0,0.2,0,0.5,0.1,0.7
	l0,0.1l-0.1,0.1l-7,4.1L8,10.1L7.9,10C7.4,9.5,6.7,9.2,6,9.2c-1.5,0-2.8,1.3-2.8,2.8s1.3,2.8,2.8,2.8c0.7,0,1.4-0.3,1.9-0.8L8,13.9
	L8.1,14l7.1,4.2l0.1,0.1l0,0.1c0,0.2-0.1,0.4-0.1,0.6c0,1.5,1.2,2.7,2.7,2.7s2.7-1.2,2.7-2.7S19.5,16.3,18,16.3z M18,3.8
	c0.7,0,1.2,0.5,1.2,1.2S18.7,6.2,18,6.2S16.8,5.7,16.8,5S17.3,3.8,18,3.8z M6,13.2c-0.7,0-1.2-0.5-1.2-1.2s0.5-1.2,1.2-1.2
	s1.2,0.5,1.2,1.2S6.7,13.2,6,13.2z M18,20.2c-0.7,0-1.2-0.5-1.2-1.2s0.5-1.2,1.2-1.2s1.2,0.5,1.2,1.2S18.7,20.2,18,20.2z"/>
</svg>
