<?xml version="1.0" encoding="utf-8"?>
<!-- Generator: Adobe Illustrator 23.1.1, SVG Export Plug-In . SVG Version: 6.00 Build 0)  -->
<svg version="1.1" id="Layer_1" xmlns="http://www.w3.org/2000/svg" xmlns:xlink="http://www.w3.org/1999/xlink" x="0px" y="0px"
	 viewBox="0 0 24 24" style="enable-background:new 0 0 24 24;" xml:space="preserve">
<style type="text/css">
	.st0{fill:none;}
</style>
<path d="M21,6.2c-1,0-1.8,0.8-1.8,1.8c0,0.2,0,0.3,0.1,0.5l0,0.1l-0.1,0.1l-3.5,3.6l-0.1,0.1l-0.1,0c-0.1,0-0.3-0.1-0.5-0.1
	s-0.3,0-0.5,0.1l-0.1,0l-0.1-0.1l-2.5-2.5l-0.1-0.1l0-0.1c0-0.1,0.1-0.3,0.1-0.5c0-1-0.8-1.8-1.8-1.8S8.2,8,8.2,9
	c0,0.2,0,0.3,0.1,0.5l0,0.1L8.2,9.7l-4.6,4.6l-0.1,0.1l-0.1,0c-0.1,0-0.3-0.1-0.5-0.1c-1,0-1.8,0.8-1.8,1.8S2,17.8,3,17.8
	S4.8,17,4.8,16c0-0.2,0-0.3-0.1-0.5l0-0.1l0.1-0.1l4.6-4.6l0.1-0.1l0.1,0c0.1,0,0.3,0.1,0.5,0.1s0.3,0,0.5-0.1l0.1,0l0.1,0.1
	l2.5,2.5l0.1,0.1l0,0.1c0,0.1-0.1,0.3-0.1,0.5c0,1,0.8,1.8,1.8,1.8s1.8-0.8,1.8-1.8c0-0.2,0-0.3-0.1-0.5l0-0.1l0.1-0.1l3.6-3.5
	l0.1-0.1l0.1,0c0.1,0,0.3,0.1,0.5,0.1c1,0,1.8-0.8,1.8-1.8S22,6.2,21,6.2z"/>
<path class="st0" d="M0,0h24v24H0V0z"/>
</svg>
