<?xml version="1.0" encoding="utf-8"?>
<!-- Generator: Adobe Illustrator 23.1.1, SVG Export Plug-In . SVG Version: 6.00 Build 0)  -->
<svg version="1.1" id="Layer_1" xmlns="http://www.w3.org/2000/svg" xmlns:xlink="http://www.w3.org/1999/xlink" x="0px" y="0px"
	 viewBox="0 0 24 24" style="enable-background:new 0 0 24 24;" xml:space="preserve">
<style type="text/css">
	.st0{fill:none;}
</style>
<g>
	<path d="M17,7.6c2.4,0,4.4,2,4.4,4.4s-2,4.4-4.4,4.4H7c-2.4,0-4.4-2-4.4-4.4s2-4.4,4.4-4.4H17 M17,6H7c-3.3,0-6,2.7-6,6s2.7,6,6,6
		h10c3.3,0,6-2.7,6-6S20.3,6,17,6L17,6z"/>
</g>
<path class="st0" d="M0,0h24v24H0V0z"/>
<circle cx="17" cy="12" r="2.8"/>
</svg>
