<?xml version="1.0" encoding="utf-8"?>
<!-- Generator: Adobe Illustrator 23.1.1, SVG Export Plug-In . SVG Version: 6.00 Build 0)  -->
<svg version="1.1" id="Layer_1" xmlns="http://www.w3.org/2000/svg" xmlns:xlink="http://www.w3.org/1999/xlink" x="0px" y="0px"
	 viewBox="0 0 24 24" style="enable-background:new 0 0 24 24;" xml:space="preserve">
<style type="text/css">
	.st0{fill:none;}
</style>
<path class="st0" d="M0,0h24v24H0V0z"/>
<g>
	<path d="M20.8,5.1L12,1.2L3.2,5.1V11c0,5.5,3.8,10.5,8.8,11.8c5-1.3,8.8-6.3,8.8-11.8V5.1z M19.2,6.3V11c0,4.6-3,8.8-7.1,10.1
		l-0.1,0l-0.1,0C7.8,19.8,4.8,15.6,4.8,11V6.3V6.2l0.1-0.1l7-3.1L12,3l0.1,0l7,3.1l0.1,0.1V6.3z"/>
	<polygon points="17,9.1 16,8.1 15.9,8.1 15.8,8.1 10.3,13.6 10.3,13.7 10.2,13.6 8.2,11.6 8.1,11.5 8,11.6 7,12.5 6.9,12.6 7,12.7 
		10.2,15.9 10.3,15.9 10.4,15.9 17,9.3 17.1,9.2 	"/>
</g>
</svg>
