<?xml version="1.0" encoding="utf-8"?>
<!-- Generator: Adobe Illustrator 23.1.1, SVG Export Plug-In . SVG Version: 6.00 Build 0)  -->
<svg version="1.1" id="Layer_1" xmlns="http://www.w3.org/2000/svg" xmlns:xlink="http://www.w3.org/1999/xlink" x="0px" y="0px"
	 viewBox="0 0 24 24" style="enable-background:new 0 0 24 24;" xml:space="preserve">
<style type="text/css">
	.st0{fill:none;}
</style>
<path d="M12,5.6c4,0,7.6,2.3,9.3,5.9c-1.7,3.6-5.2,5.9-9.3,5.9s-7.6-2.3-9.3-5.9C4.4,7.9,8,5.6,12,5.6 M12,4C7,4,2.7,7.1,1,11.5
	C2.7,15.9,7,19,12,19s9.3-3.1,11-7.5C21.3,7.1,17,4,12,4L12,4z"/>
<path class="st0" d="M0,0h24v24H0V0z"/>
<path d="M12,8.6c1.6,0,2.9,1.3,2.9,2.9s-1.3,2.9-2.9,2.9s-2.9-1.3-2.9-2.9S10.4,8.6,12,8.6 M12,7c-2.5,0-4.5,2-4.5,4.5S9.5,16,12,16
	s4.5-2,4.5-4.5S14.5,7,12,7L12,7z"/>
</svg>
