<!-- Generated by IcoMoon.io -->
<svg version="1.1" xmlns="http://www.w3.org/2000/svg" width="1024" height="1024" viewBox="0 0 1024 1024">
<title></title>
<g id="icomoon-ignore">
</g>
<path fill="#000" d="M413.867 699.733l51.2 85.333v-85.333h25.6v128h-29.867l-51.2-85.333v85.333h-21.333v-128h25.6z"></path>
<path fill="#000" d="M601.6 733.867c0-4.267-4.267-4.267-4.267-8.533-4.267 0-4.267-4.267-8.533-4.267s-8.533 0-8.533 0-12.8 0-17.067 4.267c-4.267 4.267-8.533 4.267-8.533 8.533-4.267 4.267-4.267 8.533-4.267 12.8s0 8.533 0 17.067c0 4.267 0 8.533 0 17.067 0 4.267 4.267 8.533 4.267 12.8 4.267 4.267 4.267 8.533 8.533 8.533 4.267 4.267 8.533 4.267 17.067 4.267s17.067-4.267 21.333-8.533 8.533-12.8 8.533-21.333h25.6c0 8.533-4.267 17.067-4.267 21.333-4.267 8.533-8.533 12.8-12.8 17.067s-8.533 8.533-17.067 8.533c-8.533 4.267-12.8 4.267-21.333 4.267s-17.067 0-25.6-4.267-12.8-8.533-21.333-12.8c-4.267-4.267-8.533-12.8-12.8-21.333s-4.267-17.067-4.267-25.6 0-17.067 4.267-25.6 8.533-17.067 12.8-21.333 12.8-12.8 21.333-12.8c8.533-4.267 17.067-4.267 25.6-4.267s12.8 0 21.333 4.267c4.267 0 12.8 4.267 17.067 8.533s8.533 8.533 12.8 12.8c4.267 4.267 4.267 12.8 4.267 21.333h-25.6c-8.533-8.533-8.533-12.8-8.533-12.8z"></path>
<path fill="#000" d="M512.596 194.807c63.61 0 112.541 19.572 156.579 63.61s63.61 92.969 63.61 156.579-19.572 112.541-63.61 156.579-97.862 63.61-156.579 63.61-112.541-19.572-156.579-63.61c-44.038-44.038-63.61-97.862-63.61-156.579s19.572-112.541 63.61-156.579c44.038-44.038 92.969-63.61 156.579-63.61zM341.337 356.279c-4.893 19.572-9.786 39.145-9.786 58.717 0 48.931 19.572 92.969 53.824 127.221s78.29 53.824 127.221 53.824 92.969-19.572 127.221-53.824c14.679-9.786 24.466-24.466 29.359-39.145l-83.183-39.145c-4.893 29.359-29.359 48.931-58.717 48.931v34.252h-24.466v-34.252c-24.466 0-48.931-9.786-68.504-24.466l29.359-29.359c14.679 14.679 29.359 19.572 48.931 19.572 14.679 0 29.359-4.893 29.359-24.466 0-4.893 0-9.786-4.893-14.679l-19.572-9.786-24.466-9.786c-14.679-4.893-24.466-9.786-34.252-14.679l-117.435-48.931zM512.596 233.951c-48.931 0-92.969 19.572-127.221 53.824-9.786 9.786-19.572 19.572-24.466 29.359l83.183 39.145c9.786-24.466 29.359-39.145 58.717-39.145v-34.252h24.466v34.252c19.572 0 39.145 4.893 53.824 19.572l-29.359 29.359c-9.786-9.786-24.466-14.679-39.145-14.679-9.786 0-24.466 4.893-24.466 19.572v4.893l48.931 24.466c14.679 4.893 24.466 9.786 34.252 14.679l112.541 48.931c4.893-14.679 4.893-29.359 4.893-48.931 0-48.931-19.572-92.969-53.824-127.221-29.359-34.252-73.397-53.824-122.328-53.824z"></path>
</svg>
