<!-- Generated by IcoMoon.io -->
<svg version="1.1" xmlns="http://www.w3.org/2000/svg" width="1024" height="1024" viewBox="0 0 1024 1024">
<title></title>
<g id="icomoon-ignore">
</g>
<path fill="#000" d="M737.699 287.853c59.591 59.591 93.112 137.805 93.112 223.468 0 89.387-29.796 163.876-89.387 223.468-63.316 63.316-137.805 93.112-227.192 93.112-85.663 0-160.152-29.796-223.468-93.112s-93.112-137.805-93.112-223.468c0-85.663 29.796-160.152 93.112-223.468 59.591-59.591 134.081-93.112 223.468-93.112 85.663 0 160.152 29.796 223.468 93.112zM331.733 328.822c-52.142 52.142-78.214 111.734-78.214 182.499s26.071 130.356 78.214 182.499c52.142 52.142 111.734 78.214 182.499 78.214s134.081-26.071 186.223-78.214c48.418-48.418 74.489-108.009 74.489-182.499 0-70.765-26.071-134.081-74.489-182.499-52.142-52.142-111.734-74.489-182.499-74.489-78.214-3.724-137.805 22.347-186.223 74.489zM465.813 481.525c-7.449-18.622-18.622-26.071-37.245-26.071-26.071 0-40.969 18.622-40.969 55.867s14.898 55.867 40.969 55.867c18.622 0 29.796-7.449 40.969-26.071l37.245 22.347c-18.622 33.52-44.694 48.418-81.938 48.418-29.796 0-52.142-7.449-67.040-26.071-18.622-18.622-26.071-40.969-26.071-70.765s7.449-55.867 26.071-70.765c18.622-18.622 40.969-26.071 67.040-26.071 37.245 0 67.040 14.898 85.663 44.694l-44.694 18.622zM648.312 481.525c-7.449-18.622-18.622-26.071-33.52-26.071-29.796 0-40.969 18.622-40.969 55.867s14.898 55.867 40.969 55.867c18.622 0 29.796-7.449 37.245-26.071l40.969 22.347c-18.622 33.52-44.694 48.418-81.938 48.418-29.796 0-52.142-7.449-67.040-26.071-18.622-18.622-26.071-40.969-26.071-70.765s7.449-55.867 26.071-70.765c18.622-18.622 40.969-26.071 67.040-26.071 37.245 0 67.040 14.898 81.938 44.694l-44.694 18.622z"></path>
</svg>
