<!-- Generated by IcoMoon.io -->
<svg version="1.1" xmlns="http://www.w3.org/2000/svg" width="1024" height="1024" viewBox="0 0 1024 1024">
<title></title>
<g id="icomoon-ignore">
</g>
<path fill="#000" d="M418.133 699.733l51.2 85.333v-85.333h25.6v128h-25.6l-51.2-85.333v85.333h-25.6v-128h25.6z"></path>
<path fill="#000" d="M576 699.733c8.533 0 17.067 0 21.333 4.267 8.533 4.267 12.8 8.533 17.067 12.8s8.533 12.8 12.8 21.333c4.267 8.533 4.267 17.067 4.267 25.6s0 17.067-4.267 25.6c-4.267 8.533-4.267 12.8-12.8 21.333-4.267 4.267-12.8 8.533-17.067 12.8-8.533 4.267-17.067 4.267-25.6 4.267h-55.467v-128h59.733zM576 802.133c4.267 0 8.533 0 12.8 0s8.533-4.267 8.533-8.533c4.267-4.267 4.267-8.533 8.533-12.8 0-4.267 4.267-12.8 4.267-17.067s0-12.8 0-17.067-4.267-8.533-4.267-12.8c-4.267-4.267-8.533-8.533-12.8-8.533s-8.533-4.267-17.067-4.267h-21.333v81.067h21.333z"></path>
<path fill="#000" d="M512.36 199.346c-61.333 0-111.999 21.333-154.665 63.999-42.666 45.333-63.999 95.999-63.999 157.332s21.333 111.999 63.999 154.665c42.666 42.666 95.999 63.999 154.665 63.999 61.333 0 114.666-21.333 157.332-66.666 42.666-42.666 63.999-93.333 63.999-154.665s-21.333-114.666-63.999-157.332c-42.666-40-95.999-61.333-157.332-61.333zM512.36 236.679c50.666 0 93.333 18.667 127.999 53.333s53.333 77.333 53.333 127.999c0 50.666-16 93.333-53.333 125.332-37.333 37.333-79.999 53.333-127.999 53.333-50.666 0-93.333-18.667-127.999-53.333s-53.333-77.333-53.333-127.999c0-48 18.667-90.666 53.333-127.999 34.666-32 77.333-50.666 127.999-50.666z"></path>
<path fill="#000" d="M595.026 367.344h-159.999v37.333h159.999v-37.333zM595.026 436.677h-159.999v37.333h159.999v-37.333z"></path>
</svg>
