<!-- Generated by IcoMoon.io -->
<svg version="1.1" xmlns="http://www.w3.org/2000/svg" width="1024" height="1024" viewBox="0 0 1024 1024">
<title></title>
<g id="icomoon-ignore">
</g>
<path fill="#000" d="M576 366.933c0-8.533-4.267-12.8-12.8-12.8h-93.867c-8.533 0-12.8 4.267-12.8 12.8v89.6h25.6v106.667h68.267v-106.667h25.6v-89.6z"></path>
<path fill="#000" d="M507.733 200.533c-59.733 0-110.933 21.333-153.6 64s-64 98.133-64 157.867 21.333 110.933 64 153.6 93.867 64 153.6 64 115.2-21.333 157.867-64c42.667-42.667 64-93.867 64-153.6s-21.333-115.2-64-157.867-93.867-64-157.867-64zM516.267 238.933c51.2 0 93.867 17.067 128 51.2s51.2 76.8 51.2 128-17.067 93.867-51.2 128c-38.4 34.133-81.067 55.467-128 55.467-51.2 0-93.867-17.067-128-55.467-34.133-34.133-55.467-76.8-55.467-128 0-46.933 17.067-89.6 55.467-128 29.867-34.133 72.533-51.2 128-51.2z"></path>
<path fill="#000" d="M550.4 298.667c0 18.851-15.282 34.133-34.133 34.133s-34.133-15.282-34.133-34.133c0-18.851 15.282-34.133 34.133-34.133s34.133 15.282 34.133 34.133z"></path>
<path fill="#000" d="M456.533 699.733c4.267 0 12.8 0 17.067 0s8.533 4.267 12.8 4.267c4.267 4.267 4.267 4.267 8.533 8.533 0 4.267 4.267 8.533 4.267 12.8s0 12.8-4.267 17.067c-4.267 4.267-8.533 8.533-12.8 8.533 8.533 4.267 12.8 4.267 17.067 12.8 4.267 4.267 4.267 12.8 4.267 21.333 0 4.267 0 12.8-4.267 17.067s-4.267 8.533-8.533 12.8c-4.267 4.267-8.533 4.267-12.8 8.533-4.267 0-12.8 0-17.067 0h-64v-123.733h59.733zM452.267 750.933c4.267 0 8.533 0 12.8-4.267s4.267-4.267 4.267-12.8c0-4.267 0-4.267 0-8.533 0 0-4.267-4.267-4.267-4.267s-4.267 0-4.267-4.267c-4.267 0-4.267 0-8.533 0h-29.867v29.867h29.867zM452.267 802.133c4.267 0 4.267 0 8.533 0s4.267 0 8.533-4.267c0 0 4.267-4.267 4.267-4.267s0-4.267 0-8.533 0-12.8-4.267-12.8-8.533-4.267-12.8-4.267h-34.133v34.133h29.867z"></path>
<path fill="#000" d="M507.733 699.733h29.867l29.867 51.2 29.867-51.2h29.867l-46.933 76.8v46.933h-25.6v-46.933l-46.933-76.8z"></path>
</svg>
