<!-- Generated by IcoMoon.io -->
<svg version="1.1" xmlns="http://www.w3.org/2000/svg" width="1024" height="1024" viewBox="0 0 1024 1024">
<title></title>
<g id="icomoon-ignore">
</g>
<path fill="#000" d="M733.975 287.853c59.591 59.591 93.112 137.805 93.112 223.468 0 89.387-29.796 163.876-89.387 223.468-63.316 63.316-137.805 93.112-227.192 93.112-85.663 0-160.152-29.796-223.468-93.112s-93.112-137.805-93.112-223.468 29.796-160.152 93.112-223.468c59.591-59.591 134.081-93.112 223.468-93.112 85.663 0 160.152 29.796 223.468 93.112zM328.008 328.822c-52.142 52.142-78.214 111.734-78.214 182.499s26.071 130.356 78.214 182.499c52.142 52.142 111.734 78.214 182.499 78.214s134.081-26.071 186.223-78.214c48.418-48.418 74.489-108.009 74.489-182.499 0-70.765-26.071-134.081-74.489-182.499-52.142-52.142-111.734-74.489-182.499-74.489-78.214-3.724-137.805 22.347-186.223 74.489z"></path>
<path fill="#000" d="M657.067 593.067c-12.8 17.067-25.6 38.4-46.933 55.467-25.6 17.067-55.467 29.867-89.6 29.867-59.733 0-153.6-34.133-153.6-162.133 0-89.6 51.2-166.4 157.867-166.4 34.133 0 93.867 8.533 132.267 72.533l-68.267 38.4c-4.267-12.8-12.8-21.333-25.6-34.133-8.533-4.267-21.333-12.8-34.133-12.8-51.2 0-64 55.467-64 93.867 0 42.667 21.333 93.867 68.267 93.867 4.267 0 25.6 0 46.933-21.333 8.533-8.533 12.8-17.067 12.8-25.6l64 38.4z"></path>
</svg>
