<!-- Generated by IcoMoon.io -->
<svg version="1.1" xmlns="http://www.w3.org/2000/svg" width="1024" height="1024" viewBox="0 0 1024 1024">
<title></title>
<g id="icomoon-ignore">
</g>
<path fill="#000" d="M426.667 789.333c0 4.267 4.267 4.267 4.267 8.533 4.267 0 4.267 4.267 8.533 4.267s8.533 0 8.533 0 4.267 0 8.533 0 4.267 0 8.533-4.267c4.267 0 4.267-4.267 4.267-4.267s4.267-4.267 4.267-8.533 0-4.267-4.267-8.533c-4.267 0-4.267-4.267-8.533-4.267s-8.533-4.267-12.8-4.267c0-4.267-4.267-4.267-8.533-4.267s-8.533-4.267-12.8-4.267-8.533-4.267-12.8-8.533c-4.267 0-8.533-4.267-8.533-8.533-4.267-4.267-4.267-8.533-4.267-12.8 0-8.533 0-12.8 4.267-17.067s4.267-8.533 12.8-12.8c4.267-4.267 8.533-4.267 17.067-8.533 4.267 0 12.8-4.267 17.067-4.267 8.533 0 12.8 0 17.067 4.267 4.267 0 12.8 4.267 17.067 8.533s8.533 8.533 12.8 12.8c4.267 4.267 4.267 12.8 4.267 17.067h-25.6c0-4.267 0-8.533-4.267-8.533 0-4.267-4.267-4.267-4.267-4.267-4.267 0-4.267-4.267-8.533-4.267s-4.267 0-8.533 0-4.267 0-8.533 0-4.267 0-4.267 4.267l-4.267 4.267c0 0 0 4.267 0 8.533s0 4.267 0 4.267l4.267 4.267c4.267 0 8.533 4.267 12.8 4.267s12.8 4.267 17.067 4.267c4.267 0 4.267 0 8.533 4.267 4.267 0 8.533 4.267 12.8 4.267 4.267 4.267 8.533 4.267 12.8 12.8 4.267 4.267 4.267 8.533 4.267 17.067 0 4.267 0 12.8-4.267 17.067s-4.267 8.533-8.533 12.8c-4.267 4.267-8.533 4.267-17.067 8.533-8.533 0-12.8 4.267-21.333 4.267s-12.8 0-21.333-4.267c-8.533 0-12.8-4.267-17.067-8.533-8.533-8.533-12.8-12.8-17.067-17.067s-4.267-12.8-4.267-21.333h25.6c0 4.267 4.267 8.533 4.267 12.8z"></path>
<path fill="#000" d="M580.267 691.2l46.933 128h-29.867l-8.533-29.867h-46.933l-8.533 29.867h-29.867l46.933-128h29.867zM584.533 768l-17.067-46.933-17.067 46.933h34.133z"></path>
<path fill="#000" d="M510.070 193.783c-61.333 0-111.999 21.333-154.665 63.999-42.666 45.333-63.999 95.999-63.999 157.332s21.333 111.999 63.999 154.665c42.666 42.666 95.999 63.999 154.665 63.999 61.333 0 114.666-21.333 157.332-66.666 42.666-42.666 63.999-93.333 63.999-154.665s-21.333-114.666-63.999-157.332c-45.333-40-95.999-61.333-157.332-61.333zM510.070 231.116c50.666 0 93.333 18.667 127.999 53.333s53.333 77.333 53.333 127.999-16 93.333-50.666 125.332c-37.333 37.333-79.999 53.333-127.999 53.333-50.666 0-90.666-18.667-127.999-53.333-34.666-34.666-53.333-77.333-53.333-127.999 0-48 18.667-90.666 53.333-127.999 32-32 74.666-50.666 125.332-50.666z"></path>
<path fill="#000" d="M411.404 383.115c8-56 48-85.333 95.999-85.333 69.333 0 114.666 50.666 114.666 119.999 0 66.666-45.333 117.332-114.666 117.332-48 0-90.666-29.333-98.666-85.333h56c2.667 29.333 21.333 40 48 40 32 0 50.666-29.333 50.666-74.666 0-48-18.667-71.999-50.666-71.999-24 0-45.333 8-50.666 40h16l-42.666 42.666-42.666-42.666h18.667z"></path>
</svg>
