<!-- Generated by IcoMoon.io -->
<svg version="1.1" xmlns="http://www.w3.org/2000/svg" width="1024" height="1024" viewBox="0 0 1024 1024">
<title></title>
<g id="icomoon-ignore">
</g>
<path fill="#000" d="M512 196.267c-174.933 0-320 140.8-320 320 0 174.933 140.8 320 320 320s320-140.8 320-320c0-179.2-145.067-320-320-320zM512 772.267c-140.8 0-260.267-115.2-260.267-260.267 0-29.867 4.267-59.733 12.8-85.333l102.4 46.933c-4.267 12.8-4.267 25.6-4.267 42.667 0 128 93.867 162.133 153.6 162.133 34.133 0 64-12.8 89.6-29.867 4.267-4.267 8.533-8.533 12.8-8.533l-46.933-55.467c0 0-4.267 4.267-4.267 4.267-17.067 17.067-38.4 17.067-42.667 17.067-46.933 0-68.267-51.2-68.267-93.867l277.333 123.733c0 0 0 0 0 0-38.4 81.067-123.733 136.533-221.867 136.533zM759.467 580.267l-285.867-128c8.533-17.067 25.6-34.133 51.2-34.133 12.8 0 25.6 4.267 34.133 12.8 4.267 4.267 8.533 4.267 8.533 8.533l55.467-55.467c-34.133-29.867-72.533-34.133-98.133-34.133-59.733 0-102.4 25.6-128 68.267l-98.133-42.667c42.667-72.533 123.733-119.467 213.333-119.467 140.8 0 260.267 115.2 260.267 260.267 0 21.333-4.267 42.667-12.8 64 0 0 0 0 0 0z"></path>
</svg>
