<?xml version="1.0" encoding="utf-8"?>
<!-- Generator: Adobe Illustrator 24.0.0, SVG Export Plug-In . SVG Version: 6.00 Build 0)  -->
<svg version="1.1" id="Layer_1" xmlns="http://www.w3.org/2000/svg" xmlns:xlink="http://www.w3.org/1999/xlink" x="0px" y="0px"
	 viewBox="0 0 1000 1000" style="enable-background:new 0 0 1000 1000;" xml:space="preserve">
<g>
	<polygon points="466.7,616.7 533.3,616.7 533.3,458.3 533.3,450 541.7,450 700,450 700,383.3 541.7,383.3 533.3,383.3 533.3,375 
		533.3,216.7 466.7,216.7 466.7,375 466.7,383.3 458.3,383.3 300,383.3 300,450 458.3,450 466.7,450 466.7,458.3 	"/>
	<path d="M91.7,666.7c0,41.7,33.3,75,75,75H750h4.2l4.2,4.2L912.5,900V166.7c0-41.7-33.3-75-75-75H166.7c-41.7,0-75,33.3-75,75
		V666.7z M158.3,666.7v-500v-8.3h8.3h666.7h8.3v8.3v550v20.8L829.2,725l-45.8-45.8H166.7h-8.3V666.7z"/>
</g>
</svg>
