<?xml version="1.0" encoding="utf-8"?>
<!-- Generator: Adobe Illustrator 24.0.0, SVG Export Plug-In . SVG Version: 6.00 Build 0)  -->
<svg version="1.1" id="Layer_1" xmlns="http://www.w3.org/2000/svg" xmlns:xlink="http://www.w3.org/1999/xlink" x="0px" y="0px"
	 viewBox="0 0 1000 1000" style="enable-background:new 0 0 1000 1000;" xml:space="preserve">
<g>
	<path d="M708.3,758.3c-41.7,0-75,33.3-75,75c0,41.7,33.3,75,75,75c41.7,0,75-33.3,75-75C783.3,791.7,750,758.3,708.3,758.3z"/>
	<path d="M291.7,758.3c-41.7,0-75,33.3-75,75c0,41.7,33.3,75,75,75s75-33.3,75-75C366.7,791.7,333.3,758.3,291.7,758.3z"/>
	<polygon points="341.7,175 341.7,241.7 458.3,241.7 466.7,241.7 466.7,250 466.7,366.7 533.3,366.7 533.3,250 533.3,241.7 
		541.7,241.7 658.3,241.7 658.3,175 541.7,175 533.3,175 533.3,166.7 533.3,50 466.7,50 466.7,166.7 466.7,175 458.3,175 	"/>
	<path d="M291.7,700h491.7v-66.7H291.7h-12.5l8.3-12.5l45.8-83.3l0-4.2h4.2H650c29.2,0,54.2-16.7,66.7-37.5l154.2-287.5L812.5,175
		L654.2,458.3l-4.2,4.2h-4.2H354.2H350l-4.2-4.2l-175-366.7H50v66.7h75h4.2l4.2,4.2l150,316.7v4.2v4.2l-58.3,100
		c-12.5,25-12.5,50,0,75C241.7,687.5,266.7,700,291.7,700z"/>
</g>
</svg>
