<?xml version="1.0" encoding="utf-8"?>
<!-- Generator: Adobe Illustrator 24.0.0, SVG Export Plug-In . SVG Version: 6.00 Build 0)  -->
<svg version="1.1" id="Layer_1" xmlns="http://www.w3.org/2000/svg" xmlns:xlink="http://www.w3.org/1999/xlink" x="0px" y="0px"
	 viewBox="0 0 1000 1000" style="enable-background:new 0 0 1000 1000;" xml:space="preserve">
<path d="M500,150c191.7,0,350,158.3,350,350S691.7,850,500,850S150,691.7,150,500S308.3,150,500,150 M500,83.3
	C270.8,83.3,83.3,270.8,83.3,500S270.8,916.7,500,916.7S916.7,729.2,916.7,500S729.2,83.3,500,83.3L500,83.3z"/>
<polygon points="700,533.3 700,466.7 541.7,466.7 533.3,466.7 533.3,458.3 533.3,300 466.7,300 466.7,458.3 466.7,466.7 
	458.3,466.7 300,466.7 300,533.3 458.3,533.3 466.7,533.3 466.7,541.7 466.7,700 533.3,700 533.3,541.7 533.3,533.3 541.7,533.3 "/>
</svg>
