<?xml version="1.0" encoding="utf-8"?>
<!-- Generator: Adobe Illustrator 24.0.0, SVG Export Plug-In . SVG Version: 6.00 Build 0)  -->
<svg version="1.1" id="Layer_1" xmlns="http://www.w3.org/2000/svg" xmlns:xlink="http://www.w3.org/1999/xlink" x="0px" y="0px"
	 viewBox="0 0 1000 1000" style="enable-background:new 0 0 1000 1000;" xml:space="preserve">
<g>
	<path d="M750,820.8l83.3,83.3l45.8-45.8L125,100l-45.8,45.8l50,50l8.3,8.3l-8.3,4.2l-33.3,29.2l41.7,50l37.5-33.3l8.3-4.2l4.2,4.2
		l33.3,37.5l4.2,4.2v4.2c-58.3,66.7-91.7,154.2-91.7,241.7c0,204.2,162.5,366.7,366.7,366.7c87.5,0,175-33.3,241.7-91.7l4.2-4.2
		L750,820.8z M691.7,770.8c-54.2,45.8-120.8,70.8-191.7,70.8c-166.7,0-300-133.3-300-300c0-70.8,25-137.5,70.8-191.7l4.2-8.3
		l8.3,8.3l412.5,412.5l8.3,8.3L691.7,770.8z"/>
	<path d="M500,241.7c166.7,0,300,133.3,300,300c0,25-4.2,54.2-12.5,79.2l54.2,54.2c16.7-41.7,25-87.5,25-133.3
		C866.7,337.5,704.2,175,500,175c-45.8,0-91.7,8.3-133.3,25l54.2,54.2C445.8,245.8,475,241.7,500,241.7z"/>
	<rect x="758.3" y="70.8" transform="matrix(0.6404 -0.768 0.768 0.6404 140.6397 675.4084)" width="66.7" height="233.3"/>
</g>
</svg>
