<?xml version="1.0" encoding="utf-8"?>
<!-- Generator: Adobe Illustrator 24.0.0, SVG Export Plug-In . SVG Version: 6.00 Build 0)  -->
<svg version="1.1" id="Layer_1" xmlns="http://www.w3.org/2000/svg" xmlns:xlink="http://www.w3.org/1999/xlink" x="0px" y="0px"
	 viewBox="0 0 1000 1000" style="enable-background:new 0 0 1000 1000;" xml:space="preserve">
<path d="M812.5,270.8H291.7C162.5,270.8,62.5,375,62.5,500s104.2,229.2,229.2,229.2h479.2l0,0l0,0v-62.5l0,0l0,0H291.7
	C200,666.7,125,591.7,125,500s75-166.7,166.7-166.7h520.8c58.3,0,104.2,45.8,104.2,104.2s-45.8,104.2-104.2,104.2H375
	c-20.8,0-41.7-16.7-41.7-41.7c0-25,16.7-41.7,41.7-41.7h395.8l0,0l0,0v-62.5l0,0l0,0H375c-58.3,0-104.2,45.8-104.2,104.2
	S316.7,604.2,375,604.2h437.5c91.7,0,166.7-75,166.7-166.7S904.2,270.8,812.5,270.8z"/>
</svg>
