<?xml version="1.0" encoding="utf-8"?>
<!-- Generator: Adobe Illustrator 24.0.0, SVG Export Plug-In . SVG Version: 6.00 Build 0)  -->
<svg version="1.1" id="Layer_1" xmlns="http://www.w3.org/2000/svg" xmlns:xlink="http://www.w3.org/1999/xlink" x="0px" y="0px"
	 viewBox="0 0 1000 1000" style="enable-background:new 0 0 1000 1000;" xml:space="preserve">
<path d="M679.2,637.5c0-112.5-91.7-150-191.7-175c-95.8-25-129.2-50-129.2-95.8c0-50,45.8-83.3,120.8-83.3
	c66.7,0,104.2,29.2,112.5,87.5h75c-4.2-70.8-54.2-125-125-141.7h-8.3v-12.5v-83.3H425v83.3v8.3h-8.3
	c-66.7,12.5-137.5,58.3-137.5,141.7c0,79.2,58.3,133.3,187.5,162.5C558.3,550,600,583.3,600,637.5c0,12.5-4.2,83.3-120.8,83.3
	c-100,0-125-50-133.3-87.5h-75C283.3,737.5,375,766.7,416.7,775h8.3v8.3v83.3h108.3v-83.3V775h8.3
	C629.2,762.5,679.2,708.3,679.2,637.5z"/>
</svg>
