<?xml version="1.0" encoding="utf-8"?>
<!-- Generator: Adobe Illustrator 24.0.0, SVG Export Plug-In . SVG Version: 6.00 Build 0)  -->
<svg version="1.1" id="Layer_1" xmlns="http://www.w3.org/2000/svg" xmlns:xlink="http://www.w3.org/1999/xlink" x="0px" y="0px"
	 viewBox="0 0 1000 1000" style="enable-background:new 0 0 1000 1000;" xml:space="preserve">
<path d="M750,250h-62.5l0,0l0,0v479.2c0,91.7-75,166.7-166.7,166.7s-166.7-75-166.7-166.7V208.3c0-58.3,45.8-104.2,104.2-104.2
	S562.5,150,562.5,208.3v437.5c0,20.8-16.7,41.7-41.7,41.7c-25,0-41.7-16.7-41.7-41.7V250l0,0l0,0h-62.5l0,0l0,0v395.8
	c0,58.3,45.8,104.2,104.2,104.2S625,704.2,625,645.8V208.3c0-91.7-75-166.7-166.7-166.7s-166.7,75-166.7,166.7v520.8
	c0,129.2,104.2,229.2,229.2,229.2S750,854.2,750,729.2V250L750,250L750,250z"/>
</svg>
