<?xml version="1.0" encoding="utf-8"?>
<!-- Generator: Adobe Illustrator 24.0.0, SVG Export Plug-In . SVG Version: 6.00 Build 0)  -->
<svg version="1.1" id="Layer_1" xmlns="http://www.w3.org/2000/svg" xmlns:xlink="http://www.w3.org/1999/xlink" x="0px" y="0px"
	 viewBox="0 0 1000 1000" style="enable-background:new 0 0 1000 1000;" xml:space="preserve">
<g>
	<polygon points="354.2,654.2 320.8,791.7 679.2,791.7 645.8,654.2 	"/>
	<path d="M858.3,529.2V108.3c0-16.7-16.7-33.3-33.3-33.3H175c-16.7,0-33.3,16.7-33.3,33.3v420.8L75,850c0,8.3,0,20.8,8.3,29.2
		s16.7,12.5,25,12.5h783.3c8.3,0,20.8-4.2,25-12.5c8.3-8.3,8.3-16.7,8.3-29.2L858.3,529.2z M208.3,141.7h583.3V500H208.3V141.7z
		 M150,825l54.2-258.3h591.7L850,825H150z"/>
</g>
</svg>
