<?xml version="1.0" encoding="utf-8"?>
<!-- Generator: Adobe Illustrator 24.0.0, SVG Export Plug-In . SVG Version: 6.00 Build 0)  -->
<svg version="1.1" id="Layer_1" xmlns="http://www.w3.org/2000/svg" xmlns:xlink="http://www.w3.org/1999/xlink" x="0px" y="0px"
	 viewBox="0 0 1000 1000" style="enable-background:new 0 0 1000 1000;" xml:space="preserve">
<path d="M908.3,333.3c0-25-12.5-50-33.3-62.5L500,50L129.2,270.8c-25,12.5-37.5,37.5-37.5,62.5V750c0,41.7,33.3,75,75,75h666.7
	c41.7,0,75-33.3,75-75V333.3z M162.5,325l333.3-195.8l4.2,0l4.2,4.2l333.3,195.8l4.2,4.2v0v4.2l-4.2,4.2L504.2,550l-4.2,0l-4.2-4.2
	L162.5,337.5l-12.5-4.2L162.5,325z M833.3,758.3H166.7h-8.3V750V429.2v-12.5l12.5,8.3L500,633.3l329.2-204.2l12.5-8.3v16.7v316.7
	v8.3h-8.3V758.3z"/>
</svg>
