<?xml version="1.0" encoding="utf-8"?>
<!-- Generator: Adobe Illustrator 24.0.0, SVG Export Plug-In . SVG Version: 6.00 Build 0)  -->
<svg version="1.1" id="Layer_1" xmlns="http://www.w3.org/2000/svg" xmlns:xlink="http://www.w3.org/1999/xlink" x="0px" y="0px"
	 viewBox="0 0 1000 1000" style="enable-background:new 0 0 1000 1000;" xml:space="preserve">
<g>
	<path d="M658.3,116.7V50H166.7c-41.7,0-75,33.3-75,75v575h66.7V125v-8.3h8.3H658.3z"/>
	<path d="M866.7,462.5L620.8,216.7H333.3c-41.7,0-75,33.3-75,75V875c0,41.7,33.3,75,75,75h458.3c41.7,0,75-33.3,75-75V462.5z
		 M800,500v375v8.3h-8.3H333.3H325V875V291.7v-8.3h8.3h250h8.3v8.3v200h200h8.3V500z"/>
</g>
</svg>
