<?xml version="1.0" encoding="utf-8"?>
<!-- Generator: Adobe Illustrator 24.0.0, SVG Export Plug-In . SVG Version: 6.00 Build 0)  -->
<svg version="1.1" id="Layer_1" xmlns="http://www.w3.org/2000/svg" xmlns:xlink="http://www.w3.org/1999/xlink" x="0px" y="0px"
	 viewBox="0 0 1000 1000" style="enable-background:new 0 0 1000 1000;" xml:space="preserve">
<path d="M500,150c191.7,0,350,158.3,350,350S691.7,850,500,850S150,691.7,150,500S308.3,150,500,150 M500,83.3
	C270.8,83.3,83.3,270.8,83.3,500S270.8,916.7,500,916.7S916.7,729.2,916.7,500S729.2,83.3,500,83.3L500,83.3z"/>
<g>
	<rect x="466.7" y="675" width="66.7" height="66.7"/>
	<path d="M595.8,520.8c33.3-29.2,62.5-54.2,62.5-104.2c0-87.5-70.8-158.3-158.3-158.3c-83.3,0-154.2,66.7-158.3,150h66.7
		C412.5,362.5,450,325,500,325s91.7,41.7,91.7,91.7c0,41.7-25,62.5-54.2,83.3c-33.3,25-66.7,50-70.8,116.7h66.7
		C537.5,570.8,566.7,545.8,595.8,520.8z"/>
</g>
</svg>
