<?xml version="1.0" encoding="utf-8"?>
<!-- Generator: Adobe Illustrator 24.0.0, SVG Export Plug-In . SVG Version: 6.00 Build 0)  -->
<svg version="1.1" id="Layer_1" xmlns="http://www.w3.org/2000/svg" xmlns:xlink="http://www.w3.org/1999/xlink" x="0px" y="0px"
	 viewBox="0 0 1000 1000" style="enable-background:new 0 0 1000 1000;" xml:space="preserve">
<g>
	<rect x="716.7" y="300" width="62.5" height="62.5"/>
	<rect x="716.7" y="466.7" width="62.5" height="62.5"/>
	<rect x="716.7" y="633.3" width="62.5" height="62.5"/>
</g>
<path d="M716.7,825v16.7c0,12.5,12.5,25,25,25H925c12.5,0,25-12.5,25-25V158.3c0-12.5-12.5-25-25-25H425v37.5
	c0,8.3,4.2,16.7,12.5,20.8l54.2,33.3v-25h366.7c12.5,0,25,12.5,25,25v550c0,12.5-12.5,25-25,25H741.7
	C729.2,800,716.7,812.5,716.7,825z"/>
<path d="M583.3,433.3c0-8.3-4.2-16.7-8.3-20.8L312.5,175c-4.2-4.2-12.5-8.3-16.7-8.3c-8.3,0-12.5,4.2-16.7,8.3L8.3,412.5
	C4.2,416.7,0,425,0,433.3v404.2c0,16.7,12.5,29.2,29.2,29.2h229.2h75h220.8c16.7,0,29.2-12.5,29.2-29.2V433.3z M387.5,800V587.5
	c0-29.2-25-54.2-54.2-54.2h-75c-29.2,0-54.2,25-54.2,54.2V800H66.7V450l225-200l225,204.2v350H387.5V800z"/>
</svg>
