<?xml version="1.0" encoding="utf-8"?>
<!-- Generator: Adobe Illustrator 24.0.0, SVG Export Plug-In . SVG Version: 6.00 Build 0)  -->
<svg version="1.1" id="Layer_1" xmlns="http://www.w3.org/2000/svg" xmlns:xlink="http://www.w3.org/1999/xlink" x="0px" y="0px"
	 viewBox="0 0 1000 1000" style="enable-background:new 0 0 1000 1000;" xml:space="preserve">
<g>
	<path d="M725,908.3c-29.2,0-58.3-8.3-83.3-25C433.3,750,250,566.7,116.7,362.5C75,300,83.3,220.8,133.3,170.8l45.8-45.8
		c45.8-45.8,116.7-45.8,158.3,0l83.3,83.3c45.8,45.8,45.8,116.7,0,158.3l0,0l-4.2,4.2c62.5,75,133.3,145.8,208.3,208.3l8.3-8.3
		c41.7-41.7,116.7-41.7,158.3,0l83.3,83.3c45.8,45.8,45.8,116.7,0,158.3l-45.8,45.8C800,895.8,762.5,908.3,725,908.3z M258.3,158.3
		c-8.3,0-20.8,4.2-29.2,12.5l-45.8,45.8c-29.2,29.2-33.3,75-12.5,108.3C304.2,525,475,700,675,829.2c33.3,20.8,79.2,16.7,108.3-12.5
		l45.8-45.8c16.7-16.7,16.7-45.8,0-66.7l-83.3-83.3c-16.7-16.7-45.8-16.7-66.7,0L650,650c-12.5,12.5-33.3,12.5-45.8,4.2
		C508.3,575,420.8,487.5,341.7,391.7c-4.2-12.5-4.2-33.3,8.3-45.8l25-25c16.7-16.7,16.7-45.8,0-66.7l-83.3-83.3
		C283.3,162.5,270.8,158.3,258.3,158.3z M400,341.7L400,341.7L400,341.7z"/>
</g>
</svg>
