<?xml version="1.0" encoding="utf-8"?>
<!-- Generator: Adobe Illustrator 24.0.0, SVG Export Plug-In . SVG Version: 6.00 Build 0)  -->
<svg version="1.1" id="Layer_1" xmlns="http://www.w3.org/2000/svg" xmlns:xlink="http://www.w3.org/1999/xlink" x="0px" y="0px"
	 viewBox="0 0 1000 1000" style="enable-background:new 0 0 1000 1000;" xml:space="preserve">
<g>
	<path d="M100,208.3c0-41.7,33.3-75,75-75h333.3c41.7,0,75,33.3,75,75v158.3h-66.7V208.3V200h-8.3H175h-8.3v8.3v583.3v8.3h8.3h333.3
		h8.3v-8.3V633.3h66.7v158.3c0,41.7-33.3,75-75,75H175c-41.7,0-75-33.3-75-75C100,791.7,100,208.3,100,208.3z"/>
	<polygon points="900,500 704.2,304.2 654.2,350 758.3,454.2 770.8,466.7 750,466.7 358.3,466.7 358.3,533.3 750,533.3 770.8,533.3 
		758.3,545.8 654.2,650 704.2,695.8 	"/>
</g>
</svg>
