<?xml version="1.0" encoding="utf-8"?>
<!-- Generator: Adobe Illustrator 24.0.0, SVG Export Plug-In . SVG Version: 6.00 Build 0)  -->
<svg version="1.1" id="Layer_1" xmlns="http://www.w3.org/2000/svg" xmlns:xlink="http://www.w3.org/1999/xlink" x="0px" y="0px"
	 viewBox="0 0 1000 1000" style="enable-background:new 0 0 1000 1000;" xml:space="preserve">
<g>
	<path d="M432.2,695.5h-131V581.6h131c29.9,0,54,25.2,54,56.4C486.2,669.1,462.1,695.5,432.2,695.5z M301.2,375.3h119.5
		c29.9,0,54,25.2,54,56.4s-24.1,56.4-54,56.4H301.2V375.3z M558.7,522.8c18.4-25.2,29.9-56.4,29.9-91.2
		c0-82.8-64.4-149.9-143.7-149.9H181.7V488v93.6v206.3h134.5h151.7c79.3,0,143.7-67.2,143.7-149.9
		C611.5,591.2,590.8,550.4,558.7,522.8z"/>
	<path d="M1000,190.6c0,18-6.9,33.6-20.7,45.6c-13.8,12-31,18-51.7,18c-19.5,0-36.8-6-50.6-16.8c-13.8-10.8-21.8-25.2-24.1-44.4h54
		c4.6,10.8,11.5,16.8,21.8,16.8c6.9,0,11.5-1.2,16.1-4.8c4.6-3.6,5.7-8.4,5.7-14.4c0-6-2.3-9.6-5.7-13.2c-4.6-3.6-9.2-4.8-17.2-4.8
		h-18.4V133h17.2c6.9,0,12.6-1.2,16.1-4.8c3.4-3.6,5.7-7.2,5.7-12c0-6-2.3-10.8-5.7-14.4c-3.4-3.6-9.2-4.8-14.9-4.8
		c-6.9,0-11.5,2.4-16.1,7.2c-2.3,2.4-4.6,6-5.7,10.8h-50.6c3.4-19.2,10.3-34.8,24.1-45.6c12.6-10.8,28.7-16.8,48.3-16.8
		c20.7,0,36.8,6,50.6,16.8c12.6,12,19.5,26.4,19.5,44.4c0,16.8-6.9,28.8-19.5,37.2C993.1,159.4,1000,173.8,1000,190.6z"/>
	<path d="M182.8,184.6v-62.4H0v825.2h182.8v-61.2h-123V184.6H182.8z"/>
	<path d="M608.1,886.2v61.2h182.8V122.2H608.1v62.4h124.1v701.6H608.1z"/>
</g>
</svg>
