<?xml version="1.0" encoding="utf-8"?>
<!-- Generator: Adobe Illustrator 24.0.0, SVG Export Plug-In . SVG Version: 6.00 Build 0)  -->
<svg version="1.1" id="Layer_1" xmlns="http://www.w3.org/2000/svg" xmlns:xlink="http://www.w3.org/1999/xlink" x="0px" y="0px"
	 viewBox="0 0 1000 1000" style="enable-background:new 0 0 1000 1000;" xml:space="preserve">
<path d="M908.3,250c0-41.7-33.3-75-75-75H166.7c-41.7,0-75,33.3-75,75v500c0,41.7,33.3,75,75,75h666.7c41.7,0,75-33.3,75-75V250z
	 M841.7,345.8V750v8.3h-8.3H166.7h-8.3V750V345.8v-16.7l12.5,8.3L500,583.3l329.2-245.8l12.5-8.3
	C841.7,329.2,841.7,345.8,841.7,345.8z M837.5,258.3l-333.3,250H500l-4.2-4.2l-333.3-250l-20.8-12.5h25h666.7h25L837.5,258.3z"/>
</svg>
