<?xml version="1.0" encoding="utf-8"?>
<!-- Generator: Adobe Illustrator 24.0.0, SVG Export Plug-In . SVG Version: 6.00 Build 0)  -->
<svg version="1.1" id="Layer_1" xmlns="http://www.w3.org/2000/svg" xmlns:xlink="http://www.w3.org/1999/xlink" x="0px" y="0px"
	 viewBox="0 0 1000 1000" style="enable-background:new 0 0 1000 1000;" xml:space="preserve">
<g>
	<path d="M825,770.8L229.2,175l-50,45.8l137.5,137.5l4.2,4.2v4.2c0,75,50,125,158.3,154.2l0,0l0,0L625,666.7l4.2,4.2L625,675
		c-12.5,20.8-41.7,41.7-108.3,41.7c-100,0-125-50-133.3-87.5h-70.8C325,733.3,416.7,762.5,458.3,770.8h8.3v8.3v83.3H575v-83.3v-8.3
		h8.3c41.7-8.3,75-25,100-45.8l4.2-4.2l4.2,4.2l87.5,87.5L825,770.8z"/>
	<path d="M479.2,283.3c12.5-4.2,29.2-4.2,41.7-4.2c66.7,0,104.2,29.2,112.5,87.5h75c-4.2-70.8-54.2-125-125-141.7H575v-8.3v-83.3
		H466.7v83.3v8.3h-8.3c-8.3,4.2-20.8,4.2-33.3,8.3L479.2,283.3z"/>
</g>
</svg>
