<?xml version="1.0" encoding="utf-8"?>
<!-- Generator: Adobe Illustrator 24.0.0, SVG Export Plug-In . SVG Version: 6.00 Build 0)  -->
<svg version="1.1" id="Layer_1" xmlns="http://www.w3.org/2000/svg" xmlns:xlink="http://www.w3.org/1999/xlink" x="0px" y="0px"
	 viewBox="0 0 1000 1000" style="enable-background:new 0 0 1000 1000;" xml:space="preserve">
<g>
	<polygon points="533.3,466.7 466.7,466.7 466.7,583.3 466.7,591.7 458.3,591.7 341.7,591.7 341.7,658.3 458.3,658.3 466.7,658.3 
		466.7,666.7 466.7,783.3 533.3,783.3 533.3,666.7 533.3,658.3 541.7,658.3 658.3,658.3 658.3,591.7 541.7,591.7 533.3,591.7 
		533.3,583.3 	"/>
	<path d="M825,337.5L579.2,91.7H250c-41.7,0-75,33.3-75,75v666.7c0,41.7,33.3,75,75,75h500c41.7,0,75-33.3,75-75V337.5z M758.3,375
		v458.3v8.3H750H250h-8.3v-8.3V166.7v-8.3h8.3h291.7h8.3v8.3v200h200h8.3V375z"/>
</g>
</svg>
