<?xml version="1.0" encoding="utf-8"?>
<!-- Generator: Adobe Illustrator 24.0.0, SVG Export Plug-In . SVG Version: 6.00 Build 0)  -->
<svg version="1.1" id="Layer_1" xmlns="http://www.w3.org/2000/svg" xmlns:xlink="http://www.w3.org/1999/xlink" x="0px" y="0px"
	 viewBox="0 0 1000 1000" style="enable-background:new 0 0 1000 1000;" xml:space="preserve">
<g>
	<path d="M866.7,591.7H800v200v8.3h-8.3H208.3H200v-8.3V333.3V325h8.3h200v-66.7h-200c-41.7,0-75,33.3-75,75v458.3
		c0,41.7,33.3,75,75,75h583.3c41.7,0,75-33.3,75-75V591.7z"/>
	<polygon points="800,408.3 866.7,408.3 866.7,133.3 591.7,133.3 591.7,200 733.3,200 754.2,200 737.5,212.5 333.3,616.7 
		383.3,666.7 787.5,262.5 800,245.8 800,266.7 	"/>
</g>
</svg>
