<?xml version="1.0" encoding="utf-8"?>
<!-- Generator: Adobe Illustrator 24.0.0, SVG Export Plug-In . SVG Version: 6.00 Build 0)  -->
<svg version="1.1" id="Layer_1" xmlns="http://www.w3.org/2000/svg" xmlns:xlink="http://www.w3.org/1999/xlink" x="0px" y="0px"
	 viewBox="0 0 1000 1000" style="enable-background:new 0 0 1000 1000;" xml:space="preserve">
<g>
	<g>
		<path d="M416.7,575c-87.5,0-158.3-70.8-158.3-158.3V350c4.2-87.5,75-158.3,158.3-158.3S575,262.5,575,350v70.8
			C575,504.2,504.2,575,416.7,575z M416.7,258.3c-50,0-91.7,41.7-91.7,91.7v70.8c0,50,41.7,91.7,91.7,91.7s91.7-41.7,91.7-91.7V350
			C508.3,300,466.7,258.3,416.7,258.3z"/>
	</g>
	<g>
		<path d="M650,808.3H183.3c-58.3,0-104.2-45.8-104.2-104.2V650c0-29.2,12.5-79.2,91.7-104.2l70.8-20.8l16.7,62.5l-70.8,20.8
			c-45.8,12.5-45.8,33.3-45.8,37.5V700c0,20.8,16.7,37.5,37.5,37.5h466.7c20.8,0,37.5-16.7,37.5-37.5v-54.2c0-8.3,0-25-45.8-37.5
			l-66.7-16.7l16.7-62.5l66.7,16.7c79.2,25,91.7,75,91.7,104.2v54.2C754.2,762.5,708.3,808.3,650,808.3z"/>
	</g>
</g>
<path d="M745.8,545.8c79.2,25,91.7,75,91.7,104.2v54.2c0,58.3-45.8,104.2-104.2,104.2h83.3c58.3,0,104.2-45.8,104.2-104.2V650
	c0-29.2-12.5-79.2-91.7-104.2l-66.7-16.7"/>
<g>
	<path d="M658.3,350v70.8c0,12.5-4.2,29.2-4.2,41.7l8.3,4.2c29.2,8.3,45.8,20.8,58.3,33.3c12.5-20.8,20.8-45.8,20.8-75v-75
		c0-87.5-70.8-158.3-158.3-158.3c-12.5,0-29.2,4.2-41.7,8.3C608.3,216.7,658.3,275,658.3,350z"/>
</g>
</svg>
