<?xml version="1.0" encoding="utf-8"?>
<!-- Generator: Adobe Illustrator 24.0.0, SVG Export Plug-In . SVG Version: 6.00 Build 0)  -->
<svg version="1.1" id="Layer_1" xmlns="http://www.w3.org/2000/svg" xmlns:xlink="http://www.w3.org/1999/xlink" x="0px" y="0px"
	 viewBox="0 0 1000 1000" style="enable-background:new 0 0 1000 1000;" xml:space="preserve">
<g>
	<path d="M504.2,554.2c-87.5,0-158.3-70.8-158.3-158.3v-66.7c0-87.5,70.8-158.3,158.3-158.3s158.3,70.8,158.3,158.3V400
		C658.3,483.3,591.7,554.2,504.2,554.2z M504.2,237.5c-50,0-91.7,41.7-91.7,91.7V400c0,50,41.7,91.7,91.7,91.7s91.7-41.7,91.7-91.7
		v-70.8C591.7,279.2,554.2,237.5,504.2,237.5z"/>
</g>
<g>
	<path d="M733.3,837.5H270.8c-58.3,0-104.2-45.8-104.2-104.2v-54.2c0-29.2,12.5-79.2,91.7-104.2l70.8-20.8l16.7,62.5L275,637.5
		c-45.8,12.5-45.8,33.3-45.8,37.5v54.2c0,20.8,16.7,37.5,37.5,37.5h466.7c20.8,0,37.5-16.7,37.5-37.5V675c0-8.3,0-25-45.8-37.5
		l-66.7-16.7l16.7-62.5l66.7,16.7c83.3,25,91.7,79.2,91.7,104.2v54.2C841.7,791.7,791.7,837.5,733.3,837.5z"/>
</g>
</svg>
