<?xml version="1.0" encoding="utf-8"?>
<!-- Generator: Adobe Illustrator 24.0.0, SVG Export Plug-In . SVG Version: 6.00 Build 0)  -->
<svg version="1.1" id="Layer_1" xmlns="http://www.w3.org/2000/svg" xmlns:xlink="http://www.w3.org/1999/xlink" x="0px" y="0px"
	 viewBox="0 0 1000 1000" style="enable-background:new 0 0 1000 1000;" xml:space="preserve">
<g>
	<polygon points="366.7,408.3 366.7,341.7 250,341.7 241.7,341.7 241.7,333.3 241.7,216.7 175,216.7 175,333.3 175,341.7 
		166.7,341.7 50,341.7 50,408.3 166.7,408.3 175,408.3 175,416.7 175,533.3 241.7,533.3 241.7,416.7 241.7,408.3 250,408.3 	"/>
</g>
<g>
	<path d="M625,550c-87.5,0-158.3-70.8-158.3-158.3v-70.8c4.2-83.3,75-154.2,158.3-154.2S783.3,237.5,783.3,325v70.8
		C783.3,479.2,712.5,550,625,550z M625,233.3c-50,0-91.7,41.7-91.7,91.7v70.8c0,50,41.7,91.7,91.7,91.7c50,0,91.7-41.7,91.7-91.7
		v-75C716.7,275,675,233.3,625,233.3z"/>
</g>
<g>
	<path d="M858.3,833.3H391.7c-58.3,0-104.2-45.8-104.2-104.2V675c0-29.2,12.5-79.2,91.7-104.2L450,550l16.7,62.5l-70.8,20.8
		C350,645.8,350,666.7,350,670.8V725c0,20.8,16.7,37.5,37.5,37.5h466.7c20.8,0,37.5-16.7,37.5-37.5v-54.2c0-8.3,0-25-45.8-37.5
		l-66.7-16.7l16.7-62.5l66.7,16.7c83.3,25,91.7,79.2,91.7,104.2v54.2C962.5,787.5,916.7,833.3,858.3,833.3z"/>
</g>
</svg>
