<?xml version="1.0" encoding="utf-8"?>
<!-- Generator: Adobe Illustrator 24.0.0, SVG Export Plug-In . SVG Version: 6.00 Build 0)  -->
<svg version="1.1" id="Layer_1" xmlns="http://www.w3.org/2000/svg" xmlns:xlink="http://www.w3.org/1999/xlink" x="0px" y="0px"
	 viewBox="0 0 1000 1000" style="enable-background:new 0 0 1000 1000;" xml:space="preserve">
<path d="M883.3,700H950V379.2L500,133.3L58.3,375l154.2,83.3l4.2,4.2v4.2v245.8L500,866.7l283.3-154.2V466.7v-4.2l4.2-4.2l83.3-45.8
	l12.5-8.3v12.5C883.3,416.7,883.3,700,883.3,700z M716.7,512.5v154.2v4.2l-4.2,4.2L504.2,787.5l-4.2,0l-4.2-4.2L287.5,670.8
	l-4.2-4.2v0V512.5V500l12.5,8.3L500,620.8l204.2-112.5l12.5-8.3C716.7,500,716.7,512.5,716.7,512.5z M787.5,383.3L504.2,537.5H500
	l-4.2-4.2l-283.3-150L200,375l12.5-8.3l283.3-154.2l4.2,0l4.2,4.2l283.3,154.2L800,375L787.5,383.3z"/>
</svg>
