<?xml version="1.0" encoding="utf-8"?>
<!-- Generator: Adobe Illustrator 24.0.0, SVG Export Plug-In . SVG Version: 6.00 Build 0)  -->
<svg version="1.1" id="Layer_1" xmlns="http://www.w3.org/2000/svg" xmlns:xlink="http://www.w3.org/1999/xlink" x="0px" y="0px"
	 viewBox="0 0 1000 1000" style="enable-background:new 0 0 1000 1000;" xml:space="preserve">
<path d="M920.8,520.8c0-4.2,4.2-4.2,4.2-8.3c0,0,0,0,0-4.2c0-4.2,4.2-8.3,4.2-12.5s0-8.3-4.2-12.5v-4.2c0-4.2-4.2-4.2-4.2-8.3
	c0,0,0,0-4.2-4.2s-4.2-4.2-8.3-4.2l0,0l0,0L116.7,150c-12.5,4.2-25,4.2-33.3,12.5c-12.5,8.3-12.5,25-12.5,37.5l95.8,300L75,800
	c-4.2,12.5,0,25,8.3,33.3c8.3,4.2,12.5,8.3,20.8,8.3c4.2,0,8.3,0,12.5-4.2L908.3,525l0,0l0,0C912.5,529.2,916.7,525,920.8,520.8
	C920.8,525,920.8,520.8,920.8,520.8z M158.3,245.8l562.5,220.8H225L158.3,245.8z M225,533.3h495.8L158.3,754.2L225,533.3z"/>
</svg>
