<?xml version="1.0" encoding="utf-8"?>
<!-- Generator: Adobe Illustrator 24.0.0, SVG Export Plug-In . SVG Version: 6.00 Build 0)  -->
<svg version="1.1" id="Layer_1" xmlns="http://www.w3.org/2000/svg" xmlns:xlink="http://www.w3.org/1999/xlink" x="0px" y="0px"
	 viewBox="0 0 1000 1000" style="enable-background:new 0 0 1000 1000;" xml:space="preserve">
<path d="M500,150c191.7,0,350,158.3,350,350S691.7,850,500,850S150,691.7,150,500S308.3,150,500,150 M500,83.3
	C270.8,83.3,83.3,270.8,83.3,500S270.8,916.7,500,916.7S916.7,729.2,916.7,500S729.2,83.3,500,83.3L500,83.3z"/>
<ellipse transform="matrix(0.1602 -0.9871 0.9871 0.1602 151.6602 969.9218)" cx="645.8" cy="395.8" rx="54.2" ry="54.2"/>
<circle cx="354.2" cy="395.8" r="54.2"/>
<g>
	<path d="M500,729.2c91.7,0,175-54.2,212.5-141.7h-66.7c-29.2,54.2-83.3,83.3-145.8,83.3s-112.5-29.2-145.8-83.3h-66.7
		C325,670.8,408.3,729.2,500,729.2z"/>
</g>
</svg>
