<?xml version="1.0" encoding="utf-8"?>
<!-- Generator: Adobe Illustrator 24.0.0, SVG Export Plug-In . SVG Version: 6.00 Build 0)  -->
<svg version="1.1" id="Layer_1" xmlns="http://www.w3.org/2000/svg" xmlns:xlink="http://www.w3.org/1999/xlink" x="0px" y="0px"
	 viewBox="0 0 1000 1000" style="enable-background:new 0 0 1000 1000;" xml:space="preserve">
<g>
	<path d="M579.2,920.8H425c-25,0-45.8-16.7-50-41.7l-16.7-87.5c-12.5-8.3-25-12.5-37.5-25L241.7,800c-25,8.3-50,0-66.7-20.8
		L95.8,645.8c-12.5-20.8-8.3-50,8.3-66.7L175,525c0-8.3,0-16.7,0-25c0-8.3,0-16.7,0-25l-66.7-54.2c-20.8-16.7-25-45.8-12.5-66.7
		l75-133.3c12.5-20.8,41.7-33.3,62.5-25l79.2,33.3c16.7-4.2,33.3-12.5,45.8-20.8l12.5-83.3c4.2-29.2,25-45.8,50-45.8H575
		c25,0,45.8,16.7,50,41.7l16.7,87.5c12.5,8.3,25,12.5,37.5,25l79.2-33.3c25-8.3,50,0,66.7,20.8l79.2,133.3
		c12.5,20.8,8.3,50-12.5,66.7L825,475c0,8.3,0,16.7,0,25s0,16.7,0,20.8l66.7,54.2c20.8,20.8,25,45.8,12.5,70.8l-75,133.3
		c-12.5,20.8-41.7,33.3-62.5,25l-79.2-33.3c-12.5,8.3-25,16.7-37.5,25l-12.5,83.3C625,904.2,604.2,920.8,579.2,920.8z M433.3,854.2
		h129.2l12.5-91.7c0-12.5,8.3-20.8,20.8-25c20.8-8.3,41.7-20.8,58.3-33.3c8.3-8.3,20.8-8.3,33.3-4.2l83.3,33.3l66.7-112.5
		l-70.8-58.3c-8.3-8.3-12.5-20.8-12.5-33.3c0-8.3,4.2-20.8,4.2-33.3s0-20.8-4.2-33.3c0-12.5,4.2-25,12.5-33.3l70.8-58.3l-66.7-112.5
		l-83.3,33.3c-12.5,4.2-25,4.2-33.3-4.2c-20.8-12.5-37.5-25-58.3-33.3c-12.5-4.2-20.8-12.5-20.8-25l-12.5-91.7H433.3l-12.5,91.7
		c0,12.5-8.3,20.8-20.8,25c-20.8,8.3-41.7,20.8-58.3,33.3c-8.3,16.7-20.8,16.7-29.2,12.5l-83.3-33.3l-66.7,112.5l70.8,58.3
		c8.3,8.3,12.5,20.8,12.5,29.2c0,12.5-4.2,25-4.2,33.3c0,12.5,0,20.8,4.2,33.3c0,12.5-4.2,25-12.5,33.3l-70.8,54.2l66.7,112.5
		l83.3-33.3c12.5-4.2,25-4.2,33.3,4.2c20.8,16.7,37.5,25,58.3,33.3c12.5,4.2,20.8,12.5,20.8,25L433.3,854.2z M845.8,608.3
		L845.8,608.3L845.8,608.3z M154.2,608.3L154.2,608.3L154.2,608.3z M845.8,387.5C845.8,391.7,845.8,391.7,845.8,387.5L845.8,387.5z
		 M154.2,387.5L154.2,387.5L154.2,387.5z M500,645.8c-79.2,0-145.8-62.5-145.8-145.8S416.7,354.2,500,354.2
		c79.2,0,145.8,62.5,145.8,145.8S579.2,645.8,500,645.8z M500,420.8c-41.7,0-79.2,33.3-79.2,79.2s33.3,79.2,79.2,79.2
		c41.7,0,79.2-33.3,79.2-79.2S541.7,420.8,500,420.8z"/>
</g>
</svg>
