<?xml version="1.0" encoding="utf-8"?>
<!-- Generator: Adobe Illustrator 24.0.0, SVG Export Plug-In . SVG Version: 6.00 Build 0)  -->
<svg version="1.1" id="Layer_1" xmlns="http://www.w3.org/2000/svg" xmlns:xlink="http://www.w3.org/1999/xlink" x="0px" y="0px"
	 viewBox="0 0 1000 1000" style="enable-background:new 0 0 1000 1000;" xml:space="preserve">
<path d="M145.8,787.5c12.5,25,37.5,37.5,62.5,37.5h575c25,0,50-12.5,66.7-37.5c75-129.2,75-287.5-4.2-416.7l-41.7,62.5
	c50,100,45.8,220.8-12.5,320.8v4.2h-4.2h-575h-4.2l-4.2-4.2c-95.8-162.5-37.5-370.8,125-466.7c50-29.2,112.5-45.8,170.8-45.8
	c50,0,104.2,12.5,150,33.3l62.5-41.7C650,195.8,579.2,175,504.2,175l0,0c-141.7,0-266.7,70.8-345.8,187.5
	C75,491.7,70.8,654.2,145.8,787.5z"/>
<path d="M445.8,637.5c12.5,12.5,33.3,20.8,54.2,20.8c20.8,0,37.5-8.3,54.2-20.8l212.5-316.7L445.8,533.3
	C416.7,558.3,416.7,608.3,445.8,637.5z"/>
</svg>
