<?xml version="1.0" encoding="utf-8"?>
<!-- Generator: Adobe Illustrator 24.0.0, SVG Export Plug-In . SVG Version: 6.00 Build 0)  -->
<svg version="1.1" id="Layer_1" xmlns="http://www.w3.org/2000/svg" xmlns:xlink="http://www.w3.org/1999/xlink" x="0px" y="0px"
	 viewBox="0 0 1000 1000" style="enable-background:new 0 0 1000 1000;" xml:space="preserve">
<g>
	<path d="M500,150c191.7,0,350,158.3,350,350S691.7,850,500,850S150,691.7,150,500S308.3,150,500,150 M500,83.3
		C270.8,83.3,83.3,270.8,83.3,500S270.8,916.7,500,916.7S916.7,729.2,916.7,500S729.2,83.3,500,83.3L500,83.3z"/>
</g>
<g>
	<polygon points="466.7,383.3 466.7,450 625,450 633.3,450 633.3,458.3 633.3,541.7 758.3,416.7 633.3,291.7 633.3,375 633.3,383.3 
		625,383.3 	"/>
	<polygon points="533.3,616.7 533.3,550 375,550 366.7,550 366.7,541.7 366.7,458.3 241.7,583.3 366.7,708.3 366.7,625 366.7,616.7 
		375,616.7 	"/>
</g>
</svg>
