<?xml version="1.0" encoding="utf-8"?>
<!-- Generator: Adobe Illustrator 24.0.0, SVG Export Plug-In . SVG Version: 6.00 Build 0)  -->
<svg version="1.1" id="Layer_1" xmlns="http://www.w3.org/2000/svg" xmlns:xlink="http://www.w3.org/1999/xlink" x="0px" y="0px"
	 viewBox="0 0 1000 1000" style="enable-background:new 0 0 1000 1000;" xml:space="preserve">
<g>
	<path d="M500,150c191.7,0,350,158.3,350,350S691.7,850,500,850S150,691.7,150,500S308.3,150,500,150 M500,83.3
		C270.8,83.3,83.3,270.8,83.3,500S270.8,916.7,500,916.7S916.7,729.2,916.7,500S729.2,83.3,500,83.3L500,83.3z"/>
</g>
<g>
	<polygon points="383.3,366.7 383.3,375 383.3,533.3 450,533.3 450,375 450,366.7 458.3,366.7 541.7,366.7 416.7,241.7 291.7,366.7 
		375,366.7 	"/>
	<polygon points="708.3,633.3 625,633.3 616.7,633.3 616.7,625 616.7,466.7 550,466.7 550,625 550,633.3 541.7,633.3 458.3,633.3 
		583.3,758.3 	"/>
</g>
</svg>
