<?xml version="1.0" encoding="utf-8"?>
<!-- Generator: Adobe Illustrator 24.0.0, SVG Export Plug-In . SVG Version: 6.00 Build 0)  -->
<svg version="1.1" id="Layer_1" xmlns="http://www.w3.org/2000/svg" xmlns:xlink="http://www.w3.org/1999/xlink" x="0px" y="0px"
	 viewBox="0 0 1000 1000" style="enable-background:new 0 0 1000 1000;" xml:space="preserve">
<g>
	<path d="M583.3,650c70.8-37.5,141.7-91.7,141.7-95.8c8.3-8.3,12.5-16.7,12.5-25V141.7c0-12.5-4.2-20.8-12.5-25
		c-45.8-33.3-241.7-75-358.3-75c-41.7,0-70.8,4.2-87.5,12.5C245.8,75,191.7,175,129.2,345.8l0,0l0,0c-50,37.5-75,83.3-66.7,133.3
		c8.3,45.8,41.7,83.3,91.7,100c29.2,8.3,79.2,20.8,116.7,29.2l8.3,4.2l-4.2,8.3c-50,75-95.8,179.2-58.3,258.3
		c16.7,33.3,45.8,54.2,79.2,54.2c75,0,100-70.8,116.7-120.8C429.2,770.8,491.7,700,583.3,650z M350,791.7
		c-20.8,58.3-29.2,75-54.2,75c-4.2,0-12.5,0-20.8-16.7c-16.7-41.7-4.2-141.7,87.5-237.5c12.5-8.3,12.5-20.8,8.3-29.2
		c-4.2-12.5-12.5-20.8-25-20.8c0,0-125-25-175-41.7c-25-8.3-45.8-25-45.8-45.8c0-29.2,16.7-54.2,54.2-79.2
		c4.2-4.2,8.3-8.3,12.5-16.7c41.7-112.5,100-245.8,125-266.7l0,0l0,0c8.3-4.2,25-4.2,45.8-4.2c79.2,0,241.7,25,308.3,54.2h4.2v4.2
		v341.7v4.2h-4.2c-25,16.7-70.8,50-120.8,79.2C454.2,641.7,375,725,350,791.7z"/>
	<path d="M925,587.5h-79.2c-12.5,0-20.8-8.3-20.8-20.8V100c0-12.5,8.3-20.8,20.8-20.8H925c12.5,0,20.8,8.3,20.8,20.8v470.8
		C941.7,579.2,933.3,587.5,925,587.5z"/>
</g>
</svg>
