<?xml version="1.0" encoding="utf-8"?>
<!-- Generator: Adobe Illustrator 24.0.0, SVG Export Plug-In . SVG Version: 6.00 Build 0)  -->
<svg version="1.1" id="Layer_1" xmlns="http://www.w3.org/2000/svg" xmlns:xlink="http://www.w3.org/1999/xlink" x="0px" y="0px"
	 viewBox="0 0 1000 1000" style="enable-background:new 0 0 1000 1000;" xml:space="preserve">
<path d="M875,258.3c-41.7,0-75,33.3-75,75c0,8.3,0,12.5,4.2,20.8v4.2l-4.2,4.2l-145.8,150l-4.2,4.2h-4.2c-4.2,0-12.5-4.2-20.8-4.2
	s-12.5,0-20.8,4.2H600l-4.2-4.2L491.7,408.3l-4.2-4.2V400c0-4.2,4.2-12.5,4.2-20.8c0-41.7-33.3-75-75-75s-75,29.2-75,70.8
	c0,8.3,0,12.5,4.2,20.8v4.2l-4.2,4.2L150,595.8l-4.2,4.2h-4.2c-4.2,0-12.5-4.2-20.8-4.2c-41.7,0-75,33.3-75,75
	c0,41.7,37.5,70.8,79.2,70.8s75-33.3,75-75c0-8.3,0-12.5-4.2-20.8v-4.2l4.2-4.2l191.7-191.7l4.2-4.2h4.2c4.2,0,12.5,4.2,20.8,4.2
	c8.3,0,12.5,0,20.8-4.2h4.2l4.2,4.2L554.2,550l4.2,4.2v4.2c0,4.2-4.2,12.5-4.2,20.8c0,41.7,33.3,75,75,75s75-33.3,75-75
	c0-8.3,0-12.5-4.2-20.8v-4.2l4.2-4.2l150-145.8l4.2-4.2h4.2c4.2,0,12.5,4.2,20.8,4.2c41.7,0,75-33.3,75-75S916.7,258.3,875,258.3z"
	/>
</svg>
