<?xml version="1.0" encoding="utf-8"?>
<!-- Generator: Adobe Illustrator 24.0.0, SVG Export Plug-In . SVG Version: 6.00 Build 0)  -->
<svg version="1.1" id="Layer_1" xmlns="http://www.w3.org/2000/svg" xmlns:xlink="http://www.w3.org/1999/xlink" x="0px" y="0px"
	 viewBox="0 0 1000 1000" style="enable-background:new 0 0 1000 1000;" xml:space="preserve">
<g>
	<path d="M866.7,212.5L500,50L133.3,212.5v245.8c0,229.2,158.3,437.5,366.7,491.7c208.3-54.2,366.7-262.5,366.7-491.7V212.5z
		 M800,262.5v195.8C800,650,675,825,504.2,879.2H500h-4.2C325,825,200,650,200,458.3V262.5v-4.2l4.2-4.2L495.8,125h4.2h4.2
		l291.7,129.2l4.2,4.2V262.5z"/>
	<polygon points="708.3,379.2 666.7,337.5 662.5,337.5 658.3,337.5 429.2,566.7 429.2,570.8 425,566.7 341.7,483.3 337.5,479.2 
		333.3,483.3 291.7,520.8 287.5,525 291.7,529.2 425,662.5 429.2,662.5 433.3,662.5 708.3,387.5 712.5,383.3 	"/>
</g>
</svg>
