<?xml version="1.0" encoding="utf-8"?>
<!-- Generator: Adobe Illustrator 24.0.0, SVG Export Plug-In . SVG Version: 6.00 Build 0)  -->
<svg version="1.1" id="Layer_1" xmlns="http://www.w3.org/2000/svg" xmlns:xlink="http://www.w3.org/1999/xlink" x="0px" y="0px"
	 viewBox="0 0 1000 1000" style="enable-background:new 0 0 1000 1000;" xml:space="preserve">
<path d="M591.7,641.7l200,200l50-50l-200-200h-29.2h-4.2l-4.2-4.2L591.7,575l-4.2-4.2l4.2-4.2c41.7-45.8,62.5-108.3,62.5-170.8
	c0-145.8-116.7-262.5-262.5-262.5S133.3,250,133.3,395.8S250,658.3,395.8,658.3c62.5,0,125-20.8,170.8-62.5l4.2-4.2l4.2,4.2
	l12.5,12.5l4.2,4.2v4.2C591.7,616.7,591.7,641.7,591.7,641.7z M395.8,591.7c-108.3,0-195.8-87.5-195.8-195.8S287.5,200,395.8,200
	s195.8,87.5,195.8,195.8S504.2,591.7,395.8,591.7z"/>
<polygon points="500,362.5 291.7,362.5 279.2,362.5 279.2,375 279.2,416.7 279.2,429.2 291.7,429.2 500,429.2 512.5,429.2 
	512.5,416.7 512.5,375 512.5,362.5 "/>
</svg>
