<svg width="419" height="179" viewBox="0 0 419 179" fill="none" xmlns="http://www.w3.org/2000/svg">
<g clip-path="url(#clip0)">
<path d="M103.248 41.88C105.336 50.232 105.12 54.768 103.68 61.464C101.808 68.952 97.704 74.496 93.816 77.952L107.712 125.4H93.96C89.352 108.048 83.592 88.896 78.84 71.544C81.648 70.032 89.496 65.568 90.792 55.128C92.016 45.336 85.896 37.704 81.72 34.896C78.048 32.664 72.648 30.936 67.608 31.944C57.816 33.024 51.192 40.584 49.68 48.936C49.464 50.088 49.464 50.664 49.32 52.248C49.32 52.248 45.504 62.976 44.208 66.36H47.088L47.016 94.224H80.136L83.952 107.76H33.336V76.584H26.352C28.872 69.024 35.352 52.248 35.352 52.248C36.144 46.2 36.504 34.608 48.816 25.104C54.576 20.28 63.576 17.04 73.224 17.832C89.136 19.776 99.72 30.648 103.248 41.88Z" fill="#0067A6"/>
<path d="M117.36 29.496C127.44 51.744 120.888 72.624 113.4 82.488L124.848 125.04H111.312L98.064 79.248C106.272 71.4 111.384 55.416 107.424 42.24C103.824 28.92 92.736 17.688 77.04 14.592C60.192 11.136 44.28 19.776 37.512 31.728C33.192 38.28 32.472 44.544 31.752 52.248C31.752 52.248 23.256 72.624 20.376 80.04H29.376L29.448 111.36H84.96L88.848 125.256H15.696V92.28L0 92.208C0 92.208 16.992 53.4 16.92 52.248C17.928 38.64 24.048 21.72 37.008 11.64C43.632 6.456 52.488 1.488 64.296 0.336001C77.112 -0.887999 82.584 1.416 91.152 4.296C105.48 10.416 115.2 24.24 117.36 29.496Z" fill="#0067A6"/>
<path d="M56.52 52.68C56.52 45.12 62.64 39 70.128 39C77.688 39 83.808 45.12 83.808 52.68C83.808 60.168 77.688 66.216 70.128 66.216C62.64 66.216 56.52 60.168 56.52 52.68Z" fill="#0067A6"/>
<path d="M220.608 148.728V146.64C221.184 146.496 221.616 146.208 221.976 145.776C222.552 145.128 222.912 144.336 223.056 143.544C223.128 143.472 223.128 143.4 223.128 143.328C223.128 143.256 223.128 143.256 223.128 143.184C223.2 142.968 223.2 142.824 223.2 142.608C223.272 142.464 223.272 142.248 223.272 142.104C223.272 141.456 223.128 140.952 222.84 140.52C222.552 140.088 222.048 139.872 221.328 139.872C221.04 139.872 220.824 139.944 220.608 139.944V137.352H220.68C220.824 137.352 220.896 137.352 220.968 137.352C221.688 137.352 222.264 137.496 222.696 137.712C223.056 138 223.344 138.216 223.56 138.576C223.632 138.648 223.704 138.72 223.704 138.864C223.776 138.936 223.848 139.008 223.848 139.08H223.92L225.072 133.68H228.024L224.784 148.872H221.904L222.192 147.432H222.12C221.76 147.936 221.4 148.296 220.968 148.512C220.824 148.584 220.68 148.656 220.608 148.728ZM220.608 137.352V139.944C219.96 140.088 219.528 140.448 219.096 140.952C218.592 141.672 218.232 142.464 218.088 143.328C218.016 143.544 218.016 143.688 217.944 143.904C217.944 144.12 217.944 144.336 217.944 144.48C217.944 145.056 218.088 145.56 218.304 146.064C218.592 146.496 219.096 146.784 219.744 146.784C220.032 146.784 220.32 146.712 220.608 146.64V148.728C220.248 148.872 219.96 149.016 219.6 149.088C219.456 149.088 219.24 149.16 219.096 149.16C218.88 149.16 218.664 149.16 218.52 149.16C217.152 149.16 216.216 148.8 215.712 148.008C215.136 147.216 214.848 146.208 214.848 145.056C214.848 144.768 214.848 144.408 214.92 144.12C214.92 143.76 214.992 143.472 215.064 143.112C215.424 141.312 216.144 139.944 217.152 139.008C218.232 138 219.312 137.496 220.464 137.352C220.536 137.352 220.536 137.352 220.608 137.352ZM196.128 148.584V146.856C196.488 146.712 196.848 146.568 197.136 146.28C197.64 145.92 198 145.488 198.072 144.84L198.36 143.4C198.216 143.544 198 143.616 197.64 143.76C197.352 143.832 196.92 143.904 196.272 144.048C196.2 144.048 196.128 144.048 196.128 144.048V142.104L197.64 141.888C197.712 141.888 197.784 141.888 197.856 141.888C197.856 141.888 197.928 141.888 198 141.816C198.216 141.816 198.36 141.744 198.576 141.6C198.72 141.456 198.864 141.312 198.936 141.024C198.936 140.952 198.936 140.88 198.936 140.88C198.936 140.808 198.936 140.736 198.936 140.664C198.936 140.304 198.792 140.088 198.576 139.944C198.36 139.872 198.072 139.728 197.784 139.728C197.712 139.728 197.568 139.728 197.496 139.728C197.424 139.728 197.28 139.728 197.208 139.728C196.776 139.728 196.416 139.8 196.128 139.944V137.568C196.488 137.424 196.92 137.424 197.28 137.352C197.424 137.352 197.568 137.352 197.712 137.352C197.784 137.352 197.928 137.352 198.072 137.352C198.288 137.352 198.504 137.352 198.792 137.352C199.008 137.424 199.296 137.424 199.512 137.496C200.16 137.568 200.736 137.856 201.24 138.216C201.744 138.576 201.96 139.152 201.96 139.872C201.96 140.016 201.96 140.088 201.96 140.232C201.96 140.376 201.888 140.448 201.888 140.592L200.592 146.712C200.52 146.928 200.52 147.072 200.52 147.288C200.448 147.432 200.448 147.576 200.448 147.648C200.448 147.936 200.52 148.152 200.592 148.224C200.664 148.368 200.736 148.44 200.88 148.44L200.808 148.872H197.568C197.568 148.8 197.568 148.728 197.568 148.584C197.568 148.512 197.568 148.44 197.568 148.368V148.296C197.568 148.152 197.568 148.08 197.568 147.936C197.568 147.864 197.568 147.72 197.568 147.576C197.496 147.648 197.424 147.72 197.352 147.792C197.208 147.864 197.136 147.936 197.064 148.008C196.776 148.224 196.488 148.44 196.128 148.584ZM205.848 148.872H202.896L206.136 133.68H209.088L205.848 148.872ZM196.128 137.568V139.944C196.056 139.944 195.984 140.016 195.912 140.088C195.624 140.304 195.408 140.52 195.264 140.808C195.264 140.88 195.192 140.952 195.192 141.024C195.12 141.168 195.12 141.24 195.12 141.312L192.24 141.24C192.672 139.728 193.392 138.72 194.328 138.216C194.904 137.928 195.48 137.712 196.128 137.568ZM196.128 142.104V144.048C195.624 144.192 195.12 144.336 194.76 144.48C194.328 144.696 194.04 145.128 193.896 145.704C193.896 145.776 193.896 145.848 193.896 145.848C193.896 145.92 193.824 145.92 193.824 145.992V146.064C193.824 146.064 193.824 146.064 193.824 146.136C193.824 146.424 193.896 146.64 194.112 146.784C194.256 146.928 194.472 147 194.688 147.072C194.688 147.072 194.76 147.072 194.832 147.072C194.904 147.072 194.904 147.072 194.976 147.072C195.048 147.072 195.192 147.072 195.264 147.072C195.336 147.072 195.48 147.072 195.552 147C195.768 147 195.912 146.928 196.128 146.856V148.584C195.984 148.656 195.84 148.728 195.624 148.8C195.12 149.088 194.4 149.16 193.608 149.16C192.888 149.16 192.24 149.016 191.664 148.584C191.088 148.224 190.8 147.576 190.8 146.712C190.8 146.64 190.8 146.496 190.8 146.352C190.8 146.208 190.872 146.064 190.872 145.92C191.088 144.84 191.592 143.976 192.312 143.4C193.104 142.824 193.968 142.464 194.904 142.32L196.128 142.104ZM171.432 149.088V146.64C171.936 146.496 172.44 146.28 172.728 145.92C173.232 145.416 173.592 144.84 173.808 144.264C173.88 144.12 173.952 143.904 174.024 143.76C174.096 143.616 174.096 143.4 174.168 143.256C174.168 143.112 174.168 143.04 174.24 142.896C174.24 142.752 174.24 142.608 174.24 142.464C174.24 142.392 174.24 142.32 174.24 142.248C174.24 142.176 174.24 142.104 174.24 142.032C174.24 141.456 174.096 140.952 173.808 140.52C173.52 140.088 173.016 139.872 172.152 139.872C171.864 139.872 171.648 139.872 171.432 139.872V137.424C171.72 137.424 172.008 137.352 172.296 137.352C172.368 137.352 172.44 137.352 172.44 137.352C172.512 137.352 172.584 137.352 172.656 137.352C173.952 137.352 175.104 137.712 175.968 138.432C176.904 139.08 177.336 140.232 177.336 141.672C177.336 141.888 177.336 142.176 177.336 142.464C177.336 142.68 177.264 142.968 177.192 143.256C176.76 145.2 175.968 146.64 174.672 147.648C173.664 148.368 172.584 148.872 171.432 149.088ZM189.864 141.096L188.28 148.872H185.256L186.768 142.032C186.768 141.96 186.768 141.816 186.84 141.744C186.84 141.6 186.84 141.456 186.84 141.312C186.84 141.312 186.84 141.312 186.84 141.24V141.168C186.84 140.808 186.768 140.52 186.552 140.232C186.336 139.944 185.904 139.872 185.256 139.872C184.608 139.872 184.032 140.088 183.456 140.52C182.952 140.952 182.592 141.6 182.376 142.464L181.008 148.872H178.056L180.432 137.64H183.312L182.952 139.296H183.024C183.096 139.152 183.168 139.08 183.312 138.936C183.384 138.792 183.528 138.648 183.672 138.504C184.032 138.216 184.464 137.928 184.896 137.712C185.4 137.496 186.048 137.352 186.768 137.352C187.776 137.352 188.496 137.568 189.144 138.072C189.72 138.504 190.008 139.224 190.008 140.16C190.008 140.304 190.008 140.448 189.936 140.592C189.936 140.808 189.936 140.952 189.864 141.096ZM171.432 137.424V139.872C170.856 140.016 170.424 140.232 170.064 140.592C169.56 141.096 169.2 141.672 168.984 142.248C168.912 142.464 168.912 142.608 168.84 142.752C168.768 142.968 168.768 143.112 168.696 143.256C168.696 143.472 168.624 143.688 168.624 143.904C168.552 144.12 168.552 144.336 168.552 144.552C168.552 145.056 168.696 145.56 168.984 146.064C169.344 146.496 169.848 146.712 170.712 146.712C170.928 146.712 171.216 146.712 171.432 146.64V149.088C171.144 149.088 170.856 149.16 170.568 149.16C170.496 149.16 170.424 149.16 170.352 149.16C170.28 149.16 170.208 149.16 170.136 149.16C168.84 149.16 167.76 148.8 166.824 148.152C165.96 147.432 165.456 146.352 165.456 144.912C165.456 144.624 165.528 144.408 165.528 144.12C165.528 143.832 165.6 143.544 165.672 143.256C166.104 141.312 166.896 139.872 168.192 138.936C169.2 138.144 170.28 137.64 171.432 137.424ZM140.76 148.584V146.856C141.12 146.712 141.48 146.568 141.84 146.28C142.344 145.92 142.632 145.488 142.776 144.84L143.064 143.4C142.92 143.544 142.632 143.616 142.344 143.76C142.056 143.832 141.552 143.904 140.904 144.048C140.904 144.048 140.832 144.048 140.76 144.048V142.104L142.344 141.888C142.416 141.888 142.488 141.888 142.488 141.888C142.56 141.888 142.632 141.888 142.632 141.816C142.848 141.816 143.064 141.744 143.208 141.6C143.424 141.456 143.496 141.312 143.568 141.024C143.568 140.952 143.568 140.88 143.64 140.88C143.64 140.808 143.64 140.736 143.64 140.664C143.64 140.304 143.496 140.088 143.28 139.944C142.992 139.872 142.776 139.728 142.488 139.728C142.344 139.728 142.272 139.728 142.2 139.728C142.056 139.728 141.984 139.728 141.912 139.728C141.408 139.728 141.048 139.8 140.76 139.944V137.568C141.192 137.424 141.552 137.424 141.984 137.352C142.056 137.352 142.2 137.352 142.344 137.352C142.488 137.352 142.632 137.352 142.776 137.352C142.992 137.352 143.208 137.352 143.424 137.352C143.712 137.424 143.928 137.424 144.216 137.496C144.792 137.568 145.368 137.856 145.872 138.216C146.376 138.576 146.664 139.152 146.664 139.872C146.664 140.016 146.664 140.088 146.592 140.232C146.592 140.376 146.592 140.448 146.592 140.592L145.296 146.712C145.224 146.928 145.224 147.072 145.152 147.288C145.152 147.432 145.152 147.576 145.152 147.648C145.152 147.936 145.152 148.152 145.296 148.224C145.368 148.368 145.44 148.44 145.512 148.44L145.44 148.872H142.272C142.272 148.8 142.2 148.728 142.2 148.584C142.2 148.512 142.2 148.44 142.2 148.368V148.296C142.2 148.152 142.2 148.08 142.2 147.936C142.2 147.864 142.272 147.72 142.272 147.576C142.2 147.648 142.056 147.72 141.984 147.792C141.912 147.864 141.84 147.936 141.696 148.008C141.48 148.224 141.12 148.44 140.76 148.584ZM155.016 144.768H158.04C157.968 144.984 157.824 145.344 157.68 145.704C157.464 146.064 157.248 146.424 156.96 146.784C156.528 147.36 155.88 147.936 155.016 148.44C154.224 148.944 153.216 149.16 151.92 149.16C150.264 149.16 149.184 148.8 148.608 147.936C148.032 147.144 147.744 146.208 147.744 145.2C147.744 144.912 147.744 144.624 147.816 144.408C147.816 144.12 147.888 143.832 147.888 143.616C148.32 141.744 149.04 140.304 150.12 139.08C151.272 137.928 152.712 137.352 154.656 137.352C154.872 137.352 155.088 137.352 155.304 137.352C155.52 137.424 155.736 137.424 155.952 137.496C156.672 137.64 157.32 138 157.896 138.504C158.472 139.008 158.76 139.8 158.76 140.952C158.76 141.024 158.76 141.168 158.76 141.312C158.76 141.384 158.76 141.528 158.688 141.672H155.736C155.736 141.6 155.736 141.6 155.736 141.6C155.736 141.6 155.736 141.6 155.736 141.528C155.736 141.456 155.736 141.384 155.736 141.312C155.664 141.24 155.664 141.096 155.664 141.024C155.592 140.736 155.448 140.448 155.304 140.232C155.088 139.944 154.728 139.8 154.224 139.872C154.152 139.872 154.152 139.872 154.152 139.872C153.36 139.872 152.784 140.088 152.352 140.592C151.848 141.096 151.56 141.6 151.344 142.248C151.272 142.392 151.2 142.536 151.2 142.68C151.128 142.824 151.128 142.968 151.056 143.112V143.184C151.056 143.256 151.056 143.256 151.056 143.328C150.984 143.472 150.984 143.688 150.912 143.904C150.912 144.048 150.84 144.264 150.84 144.48C150.84 144.552 150.84 144.624 150.84 144.696C150.84 144.696 150.84 144.768 150.84 144.84C150.84 145.344 150.984 145.776 151.2 146.208C151.416 146.568 151.92 146.784 152.568 146.784C153.072 146.784 153.432 146.64 153.792 146.424C154.08 146.208 154.368 145.92 154.584 145.704C154.728 145.488 154.8 145.344 154.872 145.2C154.944 145.056 155.016 144.912 155.016 144.768ZM164.664 137.64L162.288 148.872H159.336L161.712 137.64H164.664ZM164.952 136.272H162L162.576 133.536H165.528L164.952 136.272ZM140.76 137.568V139.944C140.688 139.944 140.616 140.016 140.616 140.088C140.256 140.304 140.112 140.52 139.968 140.808C139.896 140.88 139.896 140.952 139.824 141.024C139.824 141.168 139.824 141.24 139.752 141.312L136.872 141.24C137.376 139.728 138.096 138.72 139.032 138.216C139.608 137.928 140.184 137.712 140.76 137.568ZM140.76 142.104V144.048C140.256 144.192 139.824 144.336 139.392 144.48C138.96 144.696 138.672 145.128 138.528 145.704C138.528 145.776 138.528 145.848 138.528 145.848C138.528 145.92 138.528 145.92 138.528 145.992V146.064C138.528 146.064 138.528 146.064 138.528 146.136C138.528 146.424 138.6 146.64 138.744 146.784C138.96 146.928 139.104 147 139.32 147.072C139.392 147.072 139.464 147.072 139.464 147.072C139.536 147.072 139.608 147.072 139.608 147.072C139.752 147.072 139.824 147.072 139.896 147.072C140.04 147.072 140.112 147.072 140.256 147C140.4 147 140.616 146.928 140.76 146.856V148.584C140.616 148.656 140.472 148.728 140.328 148.8C139.752 149.088 139.104 149.16 138.312 149.16C137.52 149.16 136.872 149.016 136.296 148.584C136.08 148.44 135.936 148.296 135.792 148.08V145.128C136.08 144.408 136.44 143.832 137.016 143.4C137.736 142.824 138.6 142.464 139.608 142.32L140.76 142.104ZM135.792 135.192V133.68H136.08L135.792 135.192ZM135.792 133.68V135.192L132.84 148.872H129.672L125.784 138.072H125.712L123.408 148.872H120.456L123.696 133.68H127.08L130.824 144.264H130.896L133.128 133.68H135.792ZM135.792 145.128C135.72 145.344 135.576 145.632 135.576 145.92C135.504 146.064 135.504 146.208 135.504 146.352C135.504 146.496 135.432 146.64 135.432 146.712C135.432 147.288 135.576 147.72 135.792 148.08V145.128ZM107.856 149.088V146.64C108.432 146.496 108.864 146.28 109.224 145.92C109.656 145.416 110.016 144.84 110.304 144.264C110.376 144.12 110.376 143.904 110.448 143.76C110.52 143.616 110.52 143.4 110.592 143.256C110.592 143.112 110.592 143.04 110.664 142.896C110.664 142.752 110.664 142.608 110.664 142.464C110.664 142.392 110.736 142.32 110.736 142.248C110.736 142.176 110.736 142.104 110.736 142.032C110.736 141.456 110.52 140.952 110.232 140.52C109.944 140.088 109.44 139.872 108.576 139.872C108.288 139.872 108.072 139.872 107.856 139.872V137.424C108.144 137.424 108.432 137.352 108.72 137.352C108.792 137.352 108.864 137.352 108.936 137.352C109.008 137.352 109.008 137.352 109.08 137.352C110.376 137.352 111.528 137.712 112.392 138.432C113.328 139.08 113.76 140.232 113.76 141.672C113.76 141.888 113.76 142.176 113.76 142.464C113.76 142.68 113.688 142.968 113.616 143.256C113.184 145.2 112.392 146.64 111.096 147.648C110.088 148.368 109.008 148.872 107.856 149.088ZM107.856 137.424V139.872C107.28 140.016 106.848 140.232 106.488 140.592C105.984 141.096 105.624 141.672 105.408 142.248C105.336 142.464 105.336 142.608 105.264 142.752C105.192 142.968 105.192 143.112 105.12 143.256C105.12 143.472 105.048 143.688 105.048 143.904C105.048 144.12 104.976 144.336 104.976 144.552C104.976 145.056 105.12 145.56 105.48 146.064C105.768 146.496 106.272 146.712 107.136 146.712C107.352 146.712 107.64 146.712 107.856 146.64V149.088C107.568 149.088 107.28 149.16 106.992 149.16C106.92 149.16 106.848 149.16 106.776 149.16C106.704 149.16 106.632 149.16 106.56 149.16C105.264 149.16 104.184 148.8 103.248 148.152C102.384 147.432 101.88 146.352 101.88 144.912C101.88 144.624 101.952 144.408 101.952 144.12C102.024 143.832 102.024 143.544 102.096 143.256C102.528 141.312 103.32 139.872 104.616 138.936C105.624 138.144 106.704 137.64 107.856 137.424ZM88.776 148.872V147.936L91.872 133.68H94.824L93.672 139.08C93.96 138.648 94.464 138.216 95.112 137.856C95.76 137.496 96.552 137.352 97.344 137.352C98.28 137.352 99.072 137.568 99.648 138.072C100.224 138.504 100.584 139.224 100.584 140.16C100.584 140.304 100.512 140.448 100.512 140.592C100.512 140.808 100.44 140.952 100.44 141.096L98.784 148.872H95.832L97.272 142.032C97.344 141.96 97.344 141.816 97.344 141.744C97.416 141.6 97.416 141.456 97.416 141.312C97.416 141.312 97.416 141.312 97.416 141.24V141.168C97.416 140.808 97.272 140.52 97.056 140.232C96.912 139.944 96.48 139.872 95.832 139.872C95.184 139.872 94.608 140.088 94.032 140.52C93.528 140.952 93.168 141.6 92.952 142.464L91.584 148.872H88.776ZM88.776 134.616L88.992 133.68H88.776V134.616ZM88.776 133.68V134.616L85.752 148.872H82.8L86.04 133.68H88.776ZM88.776 147.936L88.632 148.872H88.776V147.936ZM76.824 149.088V146.712C77.112 146.64 77.328 146.568 77.544 146.424C77.832 146.208 78.12 145.92 78.264 145.632V145.56H81.288C80.856 146.496 80.28 147.216 79.632 147.792C78.984 148.296 78.264 148.656 77.544 148.872C77.328 148.944 77.112 149.016 76.824 149.088ZM76.824 144.048V142.104H79.128C79.128 142.032 79.128 141.96 79.128 141.888C79.128 141.816 79.128 141.744 79.128 141.672C79.128 141.024 78.984 140.52 78.624 140.232C78.336 139.944 77.904 139.8 77.544 139.8C77.472 139.8 77.472 139.8 77.472 139.8C77.4 139.8 77.4 139.8 77.328 139.8C77.184 139.8 77.04 139.8 76.824 139.8V137.424C77.184 137.352 77.544 137.352 77.904 137.352C78.048 137.352 78.192 137.352 78.408 137.352C78.552 137.352 78.696 137.352 78.84 137.424C79.632 137.496 80.424 137.856 81.072 138.504C81.792 139.08 82.152 140.088 82.152 141.456C82.152 141.816 82.08 142.104 82.08 142.464C82.008 142.752 82.008 143.184 81.864 143.544L81.792 144.048H76.824ZM76.824 137.424V139.8C76.392 139.872 75.96 140.088 75.6 140.376C75.168 140.808 74.808 141.384 74.52 142.104H76.824V144.048H74.016C74.016 144.192 74.016 144.264 74.016 144.408C74.016 144.552 74.016 144.696 74.016 144.84C74.016 144.912 74.016 144.984 74.016 145.056C74.016 145.128 74.016 145.128 74.016 145.2C74.088 145.632 74.232 145.992 74.52 146.352C74.808 146.64 75.312 146.856 76.104 146.856C76.176 146.856 76.248 146.856 76.32 146.784C76.392 146.784 76.464 146.784 76.536 146.784C76.608 146.784 76.752 146.712 76.824 146.712V149.088C76.752 149.088 76.68 149.088 76.536 149.088C76.248 149.16 75.888 149.16 75.6 149.16C74.304 149.16 73.152 148.872 72.36 148.296C71.496 147.648 71.064 146.64 71.064 145.128C71.064 144.768 71.064 144.48 71.136 144.12C71.136 143.832 71.208 143.4 71.28 143.04C71.352 142.752 71.496 142.392 71.64 141.888C71.784 141.384 72 140.88 72.36 140.376C72.792 139.656 73.512 138.936 74.376 138.288C75.024 137.784 75.888 137.496 76.824 137.424ZM39.6 149.088V146.64C40.104 146.496 40.608 146.28 40.896 145.92C41.4 145.416 41.76 144.84 41.976 144.264C42.048 144.12 42.12 143.904 42.192 143.76C42.264 143.616 42.264 143.4 42.336 143.256C42.336 143.112 42.336 143.04 42.408 142.896C42.408 142.752 42.408 142.608 42.408 142.464C42.408 142.392 42.408 142.32 42.408 142.248C42.408 142.176 42.408 142.104 42.408 142.032C42.408 141.456 42.264 140.952 41.976 140.52C41.688 140.088 41.112 139.872 40.32 139.872C40.032 139.872 39.816 139.872 39.6 139.872V137.424C39.888 137.424 40.176 137.352 40.464 137.352C40.536 137.352 40.608 137.352 40.608 137.352C40.68 137.352 40.752 137.352 40.824 137.352C42.12 137.352 43.272 137.712 44.136 138.432C45.072 139.08 45.504 140.232 45.504 141.672C45.504 141.888 45.504 142.176 45.504 142.464C45.504 142.68 45.432 142.968 45.36 143.256C44.928 145.2 44.136 146.64 42.84 147.648C41.832 148.368 40.752 148.872 39.6 149.088ZM58.032 141.096L56.376 148.872H53.424L54.936 142.032C54.936 141.96 54.936 141.816 55.008 141.744C55.008 141.6 55.008 141.456 55.008 141.312C55.008 141.312 55.008 141.312 55.008 141.24V141.168C55.008 140.808 54.936 140.52 54.72 140.232C54.504 139.944 54.072 139.872 53.424 139.872C52.776 139.872 52.2 140.088 51.624 140.52C51.12 140.952 50.76 141.6 50.544 142.464L49.176 148.872H46.224L48.6 137.64H51.48L51.12 139.296H51.192C51.264 139.152 51.336 139.08 51.48 138.936C51.552 138.792 51.696 138.648 51.84 138.504C52.2 138.216 52.56 137.928 53.064 137.712C53.568 137.496 54.216 137.352 54.936 137.352C55.944 137.352 56.664 137.568 57.312 138.072C57.888 138.504 58.176 139.224 58.176 140.16C58.176 140.304 58.176 140.448 58.104 140.592C58.104 140.808 58.104 140.952 58.032 141.096ZM70.128 141.024H67.248C67.248 141.024 67.248 141.024 67.248 140.952C67.248 140.592 67.104 140.304 66.96 140.016C66.744 139.728 66.312 139.584 65.52 139.584C64.872 139.584 64.368 139.656 64.08 139.872C63.792 140.016 63.648 140.232 63.576 140.448C63.504 140.448 63.504 140.52 63.504 140.592C63.504 140.592 63.504 140.664 63.432 140.664C63.432 140.736 63.432 140.736 63.432 140.736V140.808C63.432 141.096 63.648 141.312 64.008 141.456C64.368 141.6 64.8 141.744 65.304 141.816C65.52 141.888 65.736 141.888 65.952 141.96C66.168 141.96 66.312 142.032 66.528 142.104C67.32 142.248 68.04 142.536 68.688 142.896C69.336 143.256 69.624 143.832 69.624 144.696C69.624 144.768 69.624 144.84 69.624 144.984C69.624 145.128 69.552 145.2 69.552 145.344C69.336 146.352 68.904 147.144 68.256 147.72C67.608 148.224 66.888 148.584 66.168 148.872C65.736 148.944 65.304 149.088 64.872 149.088C64.512 149.16 64.08 149.16 63.792 149.16C63.792 149.16 63.792 149.16 63.72 149.16C62.568 149.16 61.488 148.944 60.552 148.512C59.616 148.08 59.112 147.288 59.112 146.064C59.112 145.992 59.112 145.848 59.112 145.704C59.184 145.56 59.184 145.416 59.184 145.272H62.208C62.208 145.344 62.208 145.416 62.208 145.488C62.208 145.56 62.208 145.632 62.208 145.704C62.208 146.064 62.352 146.352 62.64 146.64C63 146.856 63.576 146.928 64.368 146.928C64.872 146.928 65.304 146.856 65.592 146.712C65.952 146.568 66.168 146.424 66.24 146.208C66.312 146.136 66.384 146.064 66.384 145.992C66.456 145.92 66.456 145.848 66.456 145.776C66.456 145.704 66.528 145.704 66.528 145.704V145.632C66.528 145.344 66.312 145.128 65.952 144.984C65.592 144.84 65.088 144.696 64.584 144.624C64.368 144.552 64.224 144.552 64.008 144.48C63.864 144.48 63.648 144.408 63.432 144.336C62.712 144.192 61.992 143.904 61.344 143.544C60.696 143.184 60.408 142.608 60.408 141.744C60.408 141.672 60.408 141.528 60.408 141.456C60.48 141.312 60.48 141.24 60.48 141.096C60.48 140.952 60.552 140.808 60.624 140.664C60.696 140.52 60.696 140.304 60.768 140.16C61.128 139.44 61.704 138.792 62.496 138.216C63.288 137.64 64.368 137.352 65.808 137.352C65.952 137.352 66.024 137.352 66.168 137.352C66.24 137.352 66.384 137.352 66.456 137.352C67.392 137.424 68.256 137.64 68.976 138C69.768 138.432 70.128 139.224 70.128 140.376C70.128 140.448 70.128 140.592 70.128 140.664C70.128 140.808 70.128 140.952 70.128 141.096V141.024ZM33.264 138.648H30.096C30.096 138.504 30.096 138.36 30.024 138.216C30.024 138 30.024 137.856 29.952 137.64C29.808 137.208 29.592 136.848 29.16 136.56C28.8 136.2 28.152 136.056 27.288 136.056C27 136.056 26.712 136.056 26.352 136.2C25.992 136.272 25.632 136.416 25.272 136.632C24.696 136.92 24.192 137.496 23.616 138.216C23.112 139.008 22.68 140.016 22.392 141.384C22.32 141.672 22.248 141.96 22.248 142.32C22.176 142.608 22.176 142.896 22.176 143.184C22.176 144.12 22.392 144.912 22.824 145.56C23.328 146.208 24.048 146.568 25.056 146.568C25.92 146.568 26.712 146.28 27.432 145.848C28.08 145.344 28.656 144.624 29.016 143.688H32.184C31.536 145.344 30.528 146.712 29.232 147.72C27.936 148.8 26.28 149.304 24.408 149.304C22.752 149.304 21.384 148.8 20.376 147.864C19.368 147 18.864 145.56 18.864 143.76C18.864 143.4 18.864 142.968 18.936 142.608C19.008 142.176 19.08 141.744 19.152 141.312C19.728 138.648 20.808 136.632 22.464 135.336C24.12 133.968 25.92 133.32 27.864 133.32C29.592 133.32 30.888 133.68 31.752 134.472C32.544 135.264 33.048 136.128 33.264 137.064C33.264 137.208 33.264 137.352 33.336 137.568C33.336 137.712 33.336 137.856 33.336 138C33.336 138.144 33.336 138.216 33.336 138.36C33.336 138.432 33.264 138.576 33.264 138.648ZM39.6 137.424V139.872C39.024 140.016 38.592 140.232 38.232 140.592C37.728 141.096 37.368 141.672 37.152 142.248C37.08 142.464 37.08 142.608 37.008 142.752C36.936 142.968 36.936 143.112 36.864 143.256C36.864 143.472 36.792 143.688 36.792 143.904C36.72 144.12 36.72 144.336 36.72 144.552C36.72 145.056 36.864 145.56 37.152 146.064C37.44 146.496 38.016 146.712 38.88 146.712C39.096 146.712 39.384 146.712 39.6 146.64V149.088C39.312 149.088 39.024 149.16 38.736 149.16C38.664 149.16 38.592 149.16 38.52 149.16C38.448 149.16 38.376 149.16 38.304 149.16C37.008 149.16 35.928 148.8 34.992 148.152C34.128 147.432 33.624 146.352 33.624 144.912C33.624 144.624 33.624 144.408 33.696 144.12C33.696 143.832 33.768 143.544 33.84 143.256C34.272 141.312 35.064 139.872 36.36 138.936C37.368 138.144 38.448 137.64 39.6 137.424Z" fill="black"/>
<path d="M412.344 149.088V146.64C412.92 146.496 413.352 146.28 413.712 145.92C414.216 145.416 414.576 144.84 414.792 144.264C414.864 144.12 414.936 143.904 414.936 143.76C415.008 143.616 415.08 143.4 415.08 143.256C415.08 143.112 415.152 143.04 415.152 142.896C415.152 142.752 415.152 142.608 415.152 142.464C415.224 142.392 415.224 142.32 415.224 142.248C415.224 142.176 415.224 142.104 415.224 142.032C415.224 141.456 415.08 140.952 414.792 140.52C414.504 140.088 413.928 139.872 413.064 139.872C412.848 139.872 412.56 139.872 412.344 139.872V137.424C412.632 137.424 412.92 137.352 413.208 137.352C413.28 137.352 413.352 137.352 413.424 137.352C413.496 137.352 413.568 137.352 413.64 137.352C414.936 137.352 416.016 137.712 416.952 138.432C417.816 139.08 418.32 140.232 418.32 141.672C418.32 141.888 418.248 142.176 418.248 142.464C418.248 142.68 418.176 142.968 418.104 143.256C417.744 145.2 416.88 146.64 415.584 147.648C414.576 148.368 413.496 148.872 412.344 149.088ZM412.344 137.424V139.872C411.768 140.016 411.336 140.232 410.976 140.592C410.544 141.096 410.184 141.672 409.896 142.248C409.896 142.464 409.824 142.608 409.752 142.752C409.752 142.968 409.68 143.112 409.68 143.256C409.608 143.472 409.608 143.688 409.536 143.904C409.536 144.12 409.536 144.336 409.536 144.552C409.536 145.056 409.68 145.56 409.968 146.064C410.256 146.496 410.832 146.712 411.624 146.712C411.912 146.712 412.128 146.712 412.344 146.64V149.088C412.056 149.088 411.768 149.16 411.48 149.16C411.408 149.16 411.336 149.16 411.264 149.16C411.264 149.16 411.192 149.16 411.12 149.16C409.824 149.16 408.672 148.8 407.808 148.152C407.088 147.576 406.656 146.856 406.512 145.848V143.976C406.512 143.688 406.584 143.472 406.584 143.256C407.016 141.312 407.88 139.872 409.104 138.936C410.112 138.144 411.192 137.64 412.344 137.424ZM406.512 138L406.584 137.64H406.512V138ZM406.512 137.64V138L406.08 139.728H404.28L402.984 145.848C402.912 145.92 402.912 146.064 402.912 146.136C402.912 146.208 402.912 146.28 402.912 146.352C402.912 146.496 402.984 146.64 403.128 146.712C403.272 146.784 403.56 146.784 403.992 146.784C404.064 146.784 404.208 146.784 404.28 146.784C404.424 146.784 404.496 146.784 404.64 146.712L404.136 148.944C403.92 149.016 403.704 149.016 403.488 149.016C403.2 149.016 402.984 149.016 402.768 149.016H402.336C401.328 149.016 400.608 148.872 400.248 148.584C399.888 148.296 399.744 147.936 399.744 147.432C399.744 147.288 399.744 147.144 399.744 147C399.816 146.856 399.816 146.712 399.816 146.568L401.328 139.728H399.744L400.248 137.64H401.76L402.408 134.544H405.36L404.712 137.64H406.512ZM406.512 143.976C406.512 143.976 406.44 144.048 406.44 144.12C406.44 144.408 406.44 144.624 406.44 144.912C406.44 145.2 406.44 145.56 406.512 145.848V143.976ZM380.16 149.088V146.712C380.448 146.64 380.664 146.568 380.88 146.424C381.168 146.208 381.456 145.92 381.6 145.632V145.56H384.624C384.192 146.496 383.616 147.216 382.968 147.792C382.32 148.296 381.6 148.656 380.88 148.872C380.664 148.944 380.448 149.016 380.16 149.088ZM380.16 144.048V142.104H382.464C382.464 142.032 382.464 141.96 382.464 141.888C382.464 141.816 382.464 141.744 382.464 141.672C382.464 141.024 382.32 140.52 381.96 140.232C381.672 139.944 381.24 139.8 380.88 139.8C380.808 139.8 380.808 139.8 380.808 139.8C380.736 139.8 380.736 139.8 380.664 139.8C380.52 139.8 380.376 139.8 380.16 139.8V137.424C380.52 137.352 380.88 137.352 381.24 137.352C381.384 137.352 381.528 137.352 381.744 137.352C381.888 137.352 382.032 137.352 382.176 137.424C382.968 137.496 383.76 137.856 384.408 138.504C385.128 139.08 385.488 140.088 385.488 141.456C385.488 141.816 385.416 142.104 385.416 142.464C385.344 142.752 385.344 143.184 385.2 143.544L385.128 144.048H380.16ZM397.872 141.096L396.216 148.872H393.264L394.704 142.032C394.776 141.96 394.776 141.816 394.848 141.744C394.848 141.6 394.848 141.456 394.848 141.312C394.848 141.312 394.848 141.312 394.848 141.24V141.168C394.848 140.808 394.776 140.52 394.56 140.232C394.344 139.944 393.912 139.872 393.264 139.872C392.616 139.872 392.04 140.088 391.464 140.52C390.96 140.952 390.6 141.6 390.384 142.464L389.016 148.872H386.064L388.44 137.64H391.32L390.96 139.296C391.104 139.152 391.176 139.08 391.32 138.936C391.392 138.792 391.536 138.648 391.68 138.504C392.04 138.216 392.4 137.928 392.904 137.712C393.408 137.496 394.056 137.352 394.776 137.352C395.712 137.352 396.504 137.568 397.08 138.072C397.728 138.504 398.016 139.224 398.016 140.16C398.016 140.304 398.016 140.448 397.944 140.592C397.944 140.808 397.944 140.952 397.872 141.096ZM380.16 137.424V139.8C379.728 139.872 379.296 140.088 378.936 140.376C378.504 140.808 378.144 141.384 377.856 142.104H380.16V144.048H377.352C377.352 144.192 377.352 144.264 377.352 144.408C377.352 144.552 377.352 144.696 377.352 144.84C377.352 144.912 377.352 144.984 377.352 145.056C377.352 145.128 377.352 145.128 377.352 145.2C377.424 145.632 377.568 145.992 377.856 146.352C378.144 146.64 378.648 146.856 379.44 146.856C379.512 146.856 379.584 146.856 379.656 146.784C379.728 146.784 379.8 146.784 379.872 146.784C379.944 146.784 380.088 146.712 380.16 146.712V149.088C380.088 149.088 380.016 149.088 379.872 149.088C379.584 149.16 379.224 149.16 378.936 149.16C377.64 149.16 376.488 148.872 375.696 148.296C374.832 147.648 374.4 146.64 374.4 145.128C374.4 144.768 374.4 144.48 374.472 144.12C374.472 143.832 374.544 143.4 374.616 143.04C374.688 142.752 374.832 142.392 374.976 141.888C375.12 141.384 375.336 140.88 375.696 140.376C376.128 139.656 376.848 138.936 377.712 138.288C378.36 137.784 379.224 137.496 380.16 137.424ZM349.992 148.872V147.36L352.008 137.64H355.032L352.584 148.872H349.992ZM349.992 138.216L350.28 137.64H349.992V138.216ZM355.248 136.272H352.296L352.872 133.536H355.896L355.248 136.272ZM373.248 141.096L371.592 148.872H368.568L370.08 142.032C370.08 141.888 370.08 141.744 370.152 141.6C370.152 141.456 370.152 141.312 370.152 141.24C370.152 140.736 370.008 140.376 369.792 140.16C369.576 139.944 369.288 139.872 368.928 139.872C368.208 139.872 367.632 140.088 367.2 140.52C366.84 140.952 366.552 141.456 366.408 142.176L364.968 148.872H362.016L363.456 142.104C363.456 142.032 363.528 141.888 363.528 141.744C363.528 141.672 363.6 141.528 363.6 141.384C363.6 141.384 363.6 141.312 363.6 141.24C363.6 141.168 363.6 141.096 363.6 141.024C363.6 140.736 363.528 140.448 363.312 140.232C363.096 139.944 362.736 139.872 362.16 139.872C361.44 139.872 360.936 140.016 360.576 140.448C360.216 140.88 360 141.456 359.856 142.032L358.416 148.872H355.392L357.84 137.64H360.648L360.288 139.296H360.36C360.432 139.152 360.504 139.08 360.648 138.936C360.72 138.864 360.792 138.72 360.936 138.576C361.224 138.288 361.656 138 362.16 137.712C362.664 137.496 363.24 137.352 363.96 137.352C364.752 137.352 365.4 137.496 365.76 137.784C366.12 138.072 366.48 138.504 366.696 139.152C366.768 139.008 366.912 138.936 367.056 138.792C367.2 138.648 367.344 138.504 367.488 138.36C367.776 138.144 368.136 137.856 368.568 137.64C369 137.424 369.504 137.352 370.08 137.352C371.088 137.352 371.808 137.568 372.456 138.072C373.032 138.504 373.32 139.224 373.32 140.16C373.32 140.304 373.32 140.448 373.32 140.592C373.248 140.808 373.248 140.952 373.248 141.096ZM349.992 137.64V138.216L343.872 148.872H340.704L339.048 137.64H342.36L342.936 145.92H343.008L347.112 137.64H349.992ZM349.992 147.36L349.632 148.872H349.992V147.36ZM325.224 149.088V146.64C325.8 146.496 326.232 146.28 326.592 145.92C327.096 145.416 327.456 144.84 327.672 144.264C327.744 144.12 327.816 143.904 327.888 143.76C327.888 143.616 327.96 143.4 327.96 143.256C328.032 143.112 328.032 143.04 328.032 142.896C328.104 142.752 328.104 142.608 328.104 142.464C328.104 142.392 328.104 142.32 328.104 142.248C328.104 142.176 328.104 142.104 328.104 142.032C328.104 141.456 327.96 140.952 327.672 140.52C327.384 140.088 326.808 139.872 326.016 139.872C325.728 139.872 325.512 139.872 325.224 139.872V137.424C325.512 137.424 325.8 137.352 326.088 137.352C326.16 137.352 326.232 137.352 326.304 137.352C326.376 137.352 326.448 137.352 326.52 137.352C327.816 137.352 328.896 137.712 329.832 138.432C330.768 139.08 331.2 140.232 331.2 141.672C331.2 141.888 331.2 142.176 331.128 142.464C331.128 142.68 331.128 142.968 331.056 143.256C330.624 145.2 329.76 146.64 328.464 147.648C327.456 148.368 326.376 148.872 325.224 149.088ZM334.944 148.872H331.992L335.232 133.68H338.184L334.944 148.872ZM325.224 137.424V139.872C324.72 140.016 324.288 140.232 323.928 140.592C323.424 141.096 323.064 141.672 322.848 142.248C322.776 142.464 322.704 142.608 322.632 142.752C322.632 142.968 322.56 143.112 322.56 143.256C322.488 143.472 322.488 143.688 322.416 143.904C322.416 144.12 322.416 144.336 322.416 144.552C322.416 145.056 322.56 145.56 322.848 146.064C323.136 146.496 323.712 146.712 324.504 146.712C324.792 146.712 325.008 146.712 325.224 146.64V149.088C324.936 149.088 324.648 149.16 324.36 149.16C324.288 149.16 324.288 149.16 324.216 149.16C324.144 149.16 324.072 149.16 324 149.16C322.704 149.16 321.552 148.8 320.688 148.152C320.328 147.864 320.04 147.504 319.824 147.144V142.104C320.256 140.736 321.048 139.656 322.056 138.936C323.064 138.144 324.144 137.64 325.224 137.424ZM319.824 138.504L320.328 137.64H319.824V138.504ZM319.824 137.64V138.504L313.848 148.872H310.752L309.096 137.64H312.408L312.984 145.92L317.16 137.64H319.824ZM319.824 142.104C319.68 142.464 319.608 142.824 319.536 143.256C319.464 143.544 319.392 143.832 319.392 144.12C319.32 144.408 319.32 144.624 319.32 144.912C319.32 145.776 319.464 146.496 319.824 147.144V142.104ZM289.872 149.088V146.712C290.088 146.64 290.304 146.568 290.52 146.424C290.88 146.208 291.096 145.92 291.24 145.632V145.56H294.336C293.832 146.496 293.256 147.216 292.608 147.792C291.96 148.296 291.24 148.656 290.52 148.872C290.304 148.944 290.088 149.016 289.872 149.088ZM289.872 144.048V142.104H292.104C292.176 142.032 292.176 141.96 292.176 141.888C292.176 141.816 292.176 141.744 292.176 141.672C292.176 141.024 291.96 140.52 291.672 140.232C291.312 139.944 290.952 139.8 290.52 139.8H290.448C290.376 139.8 290.376 139.8 290.376 139.8C290.16 139.8 290.016 139.8 289.872 139.8V137.424C290.16 137.352 290.52 137.352 290.88 137.352C291.096 137.352 291.24 137.352 291.384 137.352C291.528 137.352 291.672 137.352 291.816 137.424C292.68 137.496 293.4 137.856 294.12 138.504C294.768 139.08 295.128 140.088 295.128 141.456C295.128 141.816 295.128 142.104 295.056 142.464C295.056 142.752 294.984 143.184 294.912 143.544L294.768 144.048H289.872ZM307.584 141.096L305.928 148.872H302.904L304.416 142.032C304.416 141.96 304.416 141.816 304.488 141.744C304.488 141.6 304.488 141.456 304.488 141.312C304.488 141.312 304.488 141.312 304.488 141.24V141.168C304.488 140.808 304.416 140.52 304.2 140.232C303.984 139.944 303.552 139.872 302.904 139.872C302.256 139.872 301.68 140.088 301.176 140.52C300.6 140.952 300.24 141.6 300.024 142.464L298.656 148.872H295.704L298.08 137.64H300.96L300.6 139.296H300.672C300.744 139.152 300.816 139.08 300.96 138.936C301.032 138.792 301.176 138.648 301.32 138.504C301.68 138.216 302.112 137.928 302.616 137.712C303.12 137.496 303.696 137.352 304.416 137.352C305.424 137.352 306.144 137.568 306.792 138.072C307.368 138.504 307.656 139.224 307.656 140.16C307.656 140.304 307.656 140.448 307.656 140.592C307.584 140.808 307.584 140.952 307.584 141.096ZM289.872 137.424V139.8C289.368 139.872 288.936 140.088 288.576 140.376C288.144 140.808 287.784 141.384 287.568 142.104H289.872V144.048H287.064C286.992 144.192 286.992 144.264 286.992 144.408C286.992 144.552 286.992 144.696 286.992 144.84C286.992 144.912 286.992 144.984 286.992 145.056C286.992 145.128 286.992 145.128 286.992 145.2C287.064 145.632 287.208 145.992 287.496 146.352C287.784 146.64 288.36 146.856 289.08 146.856C289.152 146.856 289.224 146.856 289.296 146.784C289.368 146.784 289.44 146.784 289.512 146.784C289.656 146.784 289.728 146.712 289.872 146.712V149.088C289.728 149.088 289.656 149.088 289.584 149.088C289.224 149.16 288.936 149.16 288.576 149.16C287.28 149.16 286.2 148.872 285.336 148.296C284.472 147.648 284.04 146.64 284.04 145.128C284.04 144.768 284.04 144.48 284.112 144.12C284.184 143.832 284.184 143.4 284.328 143.04C284.328 142.752 284.472 142.392 284.616 141.888C284.76 141.384 285.048 140.88 285.336 140.376C285.84 139.656 286.488 138.936 287.352 138.288C288.072 137.784 288.864 137.496 289.872 137.424ZM266.328 149.088V146.712C266.544 146.64 266.76 146.568 266.976 146.424C267.264 146.208 267.552 145.92 267.696 145.632V145.56H270.792C270.288 146.496 269.712 147.216 269.064 147.792C268.416 148.296 267.696 148.656 266.976 148.872C266.76 148.944 266.544 149.016 266.328 149.088ZM266.328 144.048V142.104H268.56C268.56 142.032 268.632 141.96 268.632 141.888C268.632 141.816 268.632 141.744 268.632 141.672C268.632 141.024 268.416 140.52 268.128 140.232C267.768 139.944 267.408 139.8 266.976 139.8H266.904C266.832 139.8 266.832 139.8 266.832 139.8C266.616 139.8 266.472 139.8 266.328 139.8V137.424C266.616 137.352 266.976 137.352 267.336 137.352C267.48 137.352 267.696 137.352 267.84 137.352C267.984 137.352 268.128 137.352 268.272 137.424C269.136 137.496 269.856 137.856 270.504 138.504C271.224 139.08 271.584 140.088 271.584 141.456C271.584 141.816 271.584 142.104 271.512 142.464C271.512 142.752 271.44 143.184 271.368 143.544L271.224 144.048H266.328ZM283.104 141.024H280.224C280.224 141.024 280.224 141.024 280.224 140.952C280.224 140.592 280.152 140.304 279.936 140.016C279.72 139.728 279.288 139.584 278.568 139.584C277.848 139.584 277.416 139.656 277.128 139.872C276.84 140.016 276.624 140.232 276.552 140.448C276.552 140.448 276.48 140.52 276.48 140.592V140.664C276.48 140.736 276.48 140.736 276.48 140.736L276.408 140.808C276.48 141.096 276.624 141.312 276.984 141.456C277.344 141.6 277.848 141.744 278.352 141.816C278.496 141.888 278.712 141.888 278.928 141.96C279.144 141.96 279.36 142.032 279.504 142.104C280.296 142.248 281.016 142.536 281.664 142.896C282.312 143.256 282.6 143.832 282.6 144.696C282.6 144.768 282.6 144.84 282.6 144.984C282.6 145.128 282.6 145.2 282.528 145.344C282.312 146.352 281.88 147.144 281.232 147.72C280.584 148.224 279.936 148.584 279.144 148.872C278.712 148.944 278.28 149.088 277.92 149.088C277.488 149.16 277.128 149.16 276.768 149.16H276.696C275.544 149.16 274.464 148.944 273.528 148.512C272.592 148.08 272.088 147.288 272.088 146.064C272.088 145.992 272.088 145.848 272.16 145.704C272.16 145.56 272.16 145.416 272.16 145.272H275.256C275.184 145.344 275.184 145.416 275.184 145.488C275.184 145.56 275.184 145.632 275.184 145.704C275.184 146.064 275.328 146.352 275.688 146.64C275.976 146.856 276.552 146.928 277.344 146.928C277.92 146.928 278.28 146.856 278.64 146.712C278.928 146.568 279.144 146.424 279.288 146.208C279.288 146.136 279.36 146.064 279.36 145.992C279.432 145.92 279.432 145.848 279.432 145.776H279.504C279.504 145.704 279.504 145.704 279.504 145.704V145.632C279.504 145.344 279.288 145.128 278.928 144.984C278.568 144.84 278.064 144.696 277.56 144.624C277.344 144.552 277.2 144.552 276.984 144.48C276.84 144.48 276.624 144.408 276.408 144.336C275.688 144.192 274.968 143.904 274.32 143.544C273.672 143.184 273.384 142.608 273.384 141.744C273.384 141.672 273.384 141.528 273.384 141.456C273.456 141.312 273.456 141.24 273.456 141.096C273.528 140.952 273.528 140.808 273.6 140.664C273.672 140.52 273.744 140.304 273.816 140.16C274.104 139.44 274.68 138.792 275.472 138.216C276.264 137.64 277.416 137.352 278.856 137.352C278.928 137.352 279 137.352 279.144 137.352C279.216 137.352 279.36 137.352 279.432 137.352C280.368 137.424 281.232 137.64 282.024 138C282.744 138.432 283.176 139.224 283.176 140.376C283.176 140.448 283.176 140.592 283.176 140.664C283.176 140.808 283.104 140.952 283.104 141.096V141.024ZM266.328 137.424V139.8C265.824 139.872 265.392 140.088 265.032 140.376C264.6 140.808 264.24 141.384 263.952 142.104H266.328V144.048H263.448C263.448 144.192 263.448 144.264 263.448 144.408C263.448 144.552 263.448 144.696 263.448 144.84C263.448 144.912 263.448 144.984 263.448 145.056C263.448 145.128 263.448 145.128 263.448 145.2C263.52 145.632 263.664 145.992 263.952 146.352C264.24 146.64 264.744 146.856 265.536 146.856C265.608 146.856 265.68 146.856 265.752 146.784C265.824 146.784 265.896 146.784 265.968 146.784C266.112 146.784 266.184 146.712 266.328 146.712V149.088C266.184 149.088 266.112 149.088 266.04 149.088C265.68 149.16 265.32 149.16 265.032 149.16C263.736 149.16 262.656 148.872 261.792 148.296C260.928 147.648 260.496 146.64 260.496 145.128C260.496 144.768 260.496 144.48 260.568 144.12C260.568 143.832 260.64 143.4 260.712 143.04C260.784 142.752 260.928 142.392 261.072 141.888C261.216 141.384 261.504 140.88 261.792 140.376C262.296 139.656 262.944 138.936 263.808 138.288C264.456 137.784 265.32 137.496 266.328 137.424ZM252.936 148.8V146.208C253.8 145.992 254.448 145.56 255.024 144.768C255.744 143.76 256.248 142.68 256.536 141.456C256.608 141.384 256.608 141.384 256.608 141.312C256.608 141.24 256.608 141.24 256.608 141.168C256.752 140.736 256.752 140.376 256.824 140.016C256.824 139.728 256.896 139.44 256.896 139.152C256.896 138.144 256.68 137.424 256.248 137.064C255.888 136.704 255.456 136.416 254.952 136.344C254.808 136.344 254.664 136.344 254.52 136.344C254.448 136.272 254.304 136.272 254.16 136.272H252.936V133.68H255.312C257.184 133.68 258.48 134.184 259.128 135.264C259.848 136.272 260.136 137.352 260.136 138.577C260.136 138.649 260.136 138.649 260.136 138.649C260.136 139.081 260.136 139.441 260.064 139.873C260.064 140.233 259.992 140.593 259.92 140.953C259.848 141.313 259.704 141.745 259.632 142.105C259.488 142.537 259.344 142.969 259.128 143.401C258.552 144.769 257.688 145.993 256.536 147.145C255.6 148.08 254.376 148.656 252.936 148.8ZM234.72 145.56H237.816C237.312 146.496 236.736 147.216 236.088 147.792C235.44 148.296 234.72 148.656 234 148.872C233.784 148.944 233.568 149.016 233.352 149.088V146.712C233.568 146.64 233.784 146.568 234 146.424C234.36 146.208 234.576 145.92 234.72 145.632V145.56ZM233.352 137.424C233.64 137.352 234 137.352 234.36 137.352C234.576 137.352 234.72 137.352 234.864 137.352C235.008 137.352 235.152 137.352 235.296 137.424C236.16 137.496 236.88 137.856 237.6 138.504C238.248 139.08 238.608 140.088 238.608 141.456C238.608 141.816 238.608 142.104 238.536 142.464C238.536 142.752 238.464 143.184 238.392 143.544L238.248 144.048H233.352V142.104H235.656C235.656 142.032 235.656 141.96 235.656 141.888C235.656 141.816 235.656 141.744 235.656 141.672C235.656 141.024 235.44 140.52 235.152 140.232C234.792 139.944 234.432 139.8 234 139.8H233.928H233.856C233.64 139.8 233.496 139.8 233.352 139.8V137.424ZM252.936 133.68V136.272H251.136L248.976 146.28H252.072C252.36 146.28 252.648 146.208 252.936 146.208V148.8C252.576 148.872 252.288 148.872 251.928 148.872H245.304L248.544 133.68H252.936ZM233.352 149.088C233.208 149.088 233.136 149.088 233.064 149.088C232.704 149.16 232.416 149.16 232.056 149.16C230.76 149.16 229.68 148.872 228.816 148.296C227.952 147.648 227.52 146.64 227.52 145.128C227.52 144.768 227.52 144.48 227.592 144.12C227.664 143.832 227.664 143.4 227.808 143.04C227.808 142.752 227.952 142.392 228.096 141.888C228.24 141.384 228.528 140.88 228.816 140.376C229.32 139.656 229.968 138.936 230.832 138.288C231.552 137.784 232.344 137.496 233.352 137.424V139.8C232.848 139.872 232.416 140.088 232.128 140.376C231.624 140.808 231.264 141.384 231.048 142.104H233.352V144.048H230.544C230.472 144.192 230.472 144.264 230.472 144.408C230.472 144.552 230.472 144.696 230.472 144.84C230.472 144.912 230.472 144.984 230.472 145.056C230.472 145.128 230.472 145.128 230.472 145.2C230.544 145.632 230.688 145.992 230.976 146.352C231.264 146.64 231.84 146.856 232.56 146.856C232.632 146.856 232.704 146.856 232.776 146.784C232.848 146.784 232.92 146.784 232.992 146.784C233.136 146.784 233.208 146.712 233.352 146.712V149.088ZM84.672 174.072V170.76L86.328 162.84H89.352L86.904 174.072H84.672ZM84.672 161.112V158.736C84.744 158.736 84.816 158.736 84.888 158.736C85.104 158.736 85.248 158.736 85.392 158.736L84.888 161.112H84.672ZM89.568 161.472H86.616L87.264 158.736H90.216L89.568 161.472ZM84.672 158.736V161.112H84.024C83.592 161.112 83.304 161.256 83.16 161.4C83.016 161.544 82.872 161.76 82.8 162.12C82.8 162.192 82.8 162.192 82.8 162.264C82.8 162.336 82.8 162.336 82.728 162.408L82.656 162.84H84.6L84.168 164.928H82.224L80.28 174.072H78.624V167.952L79.272 164.928H78.624V162.84H79.704L79.848 161.904C80.136 160.752 80.64 159.96 81.288 159.456C82.008 158.952 82.872 158.736 83.88 158.736C84.24 158.736 84.456 158.736 84.672 158.736ZM84.672 170.76L83.952 174.072H84.672V170.76ZM78.624 159.24L79.92 158.232H78.624V159.24ZM78.624 158.232V159.24L76.104 161.328H74.016L76.608 158.232H78.624ZM78.624 162.84V164.928H77.616L78.048 162.84H78.624ZM78.624 167.952V174.072H77.328L78.624 167.952ZM71.208 174.072V173.064L73.44 162.84H76.392L74.016 174.072H71.208ZM71.208 163.848L71.424 162.84H71.208V163.848ZM71.208 162.84V163.848L70.992 164.928H69.192L67.824 171.048C67.824 171.192 67.824 171.264 67.824 171.336C67.824 171.408 67.752 171.48 67.752 171.552C67.752 171.696 67.824 171.84 68.04 171.912C68.184 171.984 68.472 171.984 68.904 171.984C68.976 171.984 69.12 171.984 69.192 171.984C69.336 171.984 69.408 171.984 69.552 171.984L69.048 174.144C68.832 174.216 68.544 174.216 68.328 174.216C68.112 174.216 67.896 174.216 67.608 174.216H67.248C66.24 174.216 65.52 174.072 65.16 173.784C64.8 173.496 64.656 173.136 64.656 172.632C64.656 172.488 64.656 172.344 64.656 172.2C64.656 172.056 64.728 171.912 64.728 171.768L66.168 164.928H64.656L65.088 162.84H66.672L67.32 159.744H70.272L69.624 162.84H71.208ZM71.208 173.064L70.992 174.072H71.208V173.064ZM45.072 174.288V171.912C45.288 171.84 45.576 171.768 45.792 171.624C46.08 171.408 46.296 171.12 46.512 170.832V170.76H49.536C49.104 171.696 48.528 172.416 47.88 172.992C47.16 173.496 46.512 173.856 45.792 174.072C45.576 174.144 45.288 174.216 45.072 174.288ZM45.072 169.248V167.304H47.376C47.376 167.232 47.376 167.16 47.376 167.088C47.376 167.016 47.376 166.944 47.376 166.872C47.376 166.224 47.232 165.72 46.872 165.432C46.512 165.144 46.152 165 45.792 165C45.72 165 45.72 165 45.648 165C45.648 165 45.648 165 45.576 165C45.432 165 45.216 165 45.072 165V162.624C45.432 162.552 45.792 162.552 46.152 162.552C46.296 162.552 46.44 162.552 46.584 162.552C46.728 162.552 46.944 162.552 47.088 162.624C47.88 162.768 48.672 163.128 49.32 163.704C50.04 164.28 50.328 165.288 50.328 166.728C50.328 167.016 50.328 167.304 50.328 167.664C50.256 168.024 50.184 168.384 50.112 168.744L49.968 169.248H45.072ZM62.784 166.296L61.128 174.072H58.176L59.616 167.232C59.688 167.16 59.688 167.088 59.688 166.944C59.76 166.8 59.76 166.656 59.76 166.584C59.76 166.512 59.76 166.512 59.76 166.44V166.368C59.76 166.008 59.616 165.72 59.4 165.432C59.256 165.144 58.824 165.072 58.176 165.072C57.528 165.072 56.952 165.288 56.376 165.72C55.8 166.152 55.44 166.8 55.296 167.664L53.928 174.072H50.976L53.352 162.84H56.16L55.872 164.496C55.944 164.352 56.088 164.28 56.16 164.136C56.304 163.992 56.448 163.848 56.592 163.704C56.88 163.416 57.312 163.128 57.816 162.912C58.32 162.696 58.968 162.552 59.688 162.552C60.624 162.552 61.416 162.768 61.992 163.272C62.568 163.704 62.928 164.424 62.928 165.36C62.928 165.504 62.856 165.648 62.856 165.792C62.856 166.008 62.784 166.152 62.784 166.296ZM45.072 162.624V165C44.64 165.072 44.208 165.288 43.848 165.576C43.344 166.008 42.984 166.584 42.768 167.304H45.072V169.248H42.264C42.264 169.392 42.264 169.464 42.264 169.608C42.192 169.752 42.192 169.896 42.192 170.04C42.192 170.112 42.192 170.184 42.264 170.256C42.264 170.328 42.264 170.4 42.264 170.4C42.264 170.832 42.48 171.192 42.768 171.552C43.056 171.84 43.56 172.056 44.352 172.056C44.424 172.056 44.496 172.056 44.568 172.056C44.64 171.984 44.712 171.984 44.784 171.984C44.856 171.984 45 171.984 45.072 171.912V174.288C45 174.288 44.856 174.288 44.784 174.288C44.496 174.36 44.136 174.36 43.848 174.36C42.48 174.36 41.4 174.072 40.536 173.496C39.672 172.92 39.24 171.84 39.24 170.328C39.24 170.04 39.312 169.68 39.312 169.32C39.384 169.032 39.456 168.672 39.528 168.24C39.6 167.952 39.672 167.592 39.888 167.088C40.032 166.584 40.248 166.152 40.608 165.576C41.04 164.856 41.76 164.136 42.624 163.488C43.272 163.056 44.064 162.696 45.072 162.624ZM33.264 163.848H30.096C30.096 163.704 30.096 163.56 30.024 163.416C30.024 163.2 30.024 163.056 29.952 162.84C29.808 162.48 29.592 162.048 29.16 161.76C28.8 161.4 28.152 161.256 27.288 161.256C27 161.256 26.712 161.328 26.352 161.4C25.992 161.472 25.632 161.616 25.272 161.832C24.696 162.12 24.192 162.696 23.616 163.416C23.112 164.208 22.68 165.216 22.392 166.584C22.32 166.872 22.248 167.16 22.248 167.52C22.176 167.808 22.176 168.096 22.176 168.384C22.176 169.392 22.392 170.184 22.824 170.832C23.328 171.408 24.048 171.768 25.056 171.768C25.92 171.768 26.712 171.552 27.432 171.048C28.08 170.544 28.656 169.824 29.016 168.888H32.184C31.536 170.544 30.528 171.912 29.232 172.92C27.936 174 26.28 174.504 24.408 174.504C22.752 174.504 21.384 174 20.376 173.136C19.368 172.2 18.864 170.832 18.864 168.96C18.864 168.6 18.864 168.24 18.936 167.808C19.008 167.376 19.08 166.944 19.152 166.512C19.728 163.848 20.808 161.904 22.464 160.536C24.12 159.168 25.92 158.52 27.864 158.52C29.592 158.52 30.888 158.88 31.752 159.672C32.544 160.464 33.048 161.328 33.264 162.264C33.264 162.408 33.264 162.552 33.336 162.768C33.336 162.912 33.336 163.056 33.336 163.2C33.336 163.344 33.336 163.416 33.336 163.56C33.336 163.632 33.264 163.776 33.264 163.848ZM38.736 162.84L36.36 174.072H33.336L35.784 162.84H38.736ZM39.024 161.472H36L36.648 158.736H39.6L39.024 161.472Z" fill="black"/>
<path d="M254.808 174.288V171.84C255.384 171.768 255.816 171.48 256.176 171.12C256.68 170.616 257.04 170.112 257.256 169.464C257.328 169.32 257.4 169.104 257.4 168.96C257.472 168.816 257.544 168.6 257.544 168.456C257.544 168.312 257.616 168.24 257.616 168.096C257.616 167.952 257.616 167.808 257.616 167.664C257.688 167.592 257.688 167.52 257.688 167.448C257.688 167.376 257.688 167.304 257.688 167.304C257.688 166.656 257.544 166.152 257.256 165.72C256.968 165.288 256.392 165.072 255.528 165.072C255.312 165.072 255.024 165.072 254.808 165.144V162.696C255.096 162.624 255.384 162.552 255.672 162.552C255.744 162.552 255.816 162.552 255.888 162.552C255.96 162.552 256.032 162.552 256.104 162.552C257.4 162.552 258.48 162.912 259.416 163.632C260.28 164.28 260.784 165.432 260.784 166.872C260.784 167.16 260.784 167.376 260.712 167.664C260.712 167.952 260.64 168.168 260.568 168.456C260.208 170.4 259.344 171.912 258.048 172.848C257.04 173.568 255.96 174.072 254.808 174.288ZM254.808 162.696V165.144C254.304 165.216 253.8 165.432 253.512 165.792C253.008 166.296 252.648 166.872 252.432 167.448C252.36 167.664 252.288 167.808 252.216 168.024C252.216 168.168 252.144 168.312 252.144 168.456C252.072 168.672 252.072 168.888 252 169.104C252 169.32 252 169.536 252 169.752C252 170.256 252.144 170.832 252.432 171.264C252.72 171.696 253.296 171.912 254.088 171.912C254.376 171.912 254.592 171.912 254.808 171.84V174.288C254.52 174.288 254.232 174.36 253.944 174.36C253.872 174.36 253.8 174.36 253.728 174.36C253.728 174.36 253.656 174.36 253.584 174.36C252.288 174.36 251.136 174.072 250.272 173.352C249.336 172.632 248.904 171.552 248.904 170.112C248.904 169.824 248.904 169.608 248.904 169.32C248.976 169.032 249.048 168.744 249.048 168.456C249.48 166.512 250.344 165.072 251.568 164.136C252.576 163.344 253.656 162.84 254.808 162.696ZM224.064 178.464V176.016C224.136 175.944 224.28 175.944 224.352 175.872C224.784 175.44 225.144 174.792 225.36 173.856L225.648 172.488H225.576C225.288 172.92 224.856 173.28 224.352 173.64C224.208 173.712 224.136 173.784 224.064 173.784V171.624C224.64 171.48 225.072 171.192 225.432 170.76C225.864 170.184 226.224 169.536 226.44 168.816C226.44 168.744 226.44 168.672 226.44 168.6C226.512 168.528 226.512 168.456 226.512 168.384C226.584 168.24 226.584 168.024 226.584 167.88C226.584 167.664 226.584 167.52 226.584 167.376C226.584 166.728 226.44 166.152 226.152 165.72C225.792 165.288 225.36 165.144 224.64 165.144C224.496 165.144 224.352 165.144 224.208 165.144C224.136 165.144 224.136 165.144 224.064 165.216V162.552C224.136 162.552 224.208 162.552 224.28 162.552C224.352 162.552 224.424 162.552 224.496 162.552C225.288 162.552 225.864 162.696 226.224 162.912C226.656 163.2 226.944 163.488 227.16 163.776C227.232 163.92 227.232 164.064 227.304 164.208C227.304 164.28 227.376 164.424 227.376 164.496H227.448L227.808 162.84H230.616L228.384 173.496C228.312 173.784 228.24 174.072 228.168 174.432C228.096 174.72 227.952 175.008 227.808 175.368C227.448 176.232 226.8 176.952 225.936 177.672C225.432 178.032 224.784 178.248 224.064 178.464ZM236.304 162.84L233.928 174.072H230.904L233.352 162.84H236.304ZM236.592 161.472H233.64L234.216 158.736H237.168L236.592 161.472ZM244.296 169.968H247.32C247.248 170.256 247.104 170.544 246.96 170.904C246.816 171.264 246.528 171.624 246.24 171.984C245.808 172.632 245.16 173.136 244.368 173.64C243.504 174.144 242.496 174.36 241.2 174.36C239.544 174.36 238.464 174 237.888 173.136C237.312 172.344 237.024 171.408 237.024 170.4C237.024 170.112 237.024 169.896 237.096 169.608C237.096 169.32 237.168 169.032 237.24 168.816C237.6 166.944 238.32 165.504 239.472 164.28C240.552 163.128 242.064 162.552 243.936 162.552C244.152 162.552 244.368 162.552 244.584 162.552C244.8 162.624 245.088 162.624 245.304 162.696C245.952 162.84 246.6 163.2 247.176 163.704C247.752 164.208 248.04 165.072 248.04 166.152C248.04 166.224 248.04 166.368 248.04 166.512C248.04 166.584 248.04 166.728 248.04 166.872H245.016C245.016 166.8 245.016 166.8 245.016 166.8C245.016 166.8 245.016 166.8 245.016 166.728C245.016 166.656 245.016 166.584 245.016 166.512C245.016 166.44 244.944 166.368 244.944 166.224C244.872 165.936 244.8 165.648 244.584 165.432C244.368 165.144 244.008 165 243.576 165.072C243.504 165.072 243.504 165.072 243.504 165.072H243.432C242.64 165.072 242.064 165.288 241.632 165.792C241.128 166.296 240.84 166.8 240.624 167.448C240.552 167.592 240.48 167.736 240.48 167.88C240.408 168.024 240.408 168.168 240.336 168.312V168.384C240.336 168.456 240.336 168.456 240.336 168.528C240.264 168.672 240.264 168.888 240.192 169.104C240.192 169.32 240.192 169.464 240.12 169.68C240.12 169.752 240.12 169.824 240.12 169.896C240.12 169.896 240.12 169.968 240.12 170.04C240.12 170.544 240.264 170.976 240.48 171.408C240.696 171.768 241.2 171.984 241.848 171.984C242.352 171.984 242.712 171.84 243.072 171.624C243.432 171.408 243.648 171.192 243.864 170.904C244.008 170.688 244.08 170.544 244.152 170.4C244.224 170.256 244.296 170.112 244.296 169.968ZM224.064 162.552V165.216C223.992 165.216 223.848 165.216 223.776 165.288C223.344 165.432 222.912 165.792 222.552 166.296C222.12 166.8 221.832 167.592 221.616 168.528C221.616 168.6 221.616 168.744 221.544 168.816C221.544 168.888 221.544 168.96 221.544 169.104C221.544 169.176 221.544 169.248 221.472 169.32C221.472 169.392 221.472 169.536 221.472 169.608C221.472 170.184 221.616 170.616 221.904 171.048C222.192 171.48 222.624 171.696 223.272 171.696C223.56 171.696 223.848 171.624 224.064 171.624V173.784C223.56 174 222.984 174.144 222.192 174.144C221.112 174.144 220.176 173.856 219.456 173.208C218.736 172.56 218.376 171.552 218.376 170.184C218.376 169.896 218.448 169.608 218.448 169.32C218.52 169.032 218.52 168.672 218.592 168.384C219.024 166.512 219.672 165.144 220.752 164.208C221.76 163.2 222.84 162.696 224.064 162.552ZM224.064 176.016V178.464C223.344 178.608 222.552 178.68 221.544 178.68C220.536 178.68 219.528 178.464 218.664 178.032C217.8 177.528 217.368 176.808 217.368 175.8C217.368 175.728 217.368 175.656 217.368 175.584C217.368 175.44 217.368 175.368 217.368 175.296H220.608C220.608 175.584 220.68 175.872 220.896 176.088C221.04 176.304 221.544 176.448 222.408 176.448C223.056 176.448 223.632 176.304 224.064 176.016ZM211.248 174.288V171.84C211.824 171.768 212.256 171.48 212.616 171.12C213.12 170.616 213.48 170.112 213.696 169.464C213.768 169.32 213.84 169.104 213.912 168.96C213.912 168.816 213.984 168.6 213.984 168.456C214.056 168.312 214.056 168.24 214.056 168.096C214.056 167.952 214.128 167.808 214.128 167.664C214.128 167.592 214.128 167.52 214.128 167.448C214.128 167.376 214.128 167.304 214.128 167.304C214.128 166.656 213.984 166.152 213.696 165.72C213.408 165.288 212.832 165.072 211.968 165.072C211.752 165.072 211.464 165.072 211.248 165.144V162.696C211.536 162.624 211.824 162.552 212.112 162.552C212.184 162.552 212.256 162.552 212.328 162.552C212.4 162.552 212.472 162.552 212.544 162.552C213.84 162.552 214.92 162.912 215.856 163.632C216.792 164.28 217.224 165.432 217.224 166.872C217.224 167.16 217.224 167.376 217.152 167.664C217.152 167.952 217.08 168.168 217.08 168.456C216.648 170.4 215.784 171.912 214.488 172.848C213.48 173.568 212.4 174.072 211.248 174.288ZM213.696 161.328H211.536L214.2 158.232H217.44L213.696 161.328ZM211.248 162.696V165.144C210.744 165.216 210.312 165.432 209.952 165.792C209.448 166.296 209.16 166.872 208.944 167.448C208.872 167.664 208.8 167.808 208.728 168.024C208.728 168.168 208.656 168.312 208.656 168.456C208.584 168.672 208.584 168.888 208.512 169.104C208.512 169.32 208.512 169.536 208.512 169.752C208.512 170.256 208.656 170.832 208.944 171.264C209.16 171.696 209.736 171.912 210.528 171.912C210.816 171.912 211.032 171.912 211.248 171.84V174.288C210.96 174.288 210.672 174.36 210.384 174.36C210.312 174.36 210.312 174.36 210.24 174.36C210.168 174.36 210.096 174.36 210.024 174.36C208.8 174.36 207.648 174.072 206.784 173.352C205.992 172.704 205.488 171.84 205.416 170.616V169.608C205.416 169.536 205.416 169.392 205.488 169.32C205.488 169.032 205.56 168.744 205.56 168.456C205.992 166.512 206.856 165.072 208.08 164.136C209.16 163.344 210.168 162.84 211.248 162.696ZM205.416 158.952V158.88V158.952ZM205.416 158.88V158.952L202.176 174.072H199.224L202.464 158.88H205.416ZM205.416 169.608C205.416 169.752 205.416 169.968 205.416 170.112C205.416 170.256 205.416 170.472 205.416 170.616V169.608ZM192.528 174.288V171.84C193.032 171.768 193.536 171.48 193.824 171.12C194.328 170.616 194.688 170.112 194.904 169.464C194.976 169.32 195.048 169.104 195.12 168.96C195.192 168.816 195.192 168.6 195.264 168.456C195.264 168.312 195.264 168.24 195.336 168.096C195.336 167.952 195.336 167.808 195.336 167.664C195.336 167.592 195.336 167.52 195.336 167.448C195.336 167.376 195.336 167.304 195.336 167.304C195.336 166.656 195.192 166.152 194.904 165.72C194.616 165.288 194.112 165.072 193.248 165.072C192.96 165.072 192.744 165.072 192.528 165.144V162.696C192.816 162.624 193.104 162.552 193.392 162.552C193.464 162.552 193.536 162.552 193.608 162.552C193.608 162.552 193.68 162.552 193.752 162.552C195.048 162.552 196.2 162.912 197.064 163.632C198 164.28 198.432 165.432 198.432 166.872C198.432 167.16 198.432 167.376 198.432 167.664C198.432 167.952 198.36 168.168 198.288 168.456C197.856 170.4 197.064 171.912 195.768 172.848C194.76 173.568 193.68 174.072 192.528 174.288ZM192.528 162.696V165.144C191.952 165.216 191.52 165.432 191.16 165.792C190.656 166.296 190.296 166.872 190.08 167.448C190.008 167.664 190.008 167.808 189.936 168.024C189.864 168.168 189.864 168.312 189.792 168.456C189.792 168.672 189.72 168.888 189.72 169.104C189.648 169.32 189.648 169.536 189.648 169.752C189.648 170.256 189.792 170.832 190.08 171.264C190.44 171.696 190.944 171.912 191.808 171.912C192.024 171.912 192.312 171.912 192.528 171.84V174.288C192.24 174.288 191.952 174.36 191.664 174.36C191.592 174.36 191.52 174.36 191.448 174.36C191.376 174.36 191.304 174.36 191.232 174.36C189.936 174.36 188.856 174.072 187.92 173.352C187.056 172.632 186.552 171.552 186.552 170.112C186.552 169.824 186.624 169.608 186.624 169.32C186.696 169.032 186.696 168.744 186.768 168.456C187.2 166.512 187.992 165.072 189.288 164.136C190.296 163.344 191.376 162.84 192.528 162.696ZM155.592 174.288V171.912C155.88 171.84 156.096 171.768 156.312 171.624C156.6 171.408 156.888 171.12 157.032 170.832V170.76H160.128C159.624 171.696 159.048 172.416 158.4 172.992C157.752 173.496 157.032 173.856 156.312 174.072C156.096 174.144 155.88 174.216 155.592 174.288ZM155.592 169.248V167.304H157.896C157.896 167.232 157.968 167.16 157.968 167.088C157.968 167.016 157.968 166.944 157.968 166.872C157.968 166.224 157.752 165.72 157.392 165.432C157.104 165.144 156.744 165 156.312 165C156.24 165 156.24 165 156.24 165C156.168 165 156.168 165 156.168 165C155.952 165 155.808 165 155.592 165V162.624C155.952 162.552 156.312 162.552 156.672 162.552C156.816 162.552 157.032 162.552 157.176 162.552C157.32 162.552 157.464 162.552 157.608 162.624C158.4 162.768 159.192 163.128 159.84 163.704C160.56 164.28 160.92 165.288 160.92 166.728C160.92 167.016 160.848 167.304 160.848 167.664C160.776 168.024 160.776 168.384 160.632 168.744L160.56 169.248H155.592ZM169.056 169.968H172.08C172.008 170.256 171.864 170.544 171.72 170.904C171.504 171.264 171.288 171.624 171 171.984C170.568 172.632 169.92 173.136 169.056 173.64C168.264 174.144 167.256 174.36 165.96 174.36C164.304 174.36 163.224 174 162.648 173.136C162.072 172.344 161.784 171.408 161.784 170.4C161.784 170.112 161.784 169.896 161.856 169.608C161.856 169.32 161.928 169.032 161.928 168.816C162.36 166.944 163.08 165.504 164.16 164.28C165.312 163.128 166.824 162.552 168.696 162.552C168.912 162.552 169.128 162.552 169.344 162.552C169.56 162.624 169.776 162.624 170.064 162.696C170.712 162.84 171.36 163.2 171.936 163.704C172.512 164.208 172.8 165.072 172.8 166.152C172.8 166.224 172.8 166.368 172.8 166.512C172.8 166.584 172.8 166.728 172.728 166.872H169.776C169.776 166.8 169.776 166.8 169.776 166.8C169.776 166.8 169.776 166.8 169.776 166.728C169.776 166.656 169.776 166.584 169.776 166.512C169.704 166.44 169.704 166.368 169.704 166.224C169.632 165.936 169.56 165.648 169.344 165.432C169.128 165.144 168.768 165 168.264 165.072C168.192 165.072 168.192 165.072 168.192 165.072C167.4 165.072 166.824 165.288 166.392 165.792C165.888 166.296 165.6 166.8 165.384 167.448C165.312 167.592 165.24 167.736 165.24 167.88C165.168 168.024 165.168 168.168 165.096 168.312V168.384C165.096 168.456 165.096 168.456 165.096 168.528C165.024 168.672 165.024 168.888 164.952 169.104C164.952 169.32 164.952 169.464 164.88 169.68C164.88 169.752 164.88 169.824 164.88 169.896C164.88 169.896 164.88 169.968 164.88 170.04C164.88 170.544 165.024 170.976 165.24 171.408C165.456 171.768 165.96 171.984 166.608 171.984C167.112 171.984 167.472 171.84 167.832 171.624C168.12 171.408 168.408 171.192 168.624 170.904C168.768 170.688 168.84 170.544 168.912 170.4C168.984 170.256 169.056 170.112 169.056 169.968ZM185.112 166.296L183.456 174.072H180.504L181.944 167.232C182.016 167.16 182.016 167.088 182.016 166.944C182.016 166.8 182.088 166.656 182.088 166.584C182.088 166.512 182.088 166.512 182.088 166.44V166.368C182.088 166.008 181.944 165.72 181.728 165.432C181.584 165.144 181.152 165.072 180.504 165.072C179.856 165.072 179.28 165.288 178.704 165.72C178.128 166.152 177.768 166.8 177.624 167.664L176.256 174.072H173.304L175.68 162.84H178.488L178.128 164.496H178.2C178.272 164.352 178.416 164.28 178.488 164.136C178.632 163.992 178.776 163.848 178.92 163.704C179.208 163.416 179.64 163.128 180.144 162.912C180.648 162.696 181.296 162.552 182.016 162.552C182.952 162.552 183.744 162.768 184.32 163.272C184.896 163.704 185.184 164.424 185.184 165.36C185.184 165.504 185.184 165.648 185.184 165.792C185.184 166.008 185.112 166.152 185.112 166.296ZM155.592 162.624V165C155.16 165.072 154.728 165.288 154.368 165.576C153.936 166.008 153.576 166.584 153.288 167.304H155.592V169.248H152.784C152.784 169.392 152.784 169.464 152.784 169.608C152.784 169.752 152.784 169.896 152.784 170.04C152.784 170.112 152.784 170.184 152.784 170.256C152.784 170.328 152.784 170.4 152.784 170.4C152.856 170.832 153 171.192 153.288 171.552C153.576 171.84 154.08 172.056 154.872 172.056C154.944 172.056 155.016 172.056 155.088 172.056C155.16 171.984 155.232 171.984 155.304 171.984C155.448 171.984 155.52 171.984 155.592 171.912V174.288C155.52 174.288 155.448 174.288 155.304 174.288C155.016 174.36 154.656 174.36 154.368 174.36C153.072 174.36 152.064 174.072 151.2 173.568V165.504C151.632 164.784 152.28 164.136 153.144 163.488C153.792 163.056 154.656 162.696 155.592 162.624ZM151.2 161.544V158.88H152.568L151.992 161.544H151.2ZM151.2 158.88V161.544H147.384L144.72 174.072H141.552L144.216 161.544H139.608L140.184 158.88H151.2ZM151.2 165.504L151.128 165.576C150.84 166.152 150.552 166.584 150.408 167.088C150.264 167.592 150.12 167.952 150.048 168.24C149.976 168.672 149.904 169.032 149.904 169.32C149.832 169.68 149.832 170.04 149.832 170.328C149.832 171.84 150.264 172.92 151.128 173.496C151.128 173.496 151.2 173.496 151.2 173.568V165.504ZM126.288 174.288V171.912C126.504 171.84 126.792 171.768 127.008 171.624C127.296 171.408 127.512 171.12 127.728 170.832V170.76H130.752C130.32 171.696 129.744 172.416 129.096 172.992C128.376 173.496 127.728 173.856 127.008 174.072C126.792 174.144 126.504 174.216 126.288 174.288ZM126.288 169.248V167.304H128.592C128.592 167.232 128.592 167.16 128.592 167.088C128.592 167.016 128.592 166.944 128.592 166.872C128.592 166.224 128.448 165.72 128.088 165.432C127.728 165.144 127.368 165 126.936 165C126.936 165 126.936 165 126.864 165H126.792C126.648 165 126.432 165 126.288 165V162.624C126.648 162.552 127.008 162.552 127.368 162.552C127.512 162.552 127.656 162.552 127.8 162.552C127.944 162.552 128.16 162.552 128.304 162.624C129.096 162.768 129.816 163.128 130.536 163.704C131.256 164.28 131.544 165.288 131.544 166.728C131.544 167.016 131.544 167.304 131.544 167.664C131.472 168.024 131.4 168.384 131.328 168.744L131.184 169.248H126.288ZM126.288 162.624V165C125.784 165.072 125.424 165.288 125.064 165.576C124.56 166.008 124.2 166.584 123.984 167.304H126.288V169.248H123.48C123.48 169.392 123.48 169.464 123.408 169.608C123.408 169.752 123.408 169.896 123.408 170.04C123.408 170.112 123.408 170.184 123.408 170.256C123.48 170.328 123.48 170.4 123.48 170.4C123.48 170.832 123.696 171.192 123.984 171.552C124.272 171.84 124.776 172.056 125.568 172.056C125.64 172.056 125.712 172.056 125.784 172.056C125.856 171.984 125.928 171.984 126 171.984C126.072 171.984 126.216 171.984 126.288 171.912V174.288C126.216 174.288 126.072 174.288 126 174.288C125.64 174.36 125.352 174.36 125.064 174.36C123.696 174.36 122.616 174.072 121.752 173.496C120.888 172.92 120.456 171.84 120.456 170.328C120.456 170.04 120.528 169.68 120.528 169.32C120.6 169.032 120.672 168.672 120.744 168.24C120.816 167.952 120.888 167.592 121.104 167.088C121.248 166.584 121.464 166.152 121.824 165.576C122.256 164.856 122.904 164.136 123.84 163.488C124.488 163.056 125.28 162.696 126.288 162.624ZM107.856 174.288V171.84C108.432 171.768 108.864 171.48 109.224 171.12C109.656 170.616 110.016 170.112 110.304 169.464C110.376 169.32 110.376 169.104 110.448 168.96C110.52 168.816 110.52 168.6 110.592 168.456C110.592 168.312 110.592 168.24 110.664 168.096C110.664 167.952 110.664 167.808 110.664 167.664C110.664 167.592 110.736 167.52 110.736 167.448C110.736 167.376 110.736 167.304 110.736 167.304C110.736 166.656 110.52 166.152 110.232 165.72C109.944 165.288 109.44 165.072 108.576 165.072C108.288 165.072 108.072 165.072 107.856 165.144V162.696C108.144 162.624 108.432 162.552 108.72 162.552C108.792 162.552 108.864 162.552 108.936 162.552C109.008 162.552 109.008 162.552 109.08 162.552C110.376 162.552 111.528 162.912 112.392 163.632C113.328 164.28 113.76 165.432 113.76 166.872C113.76 167.16 113.76 167.376 113.76 167.664C113.76 167.952 113.688 168.168 113.616 168.456C113.184 170.4 112.392 171.912 111.096 172.848C110.088 173.568 109.008 174.072 107.856 174.288ZM97.344 169.968H100.368C100.296 170.256 100.152 170.544 100.008 170.904C99.792 171.264 99.576 171.624 99.288 171.984C98.784 172.632 98.208 173.136 97.344 173.64C96.552 174.144 95.544 174.36 94.248 174.36C92.592 174.36 91.512 174 90.936 173.136C90.36 172.344 90.072 171.408 90.072 170.4C90.072 170.112 90.072 169.896 90.144 169.608C90.144 169.32 90.216 169.032 90.216 168.816C90.648 166.944 91.368 165.504 92.448 164.28C93.6 163.128 95.04 162.552 96.984 162.552C97.2 162.552 97.416 162.552 97.632 162.552C97.848 162.624 98.064 162.624 98.28 162.696C99 162.84 99.648 163.2 100.224 163.704C100.8 164.208 101.088 165.072 101.088 166.152C101.088 166.224 101.088 166.368 101.088 166.512C101.088 166.584 101.088 166.728 101.016 166.872H98.064C98.064 166.8 98.064 166.8 98.064 166.8C98.064 166.8 98.064 166.8 98.064 166.728C98.064 166.656 98.064 166.584 97.992 166.512C97.992 166.44 97.992 166.368 97.992 166.224C97.92 165.936 97.776 165.648 97.632 165.432C97.416 165.144 97.056 165 96.552 165.072C96.48 165.072 96.48 165.072 96.408 165.072C95.688 165.072 95.112 165.288 94.608 165.792C94.176 166.296 93.888 166.8 93.672 167.448C93.6 167.592 93.528 167.736 93.528 167.88C93.456 168.024 93.456 168.168 93.384 168.312V168.384C93.384 168.456 93.384 168.456 93.384 168.528C93.312 168.672 93.24 168.888 93.24 169.104C93.24 169.32 93.168 169.464 93.168 169.68C93.168 169.752 93.168 169.824 93.168 169.896C93.168 169.896 93.168 169.968 93.168 170.04C93.168 170.544 93.312 170.976 93.528 171.408C93.744 171.768 94.176 171.984 94.896 171.984C95.4 171.984 95.76 171.84 96.12 171.624C96.408 171.408 96.696 171.192 96.912 170.904C96.984 170.688 97.128 170.544 97.2 170.4C97.272 170.256 97.344 170.112 97.344 169.968ZM107.856 162.696V165.144C107.28 165.216 106.848 165.432 106.488 165.792C105.984 166.296 105.624 166.872 105.408 167.448C105.336 167.664 105.336 167.808 105.264 168.024C105.192 168.168 105.192 168.312 105.12 168.456C105.12 168.672 105.048 168.888 105.048 169.104C105.048 169.32 104.976 169.536 104.976 169.752C104.976 170.256 105.12 170.832 105.48 171.264C105.768 171.696 106.272 171.912 107.136 171.912C107.352 171.912 107.64 171.912 107.856 171.84V174.288C107.568 174.288 107.28 174.36 106.992 174.36C106.92 174.36 106.848 174.36 106.776 174.36C106.704 174.36 106.632 174.36 106.56 174.36C105.264 174.36 104.184 174.072 103.248 173.352C102.384 172.632 101.88 171.552 101.88 170.112C101.88 169.824 101.952 169.608 101.952 169.32C102.024 169.032 102.024 168.744 102.096 168.456C102.528 166.512 103.32 165.072 104.616 164.136C105.624 163.344 106.704 162.84 107.856 162.696Z" fill="black"/>
<path d="M385.776 117.192V115.104L390.6 91.56C389.304 93.072 388.152 94.368 387 95.304C386.568 95.736 386.208 96.024 385.776 96.384V88.104C387 87.672 388.152 87.024 389.232 86.088C391.176 84.36 392.904 80.688 394.344 75.072C394.704 74.136 394.92 73.128 395.064 71.904C395.208 70.752 395.28 69.528 395.28 68.304C395.28 66 394.848 63.912 393.84 62.04C392.904 60.168 391.032 59.232 388.296 59.232C387.36 59.232 386.568 59.304 385.776 59.592V47.784C388.152 47.856 390.24 48.576 392.112 49.872C394.056 51.24 395.64 52.68 396.936 54.336C397.224 54.624 397.44 54.912 397.584 55.2C397.8 55.488 398.016 55.776 398.16 56.136L399.744 50.016H417.888L403.488 117.192H385.776ZM385.776 47.784V59.592C384.408 60.024 383.184 60.888 382.176 62.112C380.664 64.056 379.44 66.216 378.576 68.592C378.144 69.744 377.784 70.896 377.568 72.048C377.28 73.128 377.136 74.136 376.992 75.072V74.928C376.848 75.432 376.704 75.936 376.632 76.44C376.56 77.016 376.488 77.448 376.416 77.88C376.344 78.456 376.272 78.888 376.272 79.392C376.2 79.896 376.2 80.4 376.2 80.904C376.2 82.992 376.632 84.792 377.496 86.376C378.36 87.888 379.944 88.68 382.248 88.68C383.472 88.68 384.696 88.464 385.776 88.104V96.384C385.056 96.888 384.408 97.392 383.688 97.752C382.248 98.544 380.736 99.12 379.152 99.408C377.64 99.768 375.912 99.912 373.968 99.912C368.208 99.912 364.176 98.544 361.944 95.88C359.784 93.288 358.416 90.336 357.912 87.096C357.696 85.944 357.552 84.792 357.48 83.64C357.408 82.416 357.408 81.336 357.408 80.328V80.184C357.48 78.888 357.624 77.448 357.768 76.008C357.984 74.496 358.2 73.056 358.56 71.472C359.928 65.712 362.592 60.384 366.624 55.56C370.656 50.664 376.848 48.072 385.344 47.784C385.488 47.784 385.632 47.784 385.776 47.784ZM385.776 115.104V117.192H385.344L385.776 115.104ZM324.864 74.28C333.648 74.28 341.28 72.048 347.688 67.584C354.168 63.048 357.408 55.776 357.408 45.552C357.408 39.432 355.32 35.256 351.144 33.024C346.968 30.792 342.432 29.496 337.464 29.136C336.6 29.064 335.808 29.064 334.944 28.992C334.08 28.992 333.288 28.92 332.424 28.848H324.864V43.248H327.168C330.408 43.248 332.784 43.896 334.152 45.12C335.52 46.416 336.168 47.856 336.168 49.584C336.168 50.016 336.168 50.376 336.096 50.736C336.024 51.168 335.952 51.528 335.808 51.888C335.232 54.048 333.864 56.064 331.704 57.936C329.76 59.592 327.456 60.456 324.864 60.528V74.28ZM324.864 28.848V43.248L317.376 43.176L313.56 60.528H324.216C324.432 60.528 324.648 60.528 324.864 60.528V74.28L310.536 74.208L305.28 98.328H287.064V91.2L300.024 28.848H324.864ZM287.064 35.76L288.576 28.848H287.064V35.76ZM205.848 37.92C206.568 39.648 206.856 41.664 206.856 43.968C206.856 44.76 206.856 45.624 206.712 46.56C206.64 47.424 206.496 48.36 206.208 49.296H205.848V37.92ZM287.064 28.848H270.432L259.128 78.672L247.032 28.848H219.096L205.848 93.288V98.328H222.84L233.424 45.48L246.24 98.328H273.528L287.064 35.76V28.848ZM287.064 91.2V98.328H285.624L287.064 91.2ZM134.424 73.416C134.424 70.896 134.64 68.088 135 64.992C135.36 61.896 136.08 58.8 137.016 55.632C139.248 48.576 143.424 42.024 149.544 36.048C155.664 30.072 164.952 26.904 177.552 26.688C178.992 26.688 180.576 26.688 182.232 26.832C183.888 26.904 185.616 27.048 187.344 27.336C192.168 28.056 196.632 29.64 200.736 32.016C203.112 33.456 204.84 35.4 205.848 37.92V49.296L185.112 49.224C185.184 48.864 185.184 48.576 185.256 48.216C185.256 47.856 185.328 47.568 185.328 47.28C185.328 44.976 184.608 43.32 183.312 42.24C182.016 41.16 180.576 40.368 179.064 40.008C178.2 39.792 177.408 39.72 176.616 39.648C175.824 39.576 175.104 39.504 174.528 39.504C173.952 39.504 173.376 39.576 172.8 39.648C172.224 39.792 171.648 39.864 171.072 40.008C168.192 40.872 165.456 43.104 162.72 46.56C160.056 50.088 157.968 55.272 156.384 62.184C156.312 62.76 156.168 63.336 156.096 63.912C155.952 64.488 155.88 65.064 155.808 65.64C155.664 66.864 155.52 68.016 155.376 69.168C155.304 70.32 155.232 71.472 155.232 72.552C155.232 76.224 155.952 79.32 157.392 81.84C158.832 84.432 161.568 85.656 165.528 85.656C165.816 85.656 166.176 85.656 166.608 85.656C166.968 85.656 167.328 85.656 167.76 85.584C168.336 85.584 169.056 85.512 169.704 85.368C170.352 85.224 171.072 84.936 171.864 84.648C173.736 83.784 175.464 82.56 177.048 80.832C178.632 79.176 179.568 77.232 179.856 75.072L200.16 74.928C200.232 75.144 200.304 75.288 200.304 75.432C200.376 75.648 200.376 75.792 200.376 76.008C200.376 77.16 199.944 78.744 199.08 80.76C198.288 82.848 196.92 85.008 195.12 87.24C192.384 90.408 188.568 93.36 183.528 95.952C178.488 98.616 172.008 99.912 164.088 99.912C163.8 99.912 163.584 99.912 163.296 99.912C163.08 99.912 162.792 99.912 162.432 99.912C151.704 99.912 144.504 97.68 140.832 93.288C137.232 88.824 135.144 83.928 134.64 78.6C134.568 77.736 134.496 76.872 134.496 76.08C134.424 75.216 134.424 74.352 134.424 73.488V73.416ZM205.848 93.288L204.768 98.328H205.848V93.288Z" fill="#0067A6"/>
</g>
<defs>
<clipPath id="clip0">
<rect width="418.32" height="178.68" fill="white"/>
</clipPath>
</defs>
</svg>
