<?xml version="1.0" encoding="utf-8"?>
<!-- Generator: Adobe Illustrator 24.0.0, SVG Export Plug-In . SVG Version: 6.00 Build 0)  -->
<svg version="1.1" id="Layer_1" xmlns="http://www.w3.org/2000/svg" xmlns:xlink="http://www.w3.org/1999/xlink" x="0px" y="0px"
	 viewBox="0 0 1000 1000" style="enable-background:new 0 0 1000 1000;" xml:space="preserve">
<g>
	<path d="M500,637.5c-87.5,0-158.3-70.8-158.3-158.3v-70.8c0-87.5,70.8-158.3,158.3-158.3s158.3,70.8,158.3,158.3v70.8
		C658.3,566.7,587.5,637.5,500,637.5z M500,320.8c-50,0-91.7,41.7-91.7,91.7v70.8c0,50,41.7,91.7,91.7,91.7s91.7-41.7,91.7-91.7v-75
		C591.7,358.3,550,320.8,500,320.8z"/>
</g>
<path d="M500,79.2c-229.2,0-416.7,187.5-416.7,416.7S270.8,912.5,500,912.5S916.7,725,916.7,495.8S729.2,79.2,500,79.2z M500,845.8
	c-108.3,0-208.3-50-270.8-129.2c0-12.5,8.3-37.5,41.7-45.8l70.8-20.8L325,587.5l-70.8,20.8c-33.3,8.3-54.2,25-66.7,45.8
	c-25-45.8-37.5-100-37.5-154.2c0-191.7,158.3-350,350-350s350,158.3,350,350c0,54.2-12.5,108.3-37.5,154.2
	c-16.7-20.8-37.5-37.5-66.7-45.8l-66.7-16.7l-16.7,62.5l66.7,16.7c33.3,8.3,41.7,33.3,45.8,45.8C708.3,795.8,608.3,845.8,500,845.8z
	"/>
</svg>
