<?xml version="1.0" encoding="utf-8"?>
<!-- Generator: Adobe Illustrator 24.0.0, SVG Export Plug-In . SVG Version: 6.00 Build 0)  -->
<svg version="1.1" id="Layer_1" xmlns="http://www.w3.org/2000/svg" xmlns:xlink="http://www.w3.org/1999/xlink" x="0px" y="0px"
	 viewBox="0 0 1000 1000" style="enable-background:new 0 0 1000 1000;" xml:space="preserve">
<g>
	<path d="M500,175c-204.2,0-366.7,162.5-366.7,366.7S295.8,908.3,500,908.3s366.7-162.5,366.7-366.7S704.2,175,500,175z M500,841.7
		c-166.7,0-300-133.3-300-300s133.3-300,300-300s300,133.3,300,300S666.7,841.7,500,841.7z"/>
	<rect x="91.7" y="154.2" transform="matrix(0.7677 -0.6408 0.6408 0.7677 -71.7589 177.0603)" width="233.3" height="66.7"/>
	<rect x="758.3" y="70.8" transform="matrix(0.6404 -0.768 0.768 0.6404 140.6397 675.4084)" width="66.7" height="233.3"/>
</g>
<path d="M691.7,441.7l-45.8-45.8l0,0l0,0L441.7,600l-87.5-87.5l0,0l0,0l-45.8,45.8l0,0l0,0l133.3,133.3l0,0l0,0L691.7,441.7
	L691.7,441.7L691.7,441.7z M441.7,604.2L441.7,604.2L441.7,604.2L441.7,604.2z"/>
</svg>
