<?xml version="1.0" encoding="utf-8"?>
<!-- Generator: Adobe Illustrator 24.0.0, SVG Export Plug-In . SVG Version: 6.00 Build 0)  -->
<svg version="1.1" id="Layer_1" xmlns="http://www.w3.org/2000/svg" xmlns:xlink="http://www.w3.org/1999/xlink" x="0px" y="0px"
	 viewBox="0 0 1000 1000" style="enable-background:new 0 0 1000 1000;" xml:space="preserve">
<g>
	<path d="M779.2,337.5l-50,50c16.7,37.5,29.2,75,29.2,116.7c0,141.7-116.7,258.3-258.3,258.3h-8.3V750V645.8L345.8,791.7
		l145.8,145.8V833.3V825h8.3c179.2,0,325-145.8,325-325C825,441.7,808.3,387.5,779.2,337.5z"/>
	<path d="M508.3,241.7v8.3v104.2l145.8-145.8L508.3,62.5v104.2v8.3H500c-179.2,0-325,145.8-325,325c0,58.3,16.7,112.5,45.8,162.5
		l50-50c-20.8-33.3-29.2-70.8-29.2-112.5c0-141.7,116.7-258.3,258.3-258.3H508.3z"/>
</g>
</svg>
