<?xml version="1.0" encoding="utf-8"?>
<!-- Generator: Adobe Illustrator 24.0.0, SVG Export Plug-In . SVG Version: 6.00 Build 0)  -->
<svg version="1.1" id="Layer_1" xmlns="http://www.w3.org/2000/svg" xmlns:xlink="http://www.w3.org/1999/xlink" x="0px" y="0px"
	 viewBox="0 0 1000 1000" style="enable-background:new 0 0 1000 1000;" xml:space="preserve">
<path d="M500,91.7C275,91.7,91.7,275,91.7,500S275,908.3,500,908.3S908.3,725,908.3,500S725,91.7,500,91.7z M237.5,716.7l-8.3-8.3
	C183.3,650,158.3,575,158.3,500c0-187.5,154.2-341.7,341.7-341.7c75,0,150,25,208.3,70.8l8.3,4.2l-8.3,8.3L241.7,708.3L237.5,716.7z
	 M500,841.7c-75,0-150-25-208.3-70.8l-8.3-4.2l8.3-8.3l466.7-466.7l8.3-8.3l4.2,8.3C816.7,350,841.7,425,841.7,500
	C841.7,687.5,687.5,841.7,500,841.7z"/>
</svg>
