<?xml version="1.0" encoding="utf-8"?>
<!-- Generator: Adobe Illustrator 24.0.0, SVG Export Plug-In . SVG Version: 6.00 Build 0)  -->
<svg version="1.1" id="Layer_1" xmlns="http://www.w3.org/2000/svg" xmlns:xlink="http://www.w3.org/1999/xlink" x="0px" y="0px"
	 viewBox="0 0 1000 1000" style="enable-background:new 0 0 1000 1000;" xml:space="preserve">
<path d="M133.3,945.8L412.5,825h4.2h4.2L700,945.8V291.7c0-41.7-33.3-75-75-75H208.3c-41.7,0-75,33.3-75,75V945.8z M200,833.3V291.7
	v-8.3h8.3H625h8.3v8.3v541.7v12.5l-12.5-4.2l-175-75L416.7,750l-29.2,12.5l-175,75l-12.5,4.2V833.3z"/>
<path d="M866.7,779.2V125c0-41.7-33.3-75-75-75H375c-37.5,0-70.8,29.2-75,66.7h408.3c50,0,91.7,41.7,91.7,91.7v537.5L866.7,779.2z"
	/>
</svg>
