<?xml version="1.0" encoding="utf-8"?>
<!-- Generator: Adobe Illustrator 24.0.0, SVG Export Plug-In . SVG Version: 6.00 Build 0)  -->
<svg version="1.1" id="Layer_1" xmlns="http://www.w3.org/2000/svg" xmlns:xlink="http://www.w3.org/1999/xlink" x="0px" y="0px"
	 viewBox="0 0 1000 1000" style="enable-background:new 0 0 1000 1000;" xml:space="preserve">
<polygon points="283.3,562.5 416.7,695.8 654.2,458.3 608.3,412.5 420.8,595.8 416.7,604.2 412.5,595.8 329.2,516.7 "/>
<path d="M500,233.3c116.7,0,216.7,83.3,241.7,195.8l8.3,50l50,4.2c75,4.2,133.3,66.7,133.3,141.7c0,79.2-62.5,141.7-141.7,141.7H250
	c-100,0-183.3-83.3-183.3-183.3c0-95.8,70.8-170.8,162.5-183.3l37.5-4.2l16.7-33.3C325,283.3,408.3,233.3,500,233.3 M500,166.7
	c-120.8,0-225,66.7-279.2,166.7C95.8,350,0,454.2,0,583.3c0,137.5,112.5,250,250,250h541.7c116.7,0,208.3-91.7,208.3-208.3
	c0-108.3-83.3-200-191.7-208.3C779.2,275,650,166.7,500,166.7L500,166.7z"/>
</svg>
