<?xml version="1.0" encoding="utf-8"?>
<!-- Generator: Adobe Illustrator 24.0.0, SVG Export Plug-In . SVG Version: 6.00 Build 0)  -->
<svg version="1.1" id="Layer_1" xmlns="http://www.w3.org/2000/svg" xmlns:xlink="http://www.w3.org/1999/xlink" x="0px" y="0px"
	 viewBox="0 0 1000 1000" style="enable-background:new 0 0 1000 1000;" xml:space="preserve">
<g>
	<path d="M250,825h487.5h4.2l4.2,4.2l79.2,79.2l45.8-45.8L183.3,170.8l-45.8,50l108.3,108.3l12.5,12.5h-16.7h-20.8
		C100,358.3,8.3,458.3,8.3,583.3C8.3,716.7,116.7,825,250,825z M250,408.3h70.8h4.2l4.2,4.2l333.3,333.3l12.5,12.5h-20.8H250
		c-95.8,0-175-79.2-175-175S154.2,408.3,250,408.3z"/>
	<path d="M991.7,625c0-104.2-83.3-191.7-187.5-200h-8.3v-8.3c-29.2-141.7-154.2-245.8-300-245.8c-50,0-95.8,12.5-137.5,33.3l50,50
		c29.2-12.5,58.3-16.7,87.5-16.7c129.2,0,237.5,108.3,237.5,237.5v12.5h58.3c75,0,133.3,58.3,133.3,133.3c0,37.5-16.7,75-45.8,100
		l45.8,45.8C966.7,733.3,991.7,679.2,991.7,625z"/>
</g>
</svg>
