<?xml version="1.0" encoding="utf-8"?>
<!-- Generator: Adobe Illustrator 24.0.0, SVG Export Plug-In . SVG Version: 6.00 Build 0)  -->
<svg version="1.1" id="Layer_1" xmlns="http://www.w3.org/2000/svg" xmlns:xlink="http://www.w3.org/1999/xlink" x="0px" y="0px"
	 viewBox="0 0 1000 1000" style="enable-background:new 0 0 1000 1000;" xml:space="preserve">
<path d="M908.3,230.3c0-41.7-33.3-75-75-75H166.7c-41.7,0-75,33.3-75,75v454.2c0,41.7,33.3,75,75,75h666.7c41.7,0,75-33.3,75-75
	V230.3z M841.7,480.3v204.2v8.3h-8.3H166.7h-8.3v-8.3V480.3v-8.3h8.3h666.7h8.3V480.3z M841.7,230.3v112.5v8.3h-8.3H166.7h-8.3v-8.3
	V230.3v-8.3h8.3h666.7h8.3V230.3z"/>
</svg>
