<?xml version="1.0" encoding="utf-8"?>
<!-- Generator: Adobe Illustrator 24.0.0, SVG Export Plug-In . SVG Version: 6.00 Build 0)  -->
<svg version="1.1" id="Layer_1" xmlns="http://www.w3.org/2000/svg" xmlns:xlink="http://www.w3.org/1999/xlink" x="0px" y="0px"
	 viewBox="0 0 1000 1000" style="enable-background:new 0 0 1000 1000;" xml:space="preserve">
<path d="M941.7,83.3H58.3c-16.7,0-29.2,12.5-29.2,33.3v641.7c0,16.7,12.5,33.3,33.3,33.3h408.3v62.5H200v62.5h458.3V850h-125v-62.5
	h125v-66.7H95.8V150h808.3v287.5h66.7V116.7C970.8,95.8,958.3,83.3,941.7,83.3z"/>
<path d="M929.2,545.8V875H741.7V545.8H929.2 M950,504.2H725c-12.5,0-25,8.3-25,25v366.7c0,12.5,8.3,25,25,25h225
	c12.5,0,25-8.3,25-25V529.2C970.8,512.5,962.5,504.2,950,504.2L950,504.2z"/>
<circle cx="837.5" cy="812.5" r="20.8"/>
</svg>
