<?xml version="1.0" encoding="utf-8"?>
<!-- Generator: Adobe Illustrator 24.0.0, SVG Export Plug-In . SVG Version: 6.00 Build 0)  -->
<svg version="1.1" id="Layer_1" xmlns="http://www.w3.org/2000/svg" xmlns:xlink="http://www.w3.org/1999/xlink" x="0px" y="0px"
	 viewBox="0 0 1000 1000" style="enable-background:new 0 0 1000 1000;" xml:space="preserve">
<g>
	<polygon points="683.3,516.7 650,483.3 641.7,475 637.5,483.3 441.7,679.2 358.3,595.8 354.2,591.7 345.8,595.8 312.5,629.2 
		304.2,637.5 312.5,645.8 433.3,766.7 441.7,770.8 445.8,766.7 683.3,529.2 691.7,520.8 	"/>
	<path d="M866.7,250c0-41.7-33.3-75-75-75H750h-8.3v-8.3v-75H675v75v8.3h-8.3H333.3H325v-8.3v-75h-66.7v75v8.3H250h-41.7
		c-41.7,0-75,33.3-75,75v583.3c0,41.7,33.3,75,75,75h583.3c41.7,0,75-33.3,75-75V250z M800,416.7v416.7v8.3h-8.3H208.3H200v-8.3
		V416.7v-8.3h8.3h583.3h8.3V416.7z M800,250v83.3v8.3h-8.3H208.3H200v-8.3V250v-8.3h8.3h583.3h8.3V250z"/>
</g>
</svg>
