<?xml version="1.0" encoding="utf-8"?>
<!-- Generator: Adobe Illustrator 24.0.0, SVG Export Plug-In . SVG Version: 6.00 Build 0)  -->
<svg version="1.1" id="Layer_1" xmlns="http://www.w3.org/2000/svg" xmlns:xlink="http://www.w3.org/1999/xlink" x="0px" y="0px"
	 viewBox="0 0 1000 1000" style="enable-background:new 0 0 1000 1000;" xml:space="preserve">
<path d="M866.7,208.3c0-41.7-33.3-75-75-75h-500c-41.7,0-75,33.3-75,75v158.3h66.7V208.3V200h8.3h500h8.3v8.3v583.3v8.3h-8.3h-500
	h-8.3v-8.3V633.3h-66.7v158.3c0,41.7,33.3,75,75,75h500c41.7,0,75-33.3,75-75V208.3z"/>
<polygon points="675,500 479.2,304.2 433.3,350 533.3,454.2 550,466.7 529.2,466.7 133.3,466.7 133.3,533.3 529.2,533.3 550,533.3 
	533.3,545.8 433.3,650 479.2,695.8 "/>
</svg>
