<?xml version="1.0" encoding="utf-8"?>
<!-- Generator: Adobe Illustrator 24.0.0, SVG Export Plug-In . SVG Version: 6.00 Build 0)  -->
<svg version="1.1" id="Layer_1" xmlns="http://www.w3.org/2000/svg" xmlns:xlink="http://www.w3.org/1999/xlink" x="0px" y="0px"
	 viewBox="0 0 1000 1000" style="enable-background:new 0 0 1000 1000;" xml:space="preserve">
<g>
	<path d="M258.3,200c4.2,0,12.5,0,16.7-4.2c70.8-37.5,145.8-58.3,225-58.3s150,16.7,225,58.3c4.2,4.2,8.3,4.2,16.7,4.2
		c12.5,0,25-8.3,29.2-16.7c4.2-8.3,4.2-16.7,4.2-25c-4.2-8.3-8.3-16.7-16.7-20.8C670.8,91.7,591.7,70.8,500,70.8
		s-179.2,20.8-258.3,66.7c-16.7,8.3-20.8,29.2-12.5,45.8C233.3,191.7,245.8,200,258.3,200z"/>
	<path d="M354.2,766.7c-25-41.7-37.5-95.8-37.5-154.2c0-95.8,83.3-170.8,183.3-170.8s183.3,75,183.3,170.8
		c0,16.7,16.7,33.3,33.3,33.3c16.7,0,33.3-16.7,33.3-33.3C750,483.3,637.5,375,500,375S250,483.3,250,612.5
		c0,70.8,16.7,133.3,45.8,187.5c29.2,50,50,75,87.5,112.5c4.2,4.2,12.5,8.3,25,8.3c8.3,0,16.7-4.2,25-8.3
		c12.5-12.5,12.5-33.3,0-45.8C400,829.2,379.2,812.5,354.2,766.7z"/>
	<path d="M879.2,362.5c-41.7-58.3-95.8-104.2-162.5-137.5S575,175,495.8,175c-79.2,0-154.2,16.7-220.8,54.2
		c-58.3,29.2-112.5,75-158.3,137.5c-8.3,12.5-4.2,33.3,8.3,45.8c8.3,4.2,12.5,4.2,20.8,4.2c12.5,0,20.8-4.2,29.2-12.5
		c37.5-50,83.3-91.7,137.5-116.7c58.3-29.2,120.8-45.8,191.7-45.8c66.7,0,133.3,16.7,191.7,45.8c54.2,29.2,100,66.7,137.5,116.7
		c0,8.3,8.3,12.5,20.8,12.5c8.3,0,12.5-4.2,20.8-4.2c8.3-4.2,12.5-12.5,12.5-20.8C887.5,379.2,887.5,370.8,879.2,362.5z"/>
	<path d="M754.2,770.8H750c-16.7,4.2-33.3,4.2-41.7,4.2c-37.5,0-70.8-8.3-100-29.2c-45.8-33.3-75-83.3-75-137.5
		c0-16.7-16.7-33.3-33.3-33.3s-33.3,16.7-33.3,33.3c0,75,37.5,150,104.2,191.7c37.5,25,83.3,37.5,137.5,37.5c4.2,0,29.2,0,54.2-4.2
		c8.3,0,16.7-8.3,20.8-12.5c4.2-8.3,8.3-16.7,4.2-25C783.3,783.3,766.7,770.8,754.2,770.8z"/>
	<path d="M500,270.8c-137.5,0-266.7,79.2-325,200c-20.8,41.7-29.2,87.5-29.2,141.7c0,58.3,8.3,112.5,29.2,170.8
		c4.2,8.3,16.7,16.7,33.3,16.7c4.2,0,8.3,0,12.5-4.2c8.3-4.2,16.7-8.3,16.7-16.7c4.2-8.3,4.2-16.7,0-25
		c-25-66.7-29.2-112.5-29.2-145.8c0-41.7,8.3-79.2,25-112.5c45.8-95.8,150-158.3,266.7-158.3c158.3,0,287.5,120.8,287.5,270.8
		c0,37.5-33.3,66.7-75,66.7c-41.7,0-75-29.2-75-66.7c0-75-62.5-133.3-141.7-133.3s-141.7,62.5-141.7,133.3
		c0,87.5,33.3,166.7,95.8,225c45.8,45.8,91.7,70.8,162.5,91.7c4.2,0,8.3,0,8.3,0c16.7,0,29.2-12.5,33.3-25c4.2-8.3,0-16.7-4.2-25
		s-12.5-12.5-20.8-16.7c-54.2-16.7-91.7-37.5-129.2-75c-45.8-45.8-75-112.5-75-179.2c0-37.5,33.3-66.7,75-66.7s75,29.2,75,66.7
		c0,75,62.5,133.3,141.7,133.3S858.3,675,858.3,604.2C854.2,425,695.8,270.8,500,270.8z"/>
</g>
</svg>
