<?xml version="1.0" encoding="utf-8"?>
<!-- Generator: Adobe Illustrator 24.0.3, SVG Export Plug-In . SVG Version: 6.00 Build 0)  -->
<svg version="1.1" id="Layer_1" xmlns="http://www.w3.org/2000/svg" xmlns:xlink="http://www.w3.org/1999/xlink" x="0px" y="0px"
	 viewBox="0 0 1000 1000" style="enable-background:new 0 0 1000 1000;" xml:space="preserve">
<style type="text/css">
	.st0{fill-rule:evenodd;clip-rule:evenodd;}
</style>
<path class="st0" d="M658.3,208.3c50.6,0,91.7,40,91.7,89.4H383.4v366.7c0,1.8-1.5,3.3-3.3,3.3h-85c-1.8,0-3.3-1.5-3.3-3.3V297.7
	c0-49.3,41.1-89.4,91.7-89.4H658.3z M658.3,744H291.7c0,49.3,41.1,89.4,91.7,89.4h274.9c50.6,0,91.7-40,91.7-89.4V377.4
	c0-1.8-1.5-3.3-3.3-3.3h-85c-1.8,0-3.3,1.5-3.3,3.3V744z"/>
</svg>
