<?xml version="1.0" encoding="utf-8"?>
<!-- Generator: Adobe Illustrator 24.0.0, SVG Export Plug-In . SVG Version: 6.00 Build 0)  -->
<svg version="1.1" id="Layer_1" xmlns="http://www.w3.org/2000/svg" xmlns:xlink="http://www.w3.org/1999/xlink" x="0px" y="0px"
	 viewBox="0 0 1000 1000" style="enable-background:new 0 0 1000 1000;" xml:space="preserve">
<polygon points="323.7,406.6 323.7,340.2 207.5,340.2 199.2,340.2 199.2,332 199.2,215.8 132.8,215.8 132.8,332 132.8,340.2 
	124.5,340.2 8.3,340.2 8.3,406.6 124.5,406.6 132.8,406.6 132.8,414.9 132.8,531.1 199.2,531.1 199.2,414.9 199.2,406.6 
	207.5,406.6 "/>
<g>
	<g>
		<path d="M539.4,572.6c-87.1,0-157.7-70.5-157.7-157.7v-66.4c0-87.1,70.5-157.7,157.7-157.7s157.7,70.5,157.7,157.7v70.5
			C697.1,502.1,626.6,572.6,539.4,572.6z M539.4,257.3c-49.8,0-91.3,41.5-91.3,91.3v70.5c0,49.8,41.5,91.3,91.3,91.3
			s91.3-41.5,91.3-91.3v-70.5C630.7,298.8,589.2,257.3,539.4,257.3z"/>
	</g>
	<g>
		<path d="M771.8,805H307.1c-58.1,0-103.7-45.6-103.7-103.7v-53.9c0-29,12.4-78.8,91.3-103.7l70.5-20.7l16.6,62.2l-70.5,20.7
			c-45.6,12.4-45.6,33.2-45.6,37.3v53.9c0,20.7,16.6,37.3,37.3,37.3h464.7c20.7,0,37.3-16.6,37.3-37.3v-53.9c0-8.3,0-24.9-45.6-37.3
			l-66.4-16.6l16.6-62.2l66.4,16.6c78.8,24.9,91.3,74.7,91.3,103.7v53.9C875.5,759.3,829.9,805,771.8,805z"/>
	</g>
</g>
<path d="M825.7,543.6c78.8,24.9,91.3,74.7,91.3,103.7v53.9c0,58.1-45.6,103.7-103.7,103.7h83c58.1,0,103.7-45.6,103.7-103.7v-53.9
	c0-29-12.4-78.8-91.3-103.7L842.3,527"/>
<g>
	<path d="M738.6,348.5v70.5c0,12.4-4.1,29-4.1,41.5l8.3,4.1c29,8.3,45.6,20.7,58.1,33.2c12.4-20.7,20.7-45.6,20.7-74.7v-74.7
		c0-87.1-70.5-157.7-157.7-157.7c-12.4,0-29,4.1-41.5,8.3C688.8,215.8,738.6,273.9,738.6,348.5z"/>
</g>
</svg>
