<?xml version="1.0" encoding="utf-8"?>
<!-- Generator: Adobe Illustrator 24.0.0, SVG Export Plug-In . SVG Version: 6.00 Build 0)  -->
<svg version="1.1" id="Layer_1" xmlns="http://www.w3.org/2000/svg" xmlns:xlink="http://www.w3.org/1999/xlink" x="0px" y="0px"
	 viewBox="0 0 1000 1000" style="enable-background:new 0 0 1000 1000;" xml:space="preserve">
<path d="M791.7,400c0-8.3-4.2-16.7-8.3-20.8L520.8,141.7c-4.2-4.2-12.5-8.3-16.7-8.3c-8.3,0-12.5,4.2-16.7,8.3L216.7,379.2
	c-4.2,4.2-8.3,12.5-8.3,20.8v404.2c0,16.7,12.5,29.2,29.2,29.2h229.2h75h220.8c16.7,0,29.2-12.5,29.2-29.2V400z M595.8,766.7V554.2
	c0-29.2-25-54.2-54.2-54.2h-75c-29.2,0-54.2,25-54.2,54.2v212.5H275v-350l225-200l225,204.2v350H595.8V766.7z"/>
</svg>
