<?xml version="1.0" encoding="utf-8"?>
<!-- Generator: Adobe Illustrator 24.0.0, SVG Export Plug-In . SVG Version: 6.00 Build 0)  -->
<svg version="1.1" id="Layer_1" xmlns="http://www.w3.org/2000/svg" xmlns:xlink="http://www.w3.org/1999/xlink" x="0px" y="0px"
	 viewBox="0 0 1000 1000" style="enable-background:new 0 0 1000 1000;" xml:space="preserve">
<path d="M792.7,191.7c8.3,0,16.7,8.3,16.7,16.7v583.3c0,8.3-8.3,16.7-16.7,16.7H209.3c-8.3,0-16.7-8.3-16.7-16.7V208.3
	c0-8.3,8.3-16.7,16.7-16.7H792.7 M792.7,125H209.3c-45.8,0-83.3,37.5-83.3,83.3v583.3c0,45.8,37.5,83.3,83.3,83.3h583.3
	c45.8,0,83.3-37.5,83.3-83.3V208.3C876,162.5,838.5,125,792.7,125L792.7,125z"/>
<g>
	<rect x="301" y="425" width="66.7" height="275"/>
	<rect x="634.3" y="550" width="66.7" height="150"/>
	<rect x="467.7" y="300" width="66.7" height="400"/>
</g>
</svg>
