<?xml version="1.0" encoding="utf-8"?>
<!-- Generator: Adobe Illustrator 24.0.3, SVG Export Plug-In . SVG Version: 6.00 Build 0)  -->
<svg version="1.1" id="Layer_1" xmlns="http://www.w3.org/2000/svg" xmlns:xlink="http://www.w3.org/1999/xlink" x="0px" y="0px"
	 viewBox="0 0 1000 1000" style="enable-background:new 0 0 1000 1000;" xml:space="preserve">
<path d="M516.7,243.1c82.7,0,91.8,0,124.6,1.3c30.2,1.3,45.9,6.6,57.7,10.5c14.4,5.2,24.9,11.8,35.4,23.6
	c10.5,10.5,17.1,21,23.6,35.4c3.9,10.5,9.2,27.6,10.5,57.7c1.3,32.8,1.3,42,1.3,124.6c0,82.7,0,91.8-1.3,124.6
	c-1.3,30.2-6.6,45.9-10.5,57.7c-5.2,14.4-11.8,24.9-23.6,35.4c-10.5,10.5-21,17.1-35.4,23.6c-10.5,3.9-27.6,9.2-57.7,10.5
	c-32.8,1.3-42,1.3-124.6,1.3s-91.8,0-124.6-1.3c-30.2-1.3-45.9-6.6-57.7-10.5c-14.4-5.2-24.9-11.8-35.4-23.6
	c-10.5-10.5-17.1-21-23.6-35.4c-3.9-10.5-9.2-27.6-10.5-57.7c-1.3-32.8-1.3-42-1.3-124.6c0-82.7,0-91.8,1.3-124.6
	c1.3-30.2,6.6-45.9,10.5-57.7c5.2-14.4,11.8-24.9,23.6-35.4c10.5-10.5,21-17.1,35.4-23.6c10.5-3.9,27.6-9.2,57.7-10.5
	C424.8,244.4,434,243.1,516.7,243.1z M516.7,188c-84,0-94.5,0-127.3,1.3c-32.8,1.3-55.1,6.6-74.8,14.4
	c-19.7,7.9-36.7,18.4-55.1,35.4c-17.1,18.4-27.6,35.4-35.4,55.1c-7.9,19.7-13.1,42-14.4,74.8c-1.3,32.8-1.3,43.3-1.3,127.3
	c0,84,0,94.5,1.3,127.3c1.3,32.8,6.6,55.1,14.4,74.8c7.9,19.7,18.4,38,35.4,55.1c17.1,17.1,34.1,27.5,55.1,35.4
	c19.7,7.9,42,13.1,74.8,14.4c32.8,1.3,43.3,1.3,127.3,1.3s94.5,0,127.3-1.3c32.8-1.3,55.1-6.6,74.8-14.4c19.7-7.9,38-18.4,55.1-35.4
	c17.1-17.1,27.5-34.1,35.4-55.1c7.9-19.7,13.1-42,14.4-74.8c1.3-32.8,1.3-43.3,1.3-127.3c0-84,0-94.5-1.3-127.3
	c-1.3-32.8-6.6-55.1-14.4-74.8c-7.9-19.7-18.4-38-35.4-55.1c-17.1-17.1-34.1-27.6-55.1-35.4c-19.7-7.9-42-13.1-74.8-14.4
	C611.1,188,600.6,188,516.7,188z"/>
<path d="M516.7,337.6c-87.9,0-158.8,70.8-158.8,158.8s70.9,158.8,158.8,158.8c87.9,0,158.8-70.9,158.8-158.8
	S604.6,337.6,516.7,337.6z M516.7,600c-56.4,0-102.3-45.9-102.3-102.3s45.9-102.3,102.3-102.3c56.4,0,102.3,45.9,102.3,102.3
	S573.1,600,516.7,600z"/>
<path d="M17.2,8.5c0,0.5-0.4,0.9-0.9,0.9c-0.5,0-0.9-0.4-0.9-0.9c0-0.5,0.4-0.9,0.9-0.9C16.8,7.6,17.2,8,17.2,8.5z"/>
</svg>
