<?xml version="1.0" encoding="utf-8"?>
<!-- Generator: Adobe Illustrator 24.0.0, SVG Export Plug-In . SVG Version: 6.00 Build 0)  -->
<svg version="1.1" id="Layer_1" xmlns="http://www.w3.org/2000/svg" xmlns:xlink="http://www.w3.org/1999/xlink" x="0px" y="0px"
	 viewBox="0 0 1000 1000" style="enable-background:new 0 0 1000 1000;" xml:space="preserve">
<g>
	<rect x="466.7" y="341.7" width="66.7" height="66.7"/>
	<rect x="591.7" y="466.7" width="66.7" height="66.7"/>
	<rect x="466.7" y="466.7" width="66.7" height="66.7"/>
	<rect x="591.7" y="341.7" width="66.7" height="66.7"/>
	<rect x="716.7" y="341.7" width="66.7" height="66.7"/>
	<rect x="716.7" y="466.7" width="66.7" height="66.7"/>
	<rect x="341.7" y="466.7" width="66.7" height="66.7"/>
	<rect x="216.7" y="466.7" width="66.7" height="66.7"/>
	<rect x="341.7" y="341.7" width="66.7" height="66.7"/>
	<rect x="341.7" y="591.7" width="316.7" height="66.7"/>
	<rect x="216.7" y="341.7" width="66.7" height="66.7"/>
</g>
<path d="M908.3,291.7c0-41.7-33.3-75-75-75H166.7c-41.7,0-75,33.3-75,75v416.7c0,41.7,33.3,75,75,75h666.7c41.7,0,75-33.3,75-75
	V291.7z M841.7,291.7v416.7v8.3h-8.3H166.7h-8.3v-8.3V291.7v-8.3h8.3h666.7h8.3V291.7z"/>
</svg>
