<?xml version="1.0" encoding="utf-8"?>
<!-- Generator: Adobe Illustrator 24.0.0, SVG Export Plug-In . SVG Version: 6.00 Build 0)  -->
<svg version="1.1" id="Layer_1" xmlns="http://www.w3.org/2000/svg" xmlns:xlink="http://www.w3.org/1999/xlink" x="0px" y="0px"
	 viewBox="0 0 1000 1000" style="enable-background:new 0 0 1000 1000;" xml:space="preserve">
<g>
	<path d="M837.5,816.7L141.7,120.8l-45.8,45.8l58.3,58.3l4.2,4.2l-4.2,12.5c-12.5,12.5-20.8,29.2-20.8,50v416.7
		c0,41.7,33.3,75,75,75h458.3c8.3,0,20.8-4.2,29.2-8.3l4.2-4.2l4.2,4.2l83.3,83.3L837.5,816.7z M625,716.7H208.3H200v-8.3V291.7
		v-20.8l12.5,12.5L629.2,700l12.5,12.5H625V716.7z"/>
	<path d="M445.8,283.3h220.8h4.2l4.2,4.2l145.8,208.3l4.2,4.2l-4.2,4.2l-62.5,91.7l45.8,45.8l100-141.7L725,250
		c-12.5-20.8-37.5-33.3-62.5-33.3H375L445.8,283.3z"/>
</g>
</svg>
