<?xml version="1.0" encoding="utf-8"?>
<!-- Generator: Adobe Illustrator 24.0.3, SVG Export Plug-In . SVG Version: 6.00 Build 0)  -->
<svg version="1.1" id="Layer_1" xmlns="http://www.w3.org/2000/svg" xmlns:xlink="http://www.w3.org/1999/xlink" x="0px" y="0px"
	 viewBox="0 0 1000 1000" style="enable-background:new 0 0 1000 1000;" xml:space="preserve">
<path d="M218.5,392.3h127.9v411.1H218.5V392.3z M282.5,188c40.9,0,74,33.2,74,74.1c0,40.9-33.2,74.1-74,74.1
	c-41,0-74.1-33.2-74.1-74.1C208.4,221.2,241.5,188,282.5,188z"/>
<path d="M426.6,392.3H549v56.2h1.8c17-32.3,58.7-66.4,120.9-66.4c129.3,0,153.3,85.1,153.3,195.8v225.4H697.2V603.5
	c0-47.7-0.8-109-66.4-109c-66.5,0-76.6,51.9-76.6,105.6v203.3H426.6V392.3z"/>
</svg>
