<?xml version="1.0" encoding="utf-8"?>
<!-- Generator: Adobe Illustrator 24.0.0, SVG Export Plug-In . SVG Version: 6.00 Build 0)  -->
<svg version="1.1" id="Layer_1" xmlns="http://www.w3.org/2000/svg" xmlns:xlink="http://www.w3.org/1999/xlink" x="0px" y="0px"
	 viewBox="0 0 1000 1000" style="enable-background:new 0 0 1000 1000;" xml:space="preserve">
<g>
	<circle cx="500" cy="625" r="75"/>
	<path d="M825,416.7c0-41.7-33.3-75-75-75h-41.7H700v-8.3V250c0-108.3-91.7-200-200-200s-195.8,83.3-200,191.7h66.7
		c4.2-70.8,62.5-125,133.3-125c75,0,133.3,58.3,133.3,133.3v83.3v8.3H625H250c-41.7,0-75,33.3-75,75v416.7c0,41.7,33.3,75,75,75h500
		c41.7,0,75-33.3,75-75V416.7z M758.3,416.7v416.7v8.3H750H250h-8.3v-8.3V416.7v-8.3h8.3h500h8.3V416.7z"/>
</g>
</svg>
