<?xml version="1.0" encoding="utf-8"?>
<!-- Generator: Adobe Illustrator 24.0.0, SVG Export Plug-In . SVG Version: 6.00 Build 0)  -->
<svg version="1.1" id="Layer_1" xmlns="http://www.w3.org/2000/svg" xmlns:xlink="http://www.w3.org/1999/xlink" x="0px" y="0px"
	 viewBox="0 0 1000 1000" style="enable-background:new 0 0 1000 1000;" xml:space="preserve">
<g>
	<path d="M479.2,262.5L479.2,262.5c8.3,0,12.5,0,20.8,0c104.2,0,175,79.2,175,195.8l0,0l66.7,66.7v-66.7
		c0-129.2-70.8-229.2-179.2-254.2h-8.3v-8.3v-29.2c0-29.2-25-54.2-54.2-54.2s-54.2,25-54.2,54.2v29.2v8.3h-8.3
		c-4.2,0-12.5,4.2-16.7,4.2L479.2,262.5z"/>
	<path d="M425,841.7c4.2,37.5,37.5,66.7,75,66.7s70.8-29.2,75-66.7H425z"/>
	<path d="M762.5,783.3L762.5,783.3l70.8,70.8l45.8-45.8L225,150l-45.8,50l112.5,108.3l4.2,4.2l-4.2,8.3
		c-20.8,41.7-33.3,87.5-33.3,137.5v208.3v4.2l-4.2,4.2L175,754.2v29.2L762.5,783.3L762.5,783.3z M675,700v8.3v8.3h-8.3H333.3H325
		v-8.3v-250c0-29.2,4.2-58.3,16.7-83.3l4.2-12.5l8.3,12.5L675,695.8V700L675,700z"/>
</g>
</svg>
