<?xml version="1.0" encoding="utf-8"?>
<!-- Generator: Adobe Illustrator 24.0.0, SVG Export Plug-In . SVG Version: 6.00 Build 0)  -->
<svg version="1.1" id="Layer_1" xmlns="http://www.w3.org/2000/svg" xmlns:xlink="http://www.w3.org/1999/xlink" x="0px" y="0px"
	 viewBox="0 0 1000 1000" style="enable-background:new 0 0 1000 1000;" xml:space="preserve">
<g>
	<path d="M425,841.7c4.2,37.5,37.5,66.7,75,66.7s70.8-29.2,75-66.7H425z"/>
	<path d="M258.3,458.3v208.3v4.2l-4.2,4.2L175,754.2v29.2h650v-29.2L745.8,675l-4.2-4.2v-4.2V458.3c0-129.2-70.8-229.2-179.2-254.2
		h-8.3v-8.3v-29.2c0-29.2-25-54.2-54.2-54.2s-54.2,25-54.2,54.2v29.2v8.3h-8.3C329.2,229.2,258.3,329.2,258.3,458.3z M500,262.5
		c104.2,0,175,79.2,175,195.8v250v8.3h-8.3H333.3H325v-8.3v-250C325,341.7,395.8,262.5,500,262.5z"/>
</g>
</svg>
