<?xml version="1.0" encoding="utf-8"?>
<!-- Generator: Adobe Illustrator 24.0.0, SVG Export Plug-In . SVG Version: 6.00 Build 0)  -->
<svg version="1.1" id="Layer_1" xmlns="http://www.w3.org/2000/svg" xmlns:xlink="http://www.w3.org/1999/xlink" x="0px" y="0px"
	 viewBox="0 0 1000 1000" style="enable-background:new 0 0 1000 1000;" xml:space="preserve">
<g>
	<polygon points="154.2,350 154.2,350 175,350 	"/>
	<path d="M575,208.3c83.3,8.3,158.3,58.3,208.3,133.3c58.3,91.7,70.8,200,25,304.2C770.8,729.2,700,791.7,616.7,816.7
		c-29.2,8.3-58.3,12.5-91.7,12.5c-87.5,0-170.8-37.5-233.3-100C250,683.3,225,625,216.7,566.7h291.7h4.2h66.7V500v-4.2L575,208.3
		 M541.7,137.5c-4.2,0-12.5,0-20.8,0c-8.3,0-12.5,8.3-12.5,16.7c0,66.7,0,341.7,0,341.7v4.2h-4.2H162.5c-8.3,0-16.7,8.3-16.7,16.7
		C133.3,725,308.3,895.8,525,895.8c33.3,0,70.8-4.2,108.3-12.5C741.7,854.2,829.2,779.2,870.8,675
		C983.3,408.3,787.5,137.5,541.7,137.5L541.7,137.5z"/>
	<path d="M350,154.2v187.5H162.5c8.3-45.8,29.2-87.5,62.5-120.8C258.3,183.3,300,162.5,350,154.2 M387.5,83.3
		C220.8,83.3,83.3,225,91.7,391.7c0,8.3,8.3,16.7,16.7,16.7c54.2,0,237.5,0,291.7,0c8.3,0,16.7-8.3,16.7-16.7
		c0-54.2,0-237.5,0-291.7c0-8.3-4.2-16.7-12.5-16.7S391.7,83.3,387.5,83.3L387.5,83.3z"/>
</g>
</svg>
