<?xml version="1.0" encoding="utf-8"?>
<!-- Generator: Adobe Illustrator 24.0.0, SVG Export Plug-In . SVG Version: 6.00 Build 0)  -->
<svg version="1.1" id="Layer_1" xmlns="http://www.w3.org/2000/svg" xmlns:xlink="http://www.w3.org/1999/xlink" x="0px" y="0px"
	 viewBox="0 0 1000 1000" style="enable-background:new 0 0 1000 1000;" xml:space="preserve">
<path d="M908.3,700V458.3c0-62.5-54.2-116.7-116.7-116.7H750h-8.3v-8.3v-200H258.3v200v8.3H250h-41.7
	c-62.5,0-116.7,54.2-116.7,116.7V700H250h8.3v8.3v158.3h483.3V708.3V700h8.3H908.3z M325,333.3v-125V200h8.3h333.3h8.3v8.3v125v8.3
	h-8.3H333.3H325V333.3z M675,625v83.3v83.3v8.3h-8.3H333.3H325v-8.3V625v-8.3h8.3h333.3h8.3V625z M258.3,550v75v8.3H250h-83.3h-8.3
	V625V458.3c0-29.2,20.8-50,50-50h583.3c29.2,0,50,20.8,50,50V625v8.3h-8.3H750h-8.3V625v-75H258.3z"/>
<circle cx="750" cy="479.2" r="33.3"/>
</svg>
