<?xml version="1.0" encoding="utf-8"?>
<!-- Generator: Adobe Illustrator 24.0.0, SVG Export Plug-In . SVG Version: 6.00 Build 0)  -->
<svg version="1.1" id="Layer_1" xmlns="http://www.w3.org/2000/svg" xmlns:xlink="http://www.w3.org/1999/xlink" x="0px" y="0px"
	 viewBox="0 0 1000 1000" style="enable-background:new 0 0 1000 1000;" xml:space="preserve">
<path d="M541.7,133.3C337.5,133.3,175,295.8,175,500v8.3h-8.3H62.5l145.8,145.8l145.8-145.8H250h-8.3V500c0-166.7,133.3-300,300-300
	s300,133.3,300,300s-133.3,300-300,300c-79.2,0-150-29.2-204.2-83.3l-45.8,45.8c66.7,66.7,158.3,100,254.2,100
	c204.2,0,366.7-162.5,366.7-366.7S745.8,133.3,541.7,133.3z"/>
<path d="M708.3,591.7l-145.8-87.5V333.3l0,0l0,0H500l0,0l0,0v208.3l0,0l0,0l175,104.2l0,0l0,0L708.3,591.7L708.3,591.7L708.3,591.7z
	 M708.3,591.7L708.3,591.7L708.3,591.7L708.3,591.7z"/>
</svg>
