<?xml version="1.0" encoding="utf-8"?>
<!-- Generator: Adobe Illustrator 24.0.3, SVG Export Plug-In . SVG Version: 6.00 Build 0)  -->
<svg version="1.1" id="Layer_1" xmlns="http://www.w3.org/2000/svg" xmlns:xlink="http://www.w3.org/1999/xlink" x="0px" y="0px"
	 viewBox="0 0 1000 1000" style="enable-background:new 0 0 1000 1000;" xml:space="preserve">
<style type="text/css">
	.st0{fill:#010101;}
</style>
<path class="st0" d="M666.7,125H208.3c-46,0-83.3,37.3-83.3,83.3v583.3c0,46,37.3,83.3,83.3,83.3h583.3c46,0,83.3-37.3,83.3-83.3
	V333.3L666.7,125z M675,808.3H325V575h350V808.3z M808.3,791.7c0,9.2-7.5,16.7-16.7,16.7h-50V541.7c0-18.4-14.9-33.3-33.3-33.3
	H291.7c-18.4,0-33.3,14.9-33.3,33.3v266.7h-50c-9.2,0-16.7-7.5-16.7-16.7V208.3c0-9.2,7.5-16.7,16.7-16.7h50v166.5
	c0,18.4,14.9,33.3,33.3,33.3h366.7v-66.7H325V191.7h314.1l169.3,169.3V791.7z"/>
</svg>
