<?xml version="1.0" encoding="utf-8"?>
<!-- Generator: Adobe Illustrator 24.0.0, SVG Export Plug-In . SVG Version: 6.00 Build 0)  -->
<svg version="1.1" id="Layer_1" xmlns="http://www.w3.org/2000/svg" xmlns:xlink="http://www.w3.org/1999/xlink" x="0px" y="0px"
	 viewBox="0 0 1000 1000" style="enable-background:new 0 0 1000 1000;" xml:space="preserve">
<path d="M500,150c191.7,0,350,158.3,350,350S691.7,850,500,850S150,691.7,150,500S308.3,150,500,150 M500,83.3
	C270.8,83.3,83.3,270.8,83.3,500S270.8,916.7,500,916.7S916.7,729.2,916.7,500S729.2,83.3,500,83.3L500,83.3z"/>
<ellipse transform="matrix(0.1602 -0.9871 0.9871 0.1602 151.6602 969.9218)" cx="645.8" cy="395.8" rx="54.2" ry="54.2"/>
<circle cx="354.2" cy="395.8" r="54.2"/>
<g>
	<path d="M300,700c-4.2,8.3-8.3,16.7-12.5,29.2l0,0C291.7,716.7,295.8,708.3,300,700z"/>
	<path d="M354.2,729.2c29.2-50,87.5-83.3,145.8-83.3s112.5,29.2,145.8,83.3h66.7C675,641.7,591.7,583.3,500,583.3
		S325,637.5,287.5,725h66.7V729.2z"/>
	<path d="M300,700c4.2-4.2,8.3-8.3,8.3-16.7C308.3,687.5,304.2,691.7,300,700z"/>
	<path d="M320.8,670.8l4.2-4.2C325,666.7,320.8,666.7,320.8,670.8z"/>
</g>
</svg>
