<?xml version="1.0" encoding="utf-8"?>
<!-- Generator: Adobe Illustrator 24.0.0, SVG Export Plug-In . SVG Version: 6.00 Build 0)  -->
<svg version="1.1" id="Layer_1" xmlns="http://www.w3.org/2000/svg" xmlns:xlink="http://www.w3.org/1999/xlink" x="0px" y="0px"
	 viewBox="0 0 1000 1000" style="enable-background:new 0 0 1000 1000;" xml:space="preserve">
<path d="M750,679.2c-29.2,0-54.2,12.5-75,29.2l-4.2,4.2l-8.3-4.2L366.7,537.5l-4.2-4.2v-4.2c0-8.3,4.2-16.7,4.2-29.2
	c0-12.5,0-20.8-4.2-29.2v-4.2l4.2-4.2l291.7-170.8l8.3-4.2l4.2,4.2c20.8,20.8,50,33.3,79.2,33.3c62.5,0,116.7-54.2,116.7-116.7
	S812.5,91.7,750,91.7s-116.7,54.2-116.7,116.7c0,8.3,0,20.8,4.2,29.2v4.2l-4.2,4.2L341.7,416.7l-8.3,4.2l-4.2-4.2
	c-20.8-20.8-50-33.3-79.2-33.3c-62.5,0-116.7,54.2-116.7,116.7S187.5,616.7,250,616.7c29.2,0,58.3-12.5,79.2-33.3l4.2-4.2l4.2,4.2
	l295.8,175l4.2,4.2v4.2c0,8.3-4.2,16.7-4.2,25c0,62.5,50,112.5,112.5,112.5s112.5-50,112.5-112.5S812.5,679.2,750,679.2z M750,158.3
	c29.2,0,50,20.8,50,50s-20.8,50-50,50s-50-20.8-50-50S720.8,158.3,750,158.3z M250,550c-29.2,0-50-20.8-50-50c0-29.2,20.8-50,50-50
	s50,20.8,50,50C300,529.2,279.2,550,250,550z M750,841.7c-29.2,0-50-20.8-50-50c0-29.2,20.8-50,50-50s50,20.8,50,50
	C800,820.8,779.2,841.7,750,841.7z"/>
</svg>
