<?xml version="1.0" encoding="utf-8"?>
<!-- Generator: Adobe Illustrator 24.0.0, SVG Export Plug-In . SVG Version: 6.00 Build 0)  -->
<svg version="1.1" id="Layer_1" xmlns="http://www.w3.org/2000/svg" xmlns:xlink="http://www.w3.org/1999/xlink" x="0px" y="0px"
	 viewBox="0 0 1000 1000" style="enable-background:new 0 0 1000 1000;" xml:space="preserve">
<g>
	<path d="M291.7,758.3c-41.7,0-75,33.3-75,75c0,41.7,33.3,75,75,75s75-33.3,75-75C366.7,791.7,333.3,758.3,291.7,758.3z"/>
	<path d="M862.5,191.7c-4.2-8.3-16.7-16.7-29.2-16.7H216.7h-4.2l-4.2-4.2l-37.5-79.2H50v66.7h75h4.2l4.2,4.2l150,316.7v4.2v4.2
		l-58.3,100c-12.5,25-12.5,50,0,75c12.5,20.8,37.5,37.5,62.5,37.5h491.7v-66.7H291.7h-12.5l8.3-12.5l45.8-83.3l0-4.2h4.2H650
		c29.2,0,54.2-16.7,66.7-37.5l150-270.8C866.7,212.5,866.7,200,862.5,191.7z M770.8,254.2L654.2,462.5l-4.2,4.2h-4.2H354.2H350
		l-4.2-4.2L250,254.2l-8.3-12.5h12.5h508.3H775L770.8,254.2z"/>
	<path d="M708.3,758.3c-41.7,0-75,33.3-75,75c0,41.7,33.3,75,75,75c41.7,0,75-33.3,75-75C783.3,791.7,750,758.3,708.3,758.3z"/>
</g>
</svg>
