<?xml version="1.0" encoding="utf-8"?>
<!-- Generator: Adobe Illustrator 24.0.0, SVG Export Plug-In . SVG Version: 6.00 Build 0)  -->
<svg version="1.1" id="Layer_1" xmlns="http://www.w3.org/2000/svg" xmlns:xlink="http://www.w3.org/1999/xlink" x="0px" y="0px"
	 viewBox="0 0 1000 1000" style="enable-background:new 0 0 1000 1000;" xml:space="preserve">
<path d="M500,254.2l54.2,129.2l16.7,37.5l41.7,4.2l141.7,12.5l-108.3,95.8l-29.2,25l8.3,37.5l33.3,137.5l-120.8-75L500,641.7
	l-33.3,20.8l-120.8,75L375,595.8l8.3-37.5l-29.2-25l-108.3-91.7l141.7-12.5l41.7-4.2l16.7-37.5L500,254.2 M500,83.3l-116.7,275
	l-300,25l229.2,200L245.8,875l258.3-154.2L762.5,875l-66.7-291.7l220.8-200l-300-25L500,83.3L500,83.3z"/>
</svg>
