<?xml version="1.0" encoding="utf-8"?>
<!-- Generator: Adobe Illustrator 24.0.0, SVG Export Plug-In . SVG Version: 6.00 Build 0)  -->
<svg version="1.1" id="Layer_1" xmlns="http://www.w3.org/2000/svg" xmlns:xlink="http://www.w3.org/1999/xlink" x="0px" y="0px"
	 viewBox="0 0 1000 1000" style="enable-background:new 0 0 1000 1000;" xml:space="preserve">
<g>
	<path d="M412.5,325c-75,37.5-141.7,91.7-145.8,91.7c-8.3,8.3-12.5,16.7-12.5,25V825c0,12.5,4.2,20.8,12.5,25
		c45.8,33.3,241.7,75,358.3,75c41.7,0,70.8-4.2,87.5-12.5c33.3-20.8,87.5-120.8,150-291.7l0,0l0,0c50-37.5,75-83.3,66.7-133.3
		c-8.3-45.8-41.7-83.3-91.7-100c-29.2-8.3-79.2-20.8-116.7-29.2l-8.3-4.2l4.2-8.3c50-75,95.8-179.2,58.3-258.3
		c-16.7-33.3-45.8-54.2-79.2-54.2c-75,0-100,70.8-116.7,120.8C566.7,204.2,500,275,412.5,325z M641.7,179.2
		c20.8-58.3,29.2-75,54.2-75c4.2,0,12.5,0,20.8,16.7c16.7,41.7,4.2,141.7-87.5,237.5c-8.3,8.3-12.5,20.8-8.3,33.3s12.5,20.8,25,20.8
		c0,0,125,25,175,41.7c25,8.3,45.8,25,45.8,45.8c4.2,25-12.5,50-50,75c-4.2,4.2-8.3,8.3-12.5,16.7c-41.7,112.5-100,245.8-125,266.7
		l0,0l0,0c-8.3,4.2-25,4.2-45.8,4.2c-79.2,0-241.7-25-308.3-54.2h-4.2v-4.2V462.5v-4.2h4.2c25-16.7,70.8-50,120.8-79.2
		C537.5,329.2,620.8,245.8,641.7,179.2z"/>
	<path d="M70.8,383.3H150c8.3,0,16.7,8.3,16.7,16.7v470.8c0,12.5-8.3,20.8-20.8,20.8h-75c-12.5,0-20.8-8.3-20.8-20.8V400
		C50,391.7,58.3,383.3,70.8,383.3z"/>
</g>
</svg>
