<?xml version="1.0" encoding="utf-8"?>
<!-- Generator: Adobe Illustrator 24.0.3, SVG Export Plug-In . SVG Version: 6.00 Build 0)  -->
<svg version="1.1" id="Layer_1" xmlns="http://www.w3.org/2000/svg" xmlns:xlink="http://www.w3.org/1999/xlink" x="0px" y="0px"
	 viewBox="0 0 1000 1000" style="enable-background:new 0 0 1000 1000;" xml:space="preserve">
<path d="M833.3,350.9c-23,10-47.7,16.8-73.6,19.9c26.5-15.6,46.8-40.4,56.4-69.8c-24.8,14.5-52.2,25-81.4,30.6
	c-23.4-24.5-56.7-39.9-93.6-39.9c-70.8,0-128.2,56.5-128.2,126.2c0,9.9,1.1,19.5,3.3,28.8c-106.6-5.3-201.1-55.5-264.3-131.9
	c-11,18.6-17.4,40.3-17.4,63.5c0,43.8,22.6,82.4,57,105.1c-21-0.7-40.8-6.3-58.1-15.8c0,0.5,0,1.1,0,1.6
	c0,61.2,44.2,112.2,102.9,123.8c-10.8,2.9-22.1,4.4-33.8,4.4c-8.3,0-16.3-0.8-24.1-2.3c16.3,50.1,63.7,86.6,119.8,87.7
	c-43.9,33.9-99.2,54-159.3,54c-10.3,0-20.6-0.6-30.6-1.8c56.7,35.8,124.1,56.7,196.6,56.7c235.9,0,364.8-192.3,364.8-359.1
	c0-5.5-0.1-10.9-0.4-16.3C794.4,398.4,816.2,376.2,833.3,350.9z"/>
</svg>
