<?xml version="1.0" encoding="utf-8"?>
<!-- Generator: Adobe Illustrator 24.0.0, SVG Export Plug-In . SVG Version: 6.00 Build 0)  -->
<svg version="1.1" id="Layer_1" xmlns="http://www.w3.org/2000/svg" xmlns:xlink="http://www.w3.org/1999/xlink" x="0px" y="0px"
	 viewBox="0 0 1000 1000" style="enable-background:new 0 0 1000 1000;" xml:space="preserve">
<g>
	<path d="M858.3,720.8v66.7c0,37.5-29.2,66.7-66.7,66.7H212.5c-37.5,0-66.7-29.2-66.7-66.7v-66.7H75v66.7
		c0,75,62.5,133.3,133.3,133.3h575c75,0,133.3-62.5,133.3-133.3v-66.7H858.3z"/>
	<path d="M466.7,191.7v525h66.7v-525L725,383.3l45.8-50l-250-250c-8.3-8.3-16.7-8.3-25-8.3s-16.7,4.2-25,8.3l-250,250l45.8,45.8
		L466.7,191.7z"/>
</g>
</svg>
