<?xml version="1.0" encoding="utf-8"?>
<!-- Generator: Adobe Illustrator 24.0.0, SVG Export Plug-In . SVG Version: 6.00 Build 0)  -->
<svg version="1.1" id="Layer_1" xmlns="http://www.w3.org/2000/svg" xmlns:xlink="http://www.w3.org/1999/xlink" x="0px" y="0px"
	 viewBox="0 0 1000 1000" style="enable-background:new 0 0 1000 1000;" xml:space="preserve">
<g>
	<path d="M687.5,750L825,887.5l45.8-45.8L141.7,112.5l-45.8,50L200,266.7l8.3,8.3l-8.3,4.2C133.3,333.3,83.3,400,50,479.2
		c75,183.3,250,304.2,450,304.2c62.5,0,120.8-12.5,175-33.3H687.5L687.5,750z M387.5,475v-20.8l12.5,12.5L508.3,575l8.3,8.3
		l-12.5,4.2c0,0-4.2,0-8.3,0C437.5,591.7,387.5,541.7,387.5,475C387.5,479.2,387.5,475,387.5,475z M616.7,700
		c-37.5,12.5-79.2,16.7-116.7,16.7c-162.5,0-304.2-91.7-375-233.3v-4.2V475c29.2-58.3,70.8-108.3,125-150l4.2-4.2l4.2,4.2l75,75
		l4.2,4.2l-4.2,4.2c-8.3,20.8-12.5,45.8-12.5,70.8c0,100,79.2,179.2,179.2,179.2c25,0,50-4.2,70.8-12.5l4.2-4.2l4.2,4.2l41.7,41.7
		l8.3,8.3L616.7,700z"/>
	<path d="M500,241.7c162.5,0,304.2,91.7,375,233.3v4.2v4.2c-25,50-54.2,91.7-95.8,125l45.8,45.8c54.2-50,95.8-112.5,125-179.2
		c-75-179.2-250-300-450-300c-45.8,0-91.7,8.3-137.5,20.8l58.3,54.2C450,245.8,475,241.7,500,241.7z"/>
	<path d="M600,433.3l75,75c0-8.3,4.2-20.8,4.2-29.2c0-45.8-16.7-91.7-50-125c-33.3-33.3-79.2-54.2-125-54.2c-8.3,0-16.7,0-29.2,4.2
		l70.8,70.8C570.8,387.5,591.7,408.3,600,433.3z"/>
</g>
</svg>
