<?xml version="1.0" encoding="utf-8"?>
<!-- Generator: Adobe Illustrator 24.0.0, SVG Export Plug-In . SVG Version: 6.00 Build 0)  -->
<svg version="1.1" id="Layer_1" xmlns="http://www.w3.org/2000/svg" xmlns:xlink="http://www.w3.org/1999/xlink" x="0px" y="0px"
	 viewBox="0 0 1000 1000" style="enable-background:new 0 0 1000 1000;" xml:space="preserve">
<path d="M500,233.3c166.7,0,316.7,95.8,387.5,245.8C816.7,629.2,670.8,725,500,725s-316.7-95.8-387.5-245.8
	C183.3,329.2,333.3,233.3,500,233.3 M500,166.7c-208.3,0-387.5,129.2-458.3,312.5c70.8,183.3,250,312.5,458.3,312.5
	s387.5-129.2,458.3-312.5C887.5,295.8,708.3,166.7,500,166.7L500,166.7z"/>
<path d="M500,358.3c66.7,0,120.8,54.2,120.8,120.8S566.7,600,500,600s-120.8-54.2-120.8-120.8S433.3,358.3,500,358.3 M500,291.7
	c-104.2,0-187.5,83.3-187.5,187.5S395.8,666.7,500,666.7s187.5-83.3,187.5-187.5S604.2,291.7,500,291.7L500,291.7z"/>
</svg>
