<svg width="569" height="595" viewBox="0 0 569 595" fill="none" xmlns="http://www.w3.org/2000/svg">
<path d="M557.743 11.538H13.333V416.668H557.743V11.538Z" fill="#31286B"/>
<g opacity="0.85">
<path opacity="0.85" d="M375.355 355.721L231.06 293.594L233.352 296.669L215.006 140.64L213.489 144.163L339.447 50.267L335.635 50.715L479.926 112.85L477.634 109.775L495.982 265.797L497.499 262.274L371.547 356.169L375.355 355.721ZM503.602 264.901L485.255 108.878L484.996 106.678L482.963 105.803L338.672 43.668L336.639 42.792L334.862 44.116L208.905 138.012L207.129 139.336L207.388 141.535L225.735 297.564L225.994 299.763L228.028 300.639L372.325 362.767L374.359 363.642L376.133 362.32L502.085 268.424L503.86 267.1L503.602 264.901Z" fill="white"/>
</g>
<path d="M484.06 354.451L320.313 396.58L325.278 397.963L206.912 277.22L208.196 282.21L253.589 119.334L249.909 122.941L413.646 80.822L408.683 79.439L527.05 200.177L525.767 195.187L480.38 358.059L484.06 354.451ZM534.41 192.963L416.043 72.225L413.96 70.101L411.08 70.842L247.342 112.96L244.461 113.701L243.662 116.567L198.27 279.443L197.471 282.309L199.554 284.434L317.918 405.178L320.001 407.302L322.882 406.561L486.629 364.432L489.51 363.692L490.308 360.826L535.696 197.955L536.495 195.089L534.41 192.963Z" fill="white"/>
<g opacity="0.7">
<path opacity="0.7" d="M458.477 368.426L279.987 384.254L284.939 386.557L181.986 239.886L182.468 245.325L258.011 82.836L253.541 85.973L432.017 70.159L427.066 67.857L530.027 214.517L529.545 209.078L454.007 371.564L458.477 368.426ZM538.965 208.241L436.005 61.581L434.194 59.001L431.052 59.279L252.579 75.094L249.438 75.372L248.109 78.231L172.566 240.72L171.237 243.579L173.049 246.16L276 392.83L277.811 395.411L280.952 395.133L459.442 379.305L462.583 379.028L463.911 376.169L539.448 213.683L540.778 210.824L538.965 208.241Z" fill="white"/>
</g>
<path d="M71.566 271.44C65.686 263.25 62.956 254.85 62.956 245.4C62.956 221.88 82.906 204.66 109.996 204.66C141.916 204.66 161.026 223.56 161.026 255.059C161.026 267.449 158.296 280.889 153.886 290.129H15.917V271.439L71.566 271.44ZM140.446 271.44C142.126 265.98 143.386 258 143.386 252.54C143.386 235.74 130.576 223.77 112.726 223.77C92.776 223.77 79.756 234.27 79.756 250.02C79.756 257.79 82.276 263.46 89.416 271.44H140.446Z" fill="white"/>
<path d="M64.847 186.39V166.02L122.806 140.61L64.847 115.83V95.88L161.027 137.46V143.76L64.847 186.39Z" fill="white"/>
<path d="M89.207 16.503C82.277 27.003 79.337 36.873 79.337 43.803C79.337 51.363 82.907 56.193 87.947 56.193C92.147 56.193 97.187 49.893 106.847 33.303C117.137 17.763 123.647 12.093 133.306 12.093C149.896 12.093 161.026 25.323 161.026 43.173C161.026 54.723 158.716 63.753 152.416 75.933H132.256C140.656 63.753 144.646 52.623 144.646 45.063C144.226 37.503 140.656 31.203 133.936 31.203C120.916 31.203 113.986 75.303 88.576 75.303C72.616 75.303 62.956 63.123 62.956 44.223C62.956 35.403 65.476 26.373 70.726 16.503H89.207Z" fill="white"/>
<path d="M16.91 430.689H26.66V459.273C28.297 456.812 30.107 454.975 32.094 453.76C34.081 452.545 36.242 451.939 38.58 451.939C43.623 451.939 47.687 454.379 50.777 459.258C53.865 464.137 55.41 469.891 55.41 476.521C55.41 484.228 53.551 490.414 49.834 495.074C46.115 499.734 41.836 502.064 36.992 502.064C35.14 502.064 33.334 501.619 31.568 500.732C29.802 499.844 28.095 498.529 26.447 496.787L23.924 501.064H16.91V430.689ZM26.66 487.607C27.892 489.494 29.217 490.916 30.635 491.875C32.051 492.836 33.543 493.314 35.11 493.314C38.077 493.314 40.577 491.723 42.61 488.543C44.643 485.362 45.661 481.33 45.661 476.447C45.661 472.102 44.786 468.391 43.036 465.309C41.286 462.23 38.96 460.689 36.061 460.689C33.393 460.689 31.161 462.08 29.36 464.857C27.559 467.633 26.661 471.195 26.661 475.537L26.66 487.607Z" fill="#31286B"/>
<path d="M89.878 430.689C91.591 430.689 92.927 431.293 93.884 432.502C94.841 433.713 95.32 435.24 95.32 437.088C95.32 439.004 94.824 440.541 93.834 441.699C92.844 442.859 91.576 443.436 90.029 443.436C88.381 443.436 87.078 442.816 86.123 441.574C85.168 440.332 84.691 438.836 84.695 437.088C84.693 435.174 85.213 433.627 86.252 432.451C87.291 431.275 88.5 430.689 89.878 430.689ZM85.195 452.939H94.945V501.064H85.195V452.939Z" fill="#31286B"/>
<path d="M127.144 430.689H136.894V459.273C138.531 456.812 140.341 454.975 142.328 453.76C144.315 452.545 146.476 451.939 148.814 451.939C153.857 451.939 157.921 454.379 161.011 459.258C164.099 464.137 165.644 469.891 165.644 476.521C165.644 484.228 163.785 490.414 160.068 495.074C156.349 499.734 152.07 502.064 147.226 502.064C145.374 502.064 143.568 501.619 141.802 500.732C140.036 499.844 138.329 498.529 136.681 496.787L134.158 501.064H127.144V430.689ZM136.894 487.607C138.126 489.494 139.451 490.916 140.869 491.875C142.285 492.836 143.777 493.314 145.344 493.314C148.311 493.314 150.811 491.723 152.844 488.543C154.877 485.362 155.895 481.33 155.895 476.447C155.895 472.102 155.02 468.391 153.27 465.309C151.52 462.23 149.194 460.689 146.295 460.689C143.627 460.689 141.395 462.08 139.594 464.857C137.793 467.633 136.895 471.195 136.895 475.537L136.894 487.607Z" fill="#31286B"/>
<path d="M194.416 430.689H204.166V501.064H194.416V430.689Z" fill="#31286B"/>
<path d="M241.306 430.689C243.019 430.689 244.355 431.293 245.312 432.502C246.269 433.713 246.748 435.24 246.748 437.088C246.748 439.004 246.252 440.541 245.262 441.699C244.272 442.859 243.004 443.436 241.457 443.436C239.809 443.436 238.506 442.816 237.551 441.574C236.596 440.332 236.119 438.836 236.123 437.088C236.121 435.174 236.641 433.627 237.68 432.451C238.719 431.275 239.927 430.689 241.306 430.689ZM236.623 452.939H246.373V501.064H236.623V452.939Z" fill="#31286B"/>
<path d="M296.255 451.939C302.606 451.939 307.661 454.236 311.425 458.83C315.19 463.424 317.071 469.49 317.071 477.027C317.071 484.262 315.258 490.246 311.629 494.971C308 499.7 303.01 502.064 296.658 502.064C290.272 502.064 285.307 499.668 281.763 494.871C278.218 490.076 276.447 484.178 276.447 477.178C276.447 469.979 278.277 463.971 281.941 459.158C285.604 454.346 290.374 451.939 296.255 451.939ZM297.239 459.939C293.659 459.939 290.923 461.531 289.032 464.71C287.14 467.889 286.195 472.19 286.195 477.608C286.195 482.386 287.174 486.284 289.133 489.296C291.092 492.308 293.592 493.815 296.631 493.815C299.735 493.815 302.295 492.308 304.306 489.296C306.316 486.284 307.322 482.052 307.322 476.599C307.322 471.685 306.359 467.681 304.433 464.583C302.507 461.488 300.109 459.939 297.239 459.939Z" fill="#31286B"/>
<path d="M349.339 437.564H357.854V452.939H366.979V460.939H357.854V489.773C357.854 491.062 358.206 492.039 358.913 492.699C359.618 493.359 360.677 493.689 362.089 493.689C363.534 493.689 365.163 493.184 366.98 492.174V500.508C364.216 501.543 361.47 502.064 358.743 502.064C355.507 502.064 352.986 501.184 351.183 499.426C349.38 497.668 348.48 495.217 348.48 492.072V460.936H342.105V452.936H348.48L349.339 437.564Z" fill="#31286B"/>
<path d="M429.027 496.439C422.799 500.189 417.48 502.064 413.062 502.064C406.334 502.064 401.148 499.65 397.499 494.822C393.85 489.994 392.025 484.178 392.025 477.381C392.025 470.045 394.03 463.971 398.04 459.158C402.048 454.345 407.005 451.939 412.911 451.939C418.31 451.939 422.64 453.922 425.893 457.891C429.145 461.861 430.776 467.07 430.776 473.518V477.064H401.775V478.777C401.775 483.043 402.95 486.553 405.3 489.307C407.65 492.062 410.441 493.439 413.675 493.439C418.308 493.439 423.423 490.764 429.026 485.414L429.027 496.439ZM402.527 469.439H420.777C420.543 466.273 419.748 463.898 418.394 462.314C417.04 460.732 415.111 459.939 412.605 459.939C410.463 459.939 408.549 460.732 406.863 462.314C405.176 463.898 403.73 466.273 402.527 469.439Z" fill="#31286B"/>
<path d="M489.889 498.941C486.119 501.023 482.32 502.064 478.484 502.064C472.359 502.064 467.393 499.793 463.592 495.25C459.789 490.707 457.889 484.869 457.889 477.734C457.889 470.262 459.908 464.096 463.947 459.234C467.984 454.371 473.031 451.939 479.09 451.939C482.32 451.939 485.92 452.883 489.891 454.771V465.084C486.326 462.154 483.213 460.689 480.557 460.689C476.789 460.689 473.697 462.262 471.275 465.412C468.852 468.56 467.641 472.457 467.641 477.102C467.641 481.748 468.818 485.613 471.172 488.693C473.527 491.775 476.387 493.314 479.75 493.314C482.945 493.314 486.324 491.834 489.891 488.871L489.889 498.941Z" fill="#31286B"/>
<path d="M519.234 455.869C524.102 453.25 528.873 451.939 533.543 451.939C536.531 451.939 539.133 452.488 541.35 453.585C543.568 454.682 545.414 456.372 546.894 458.651C548.371 460.931 549.111 463.626 549.111 466.733V490.6C549.111 492.662 549.934 493.691 551.584 493.691C552.561 493.691 553.486 493.369 554.361 492.721V501.045C552.209 501.475 550.141 501.691 548.162 501.691C542.935 501.691 540.168 499.652 539.861 495.572C538.33 497.719 536.664 499.342 534.867 500.43C533.068 501.518 531.119 502.066 529.021 502.066C524.791 502.066 521.393 500.584 518.832 497.619C516.268 494.654 514.986 491.047 514.986 486.799C514.986 476.824 523.111 471.246 539.361 470.068V468.662C539.361 466.182 538.629 464.172 537.164 462.631C535.699 461.09 533.701 460.318 531.172 460.318C527.676 460.318 523.697 462.143 519.236 465.797L519.234 455.869ZM539.359 477.439C533.402 478.08 529.473 479.182 527.578 480.75C525.682 482.317 524.734 484.313 524.734 486.738C524.734 488.793 525.375 490.529 526.656 491.943C527.936 493.357 529.557 494.064 531.523 494.064C533.85 494.064 535.74 493.086 537.186 491.133C538.633 489.18 539.359 486.5 539.359 483.098V477.439Z" fill="#31286B"/>
<path d="M16.334 541.282H25.023L32.773 571.376L40.523 541.282H48.906L36.711 581.282H28.586L16.334 541.282Z" fill="#31286B"/>
<path d="M59.013 522.657C60.443 522.657 61.558 523.161 62.359 524.169C63.158 525.177 63.558 526.452 63.558 527.991C63.558 529.587 63.144 530.868 62.316 531.833C61.488 532.8 60.429 533.282 59.136 533.282C57.759 533.282 56.671 532.763 55.874 531.728C55.077 530.694 54.679 529.448 54.683 527.991C54.681 526.394 55.115 525.108 55.984 524.128C56.851 523.146 57.861 522.657 59.013 522.657ZM55.058 541.282H63.183V581.282H55.058V541.282Z" fill="#31286B"/>
<path d="M82.867 547.19C84.055 544.97 85.351 543.304 86.76 542.196C88.166 541.087 89.699 540.532 91.356 540.532C92.487 540.532 93.811 540.812 95.331 541.374V549.495C93.946 548.853 92.632 548.532 91.386 548.532C88.894 548.532 86.845 549.605 85.24 551.753C83.635 553.901 82.832 556.493 82.832 559.532V581.282H74.707V541.407H82.207L82.867 547.19Z" fill="#31286B"/>
<path d="M108.999 528.407H116.036V541.282H123.661V547.907H116.036V571.788C116.036 572.855 116.331 573.665 116.921 574.212C117.511 574.759 118.396 575.032 119.575 575.032C120.782 575.032 122.143 574.612 123.661 573.771V580.733C121.364 581.597 119.081 582.032 116.813 582.032C114.124 582.032 112.03 581.302 110.532 579.844C109.034 578.385 108.286 576.352 108.286 573.742V547.906H102.911V541.281H108.286L108.999 528.407Z" fill="#31286B"/>
<path d="M130.513 541.282H138.388V568.265C138.388 570.103 138.849 571.608 139.771 572.778C140.693 573.948 141.992 574.532 143.671 574.532C145.982 574.532 147.888 573.347 149.388 570.981C150.888 568.614 151.638 565.622 151.638 562.001V541.282H159.763V581.282H152.013L151.599 575.993C150.161 577.993 148.609 579.499 146.939 580.513C145.267 581.526 143.466 582.034 141.533 582.034C138.053 582.034 135.345 580.884 133.412 578.579C131.478 576.276 130.514 573.1 130.514 569.052L130.513 541.282Z" fill="#31286B"/>
<path d="M171.74 543.792C175.814 541.62 179.806 540.532 183.713 540.532C186.213 540.532 188.393 540.987 190.248 541.896C192.103 542.806 193.648 544.209 194.885 546.099C196.122 547.99 196.74 550.224 196.74 552.8V572.593C196.74 574.302 197.426 575.156 198.801 575.156C199.614 575.156 200.385 574.887 201.115 574.35V581.246C199.334 581.6 197.623 581.779 195.984 581.779C191.658 581.779 189.369 580.074 189.115 576.662C187.83 578.437 186.431 579.775 184.924 580.678C183.414 581.578 181.779 582.031 180.02 582.031C176.469 582.031 173.62 580.803 171.467 578.346C169.315 575.891 168.24 572.906 168.24 569.387C168.24 561.125 175.031 556.506 188.615 555.531V554.377C188.615 552.342 188 550.693 186.771 549.428C185.542 548.164 183.869 547.532 181.748 547.532C178.816 547.532 175.48 549.03 171.74 552.026V543.792ZM188.615 561.657C183.625 562.187 180.336 563.099 178.748 564.394C177.158 565.692 176.365 567.341 176.365 569.345C176.365 571.046 176.9 572.483 177.974 573.653C179.046 574.823 180.406 575.407 182.05 575.407C184.001 575.407 185.583 574.599 186.796 572.983C188.007 571.368 188.614 569.153 188.614 566.337L188.615 561.657Z" fill="#31286B"/>
<path d="M208.779 522.657H216.904V581.282H208.779V522.657Z" fill="#31286B"/>
<path d="M279.643 577.407C274.448 580.491 270.006 582.032 266.321 582.032C260.708 582.032 256.378 580.034 253.335 576.036C250.29 572.038 248.769 567.223 248.769 561.595C248.769 555.524 250.437 550.493 253.773 546.509C257.109 542.526 261.236 540.532 266.15 540.532C270.646 540.532 274.248 542.171 276.957 545.448C279.664 548.724 281.02 553.028 281.02 558.354V561.282H256.895V562.694C256.895 566.212 257.875 569.106 259.838 571.376C261.799 573.647 264.131 574.782 266.83 574.782C270.697 574.782 274.969 572.556 279.644 568.104L279.643 577.407ZM257.518 555.032H272.643C272.448 552.407 271.789 550.437 270.668 549.126C269.547 547.815 267.947 547.157 265.869 547.157C264.096 547.157 262.51 547.812 261.111 549.126C259.712 550.44 258.514 552.407 257.518 555.032Z" fill="#31286B"/>
<path d="M316.047 546.403C317.195 544.446 318.57 542.978 320.17 542.001C321.768 541.022 323.592 540.532 325.641 540.532C328.614 540.532 331.02 541.565 332.858 543.632C334.694 545.698 335.615 548.38 335.615 551.673V581.282H327.49V553.253C327.49 551.612 327.115 550.331 326.365 549.411C325.615 548.493 324.641 548.032 323.449 548.032C321.641 548.032 320.094 548.958 318.803 550.808C317.509 552.661 316.865 554.728 316.865 557.011V581.282H308.74V554.077C308.74 552.063 308.389 550.552 307.692 549.544C306.996 548.536 305.951 548.032 304.555 548.032C302.77 548.032 301.231 548.907 299.934 550.657C298.637 552.407 297.99 554.483 297.99 556.888V581.282H290.24V541.282H297.365L298.039 545.771C299.244 544.011 300.584 542.7 302.058 541.833C303.531 540.966 305.15 540.532 306.918 540.532C308.965 540.532 310.744 541.021 312.261 542.001C313.775 542.979 315.035 544.446 316.047 546.403Z" fill="#31286B"/>
<path d="M366.803 570.024C371.116 573.28 375.131 574.907 378.854 574.907C381.166 574.907 383.067 574.386 384.561 573.339C386.055 572.292 386.803 570.987 386.803 569.425C386.803 568.03 386.182 566.901 384.94 566.034C383.669 565.198 381.467 564.382 378.336 563.585C370.648 561.636 366.806 558.044 366.806 552.81C366.806 549.22 368.221 546.276 371.053 543.979C373.885 541.681 377.431 540.534 381.687 540.534C384.926 540.534 388.633 541.577 392.805 543.659V552.292C388.74 549.038 385.156 547.409 382.055 547.409C380.176 547.409 378.521 547.831 377.084 548.673C375.646 549.517 374.93 550.669 374.93 552.132C374.93 553.32 375.515 554.278 376.685 555.009C377.853 555.741 380.053 556.55 383.289 557.433C387.068 558.497 389.961 559.853 391.967 561.497C393.944 563.171 394.932 565.526 394.932 568.565C394.932 572.552 393.444 575.794 390.469 578.29C387.492 580.786 383.817 582.034 379.438 582.034C375.311 582.034 371.1 580.827 366.807 578.409V570.025H366.803V570.024Z" fill="#31286B"/>
<path d="M404.154 543.792C408.228 541.62 412.22 540.532 416.127 540.532C418.627 540.532 420.807 540.987 422.662 541.896C424.516 542.806 426.061 544.209 427.299 546.099C428.536 547.99 429.154 550.224 429.154 552.8V572.593C429.154 574.302 429.84 575.156 431.215 575.156C432.028 575.156 432.799 574.887 433.529 574.35V581.246C431.748 581.6 430.037 581.779 428.397 581.779C424.072 581.779 421.783 580.074 421.529 576.662C420.244 578.437 418.845 579.775 417.338 580.678C415.828 581.578 414.193 582.031 412.434 582.031C408.883 582.031 406.035 580.803 403.881 578.346C401.729 575.891 400.654 572.906 400.654 569.387C400.654 561.125 407.445 556.506 421.029 555.531V554.377C421.029 552.342 420.414 550.693 419.185 549.428C417.956 548.164 416.283 547.532 414.162 547.532C411.23 547.532 407.894 549.03 404.154 552.026V543.792ZM421.029 561.657C416.039 562.187 412.75 563.099 411.162 564.394C409.572 565.692 408.779 567.341 408.779 569.345C408.779 571.046 409.314 572.483 410.388 573.653C411.459 574.823 412.82 575.407 414.463 575.407C416.414 575.407 417.996 574.599 419.209 572.983C420.42 571.368 421.026 569.153 421.026 566.337V561.656H421.029V561.657Z" fill="#31286B"/>
<path d="M440.694 541.282H448.569V568.265C448.569 570.103 449.03 571.608 449.952 572.778C450.874 573.948 452.173 574.532 453.851 574.532C456.163 574.532 458.069 573.347 459.569 570.981C461.069 568.614 461.819 565.622 461.819 562.001V541.282H469.944V581.282H462.194L461.78 575.993C460.342 577.993 458.79 579.499 457.12 580.513C455.448 581.526 453.647 582.034 451.714 582.034C448.235 582.034 445.526 580.884 443.593 578.579C441.659 576.276 440.696 573.1 440.696 569.052L440.694 541.282ZM457.231 524.032H465.319L456.224 536.407H450.944L457.231 524.032Z" fill="#31286B"/>
<path d="M502.921 522.657H511.046V581.282H503.296L502.761 575.849C501.526 577.896 500.091 579.44 498.458 580.476C496.825 581.511 495.007 582.032 493.003 582.032C488.831 582.032 485.482 580.048 482.958 576.077C480.433 572.108 479.171 567.378 479.171 561.888C479.171 556.122 480.579 551.12 483.398 546.886C486.217 542.653 489.851 540.532 494.3 540.532C495.874 540.532 497.38 540.853 498.819 541.497C500.257 542.14 501.624 543.101 502.923 544.388L502.921 522.657ZM502.921 551.991C501.769 550.575 500.618 549.519 499.466 548.825C498.315 548.13 497.151 547.782 495.972 547.782C493.339 547.782 491.237 549.116 489.659 551.782C488.083 554.45 487.296 557.685 487.296 561.491C487.296 565.185 488.007 568.325 489.433 570.907C490.86 573.491 492.737 574.782 495.069 574.782C497.454 574.782 499.358 573.54 500.784 571.053C502.21 568.567 502.923 565.615 502.923 562.199L502.921 551.991Z" fill="#31286B"/>
<path d="M551.446 577.407C546.251 580.491 541.808 582.032 538.124 582.032C532.511 582.032 528.181 580.034 525.138 576.036C522.093 572.038 520.573 567.223 520.573 561.595C520.573 555.524 522.241 550.493 525.577 546.509C528.913 542.526 533.04 540.532 537.954 540.532C542.45 540.532 546.052 542.171 548.761 545.448C551.468 548.724 552.824 553.028 552.824 558.354V561.282H528.699V562.694C528.699 566.212 529.678 569.106 531.641 571.376C533.602 573.647 535.934 574.782 538.633 574.782C542.5 574.782 546.773 572.556 551.447 568.104L551.446 577.407ZM529.321 555.032H544.446C544.251 552.407 543.592 550.437 542.47 549.126C541.348 547.815 539.749 547.157 537.671 547.157C535.899 547.157 534.313 547.812 532.913 549.126C531.513 550.44 530.317 552.407 529.321 555.032Z" fill="#31286B"/>
</svg>
