<svg width="167" height="30" viewBox="0 0 167 30" fill="none" xmlns="http://www.w3.org/2000/svg">
<path d="M69.1094 24.375C68.2135 24.8438 67.2969 25.2188 66.3594 25.5C65.4219 25.7812 64.474 25.9792 63.5156 26.0938C62.5677 26.2188 61.5833 26.2812 60.5625 26.2812C58.6771 26.2812 56.9844 26.0208 55.4844 25.5C53.9948 24.9792 52.6979 24.2135 51.5938 23.2031C50.5 22.1823 49.6771 20.9948 49.125 19.6406C48.5833 18.276 48.3125 16.7812 48.3125 15.1562C48.3125 13.2917 48.6354 11.6615 49.2812 10.2656C49.9271 8.85938 50.8281 7.69271 51.9844 6.76562C53.151 5.83854 54.474 5.15625 55.9531 4.71875C57.4427 4.27083 59.0104 4.04688 60.6562 4.04688C63.1146 4.04688 65.901 4.59375 69.0156 5.6875V11.4375C67.9427 10.7708 66.8802 10.2188 65.8281 9.78125C64.7865 9.33333 63.5573 9.10938 62.1406 9.10938C60.8802 9.10938 59.7031 9.35938 58.6094 9.85938C57.5156 10.3594 56.6354 11.0729 55.9688 12C55.3021 12.9271 54.9688 14.0104 54.9688 15.25C54.9688 16.3438 55.2604 17.349 55.8438 18.2656C56.4271 19.1719 57.2344 19.8958 58.2656 20.4375C59.3073 20.9688 60.4792 21.2344 61.7812 21.2344C62.8333 21.2344 63.8281 21.1094 64.7656 20.8594C65.7031 20.599 66.4896 20.3125 67.125 20C67.7708 19.6875 68.4323 19.3177 69.1094 18.8906V24.375Z" fill="#009EE0"/>
<path d="M99.2812 26H92.5938L90.8281 21.6094H81.4219L79.625 26H72.9375L82.5156 4.34375H89.7344L99.2812 26ZM89.3281 17.8438L86.1562 9.9375L82.9531 17.8438H89.3281Z" fill="#009EE0"/>
<path d="M122.906 11.1562C122.906 11.9583 122.766 12.7448 122.484 13.5156C122.214 14.276 121.771 14.9896 121.156 15.6562C120.542 16.3125 119.708 16.849 118.656 17.2656C117.615 17.6719 116.385 17.875 114.969 17.875H110.688V26H104.156V4.34375H114.969C116.385 4.34375 117.615 4.55208 118.656 4.96875C119.708 5.38542 120.542 5.92708 121.156 6.59375C121.771 7.26042 122.214 7.98438 122.484 8.76562C122.766 9.54688 122.906 10.3438 122.906 11.1562ZM116.25 11.1875C116.25 10.1562 115.943 9.45312 115.328 9.07812C114.724 8.69271 113.635 8.5 112.062 8.5H110.688V13.7188H112.094C113.177 13.7188 114.01 13.651 114.594 13.5156C115.177 13.3802 115.599 13.1302 115.859 12.7656C116.12 12.401 116.25 11.875 116.25 11.1875Z" fill="#009EE0"/>
<path d="M144.859 26H128.531V4.34375H144.594V8.6875H135.062V12.6562H144.156V17.0156H135.062V21.6406H144.859V26Z" fill="#009EE0"/>
<path d="M166.391 19.7031C166.391 21.0573 166.042 22.2292 165.344 23.2188C164.656 24.2083 163.693 24.9688 162.453 25.5C161.214 26.0208 159.792 26.2812 158.188 26.2812C157.74 26.2812 157.188 26.25 156.531 26.1875C155.885 26.1354 155.021 25.9792 153.938 25.7188C152.865 25.4583 151.745 25.0729 150.578 24.5625V19.25C151.672 19.9271 152.745 20.4896 153.797 20.9375C154.859 21.3854 155.995 21.6094 157.203 21.6094C158.318 21.6094 159.036 21.4271 159.359 21.0625C159.693 20.6875 159.859 20.3385 159.859 20.0156C159.859 19.4323 159.578 18.9427 159.016 18.5469C158.453 18.1406 157.635 17.724 156.562 17.2969C155.375 16.7969 154.333 16.2552 153.438 15.6719C152.542 15.0781 151.807 14.3385 151.234 13.4531C150.672 12.5677 150.391 11.5208 150.391 10.3125C150.391 9.14583 150.677 8.09375 151.25 7.15625C151.823 6.20833 152.698 5.45312 153.875 4.89062C155.052 4.32812 156.49 4.04688 158.188 4.04688C159.396 4.04688 160.51 4.16667 161.531 4.40625C162.562 4.63542 163.411 4.89583 164.078 5.1875C164.745 5.47917 165.203 5.70833 165.453 5.875V10.9531C164.568 10.3177 163.578 9.75 162.484 9.25C161.401 8.75 160.24 8.5 159 8.5C158.188 8.5 157.599 8.65625 157.234 8.96875C156.87 9.28125 156.688 9.66667 156.688 10.125C156.688 10.5521 156.87 10.9219 157.234 11.2344C157.599 11.5469 158.25 11.9271 159.188 12.375C160.854 13.1562 162.188 13.8594 163.188 14.4844C164.188 15.1094 164.969 15.8333 165.531 16.6562C166.104 17.4688 166.391 18.4844 166.391 19.7031Z" fill="#009EE0"/>
<path d="M22.0979 8.70781C22.1498 8.62881 22.2245 8.56783 22.2993 8.52505C22.4286 8.45111 22.5918 8.40907 22.7635 8.40392L22.9346 8.35578L22.9347 8.35574C24.7356 7.85047 26.6061 7.54901 28.4686 7.42537L22.0979 8.70781ZM22.0979 8.70781C20.3959 8.57185 18.6842 8.47557 16.9728 8.45145C20.9882 5.71887 25.6746 3.69377 30.2714 2.69836L30.2714 2.69836C31.9774 2.32878 33.7135 2.09007 35.4554 2.00831L35.4556 2.00831L35.5054 2.00592C35.6367 2.14805 35.8251 2.23689 36.0335 2.23689C36.43 2.23689 36.7519 1.91501 36.7519 1.51844C36.7519 1.12188 36.43 0.8 36.0335 0.8C35.8037 0.8 35.599 0.908081 35.4678 1.07576L35.4121 1.07836L35.4121 1.07836C33.6164 1.16256 31.829 1.40844 30.0745 1.78831C24.9377 2.90051 19.7027 5.26189 15.3603 8.45143C13.5958 8.47663 11.8084 8.59131 10.0621 8.87937L10.0621 8.87938C7.22325 9.34797 4.08833 10.3492 2.17814 12.7232C1.67582 13.3468 1.28075 14.039 0.992132 14.7847C0.991994 14.785 0.991856 14.7854 0.991718 14.7858L0.985913 14.8002L0.979889 14.8153L0.976371 14.8311L0.97272 14.8476C0.731782 15.8587 0.723632 16.9003 1.07161 17.9034L1.07163 17.9034C1.4884 19.1035 2.34845 20.0616 3.38083 20.828C4.38331 21.5722 5.55851 22.1433 6.67659 22.5852C6.70052 22.6908 6.7274 22.7967 6.75784 22.9025C7.40458 25.1699 9.2626 26.6017 11.2945 27.4892C14.5196 28.898 18.6592 29.2039 22.0981 29.2M22.0979 8.70781L11.3745 27.3059C14.5595 28.6973 18.6639 29.0039 22.0979 29M30.1912 27.8827C27.5392 28.4377 24.8176 28.7709 22.1198 28.9993L22.1085 29H22.0979M30.1912 27.8827L30.2321 28.0785M30.1912 27.8827L30.2322 28.0785C30.2322 28.0785 30.2321 28.0785 30.2321 28.0785M30.1912 27.8827C32.1116 27.4811 34.0719 26.9488 35.8735 26.1628C37.0597 25.645 38.2433 24.9845 39.2185 24.1209M30.2321 28.0785C27.5694 28.6357 24.8391 28.9698 22.1367 29.1986L22.1315 29.199L22.1315 29.199L22.1203 29.1996L22.1085 29.2003V29.2H22.0981M30.2321 28.0785L44.0339 20.7543M22.0981 29.2L22.0979 29M22.0981 29.2H22.0979V29M39.2185 24.1209L39.2905 24.3075C39.3016 24.3032 39.3128 24.2988 39.324 24.2945C39.333 24.2866 39.3421 24.2786 39.3511 24.2706L39.2185 24.1209ZM39.2185 24.1209C41.0772 23.404 42.7865 22.3193 43.8659 20.6458M43.8659 20.6458L44.0339 20.7543M43.8659 20.6458L44.034 20.7542C44.034 20.7542 44.0339 20.7543 44.0339 20.7543M43.8659 20.6458C44.4534 19.7363 44.8039 18.728 44.9579 17.6592M44.0339 20.7543L44.5037 13.341M44.9579 17.6592L45.1558 17.6882C45.1558 17.688 45.1558 17.6879 45.1558 17.6878L44.9579 17.6592ZM44.9579 17.6592C45.171 16.2015 44.9951 14.7524 44.3253 13.4314M44.3253 13.4314L44.5037 13.341M44.3253 13.4314L44.5036 13.3409C44.5037 13.3409 44.5037 13.341 44.5037 13.341M44.3253 13.4314C43.1025 11.0177 40.5448 9.55001 38.0668 8.71625M44.5037 13.341L28.4819 7.62493C31.6383 7.4145 35.0577 7.70326 38.0668 8.71625M38.1305 8.52669C35.091 7.50346 31.6445 7.21365 28.4686 7.42537L38.1305 8.52669ZM38.1305 8.52669C38.1306 8.5267 38.1306 8.5267 38.1306 8.52671L38.0668 8.71625M38.1305 8.52669L38.0668 8.71625M24.1178 9.011C23.9501 8.98333 23.7823 8.95626 23.6144 8.92977C25.216 8.51622 26.8695 8.26429 28.517 8.15466C31.6038 7.94888 34.9548 8.22901 37.8975 9.21943C40.2348 10.0061 42.6963 11.3908 43.852 13.6717L29.2419 10.2895C27.3962 9.8056 25.5129 9.43295 23.6243 9.13382C23.7883 9.09118 23.9528 9.05025 24.1178 9.011ZM24.1178 9.011C25.8566 9.2978 27.5899 9.64964 29.2926 10.096M24.1178 9.011L29.2926 10.096M29.2926 10.096C31.1826 10.5912 33.0861 11.2157 34.8603 12.0613C37.43 13.2857 40.0206 15.1303 41.0294 17.9802L41.0294 17.9802C41.3794 18.9695 41.509 20.0104 41.4556 21.0515L41.4556 21.0506L41.2558 21.0427L41.4555 21.053L29.2926 10.096ZM29.0565 10.9968L29.0564 10.9968C26.7594 10.3944 24.4023 9.96714 22.0462 9.63738C19.9342 9.46867 17.8102 9.36109 15.6944 9.37893L15.6927 9.37894C15.686 9.37894 15.6794 9.37894 15.673 9.37894C14.8332 10.0062 14.0299 10.6656 13.2705 11.3526C11.4216 13.0258 9.62802 15.0566 8.50815 17.276L8.50814 17.2761C7.78791 18.7031 7.29449 20.3341 7.49985 21.9025C7.77167 22.0029 8.03685 22.0951 8.29088 22.1792L8.2911 22.1793C10.236 22.8256 12.2795 23.277 14.3034 23.6399L29.0565 10.9968ZM29.0565 10.9968C30.8992 11.4794 32.7464 12.085 34.4598 12.9016C36.8645 14.0478 39.2485 15.7396 40.1518 18.2901C40.4527 19.1418 40.5687 20.0405 40.5288 20.9458M29.0565 10.9968L40.5288 20.9458M35.8365 25.2613L35.8365 25.2613C33.7199 25.6631 31.5324 25.819 29.389 25.8583C26.7974 25.9055 24.1935 25.7803 21.6148 25.5682L21.6064 25.5675L21.6064 25.5673L21.6033 25.5669C19.1105 25.3131 16.6106 24.9986 14.1393 24.5561C12.0806 24.1874 9.99264 23.7254 7.9979 23.0628M35.8365 25.2613L8.06074 22.8729M35.8365 25.2613C35.9788 25.2343 36.1219 25.2059 36.2657 25.176M35.8365 25.2613L36.2657 25.176M7.9979 23.0628C7.99783 23.0627 7.99776 23.0627 7.99769 23.0627L8.06074 22.8729M7.9979 23.0628C7.99795 23.0628 7.99801 23.0628 7.99807 23.0628L8.06074 22.8729M7.9979 23.0628C7.9201 23.0371 7.84148 23.0107 7.76217 22.9836M8.06074 22.8729C7.93636 22.8319 7.80991 22.789 7.68187 22.7443C7.70677 22.8253 7.73356 22.9051 7.76217 22.9836M7.76217 22.9836C7.68261 22.9564 7.60236 22.9286 7.52152 22.9C7.50003 22.8347 7.47973 22.7685 7.46065 22.7016C7.45865 22.695 7.45683 22.6883 7.455 22.6817C7.45318 22.6751 7.45135 22.6684 7.44936 22.6618L11.5876 26.8193C14.6943 28.1762 18.7356 28.4716 22.0859 28.4689L22.0691 28.2696C22.0719 28.2694 22.0746 28.2691 22.0774 28.2689M7.76217 22.9836C8.39986 24.7342 9.94453 25.8836 11.6677 26.636L11.6677 26.636C14.7316 27.9742 18.7333 28.2711 22.0774 28.2689M22.0774 28.2689C24.7426 28.043 27.4281 27.714 30.0414 27.1672C31.9185 26.7743 33.8315 26.2566 35.5811 25.4929C35.8096 25.393 36.0384 25.2875 36.2657 25.176M22.0774 28.2689L36.2657 25.176M40.5288 20.9458C40.2025 21.9511 39.5952 22.786 38.8306 23.4865C37.788 23.8776 36.6991 24.1498 35.6629 24.3466C33.6061 24.7374 31.4722 24.8889 29.3724 24.9273C26.8167 24.9736 24.2461 24.8499 21.6954 24.6406C19.2223 24.3887 16.7476 24.0774 14.3034 23.6399L40.5288 20.9458ZM40.4396 22.7549C40.3531 22.8808 40.2624 23.0035 40.1678 23.1232C40.306 23.0539 40.4426 22.982 40.5774 22.9073C40.6614 22.7868 40.7416 22.6633 40.8179 22.5368C40.6938 22.612 40.5676 22.6846 40.4396 22.7549ZM41.4347 21.168L41.2438 21.1085L41.4336 21.1717L41.4342 21.1699C41.4343 21.1693 41.4345 21.1686 41.4347 21.168ZM12.6457 10.6623L12.6456 10.6623C10.7271 12.3986 8.85789 14.5161 7.67705 16.8569C6.96171 18.2744 6.44705 19.8965 6.53062 21.5186C5.60592 21.1243 4.66917 20.6359 3.8716 20.0322C2.98736 19.3628 2.28552 18.5604 1.95136 17.5983C1.6699 16.7872 1.67489 15.9369 1.87158 15.092C2.12478 14.4457 2.46872 13.8467 2.90332 13.3065C4.62629 11.1659 7.5376 10.2396 10.2135 9.7978C11.4929 9.58675 12.7991 9.47176 14.105 9.41724C13.6038 9.82114 13.1169 10.2362 12.6457 10.6623Z" fill="#009EE0" stroke="#009EE0" stroke-width="0.4"/>
<path fill-rule="evenodd" clip-rule="evenodd" d="M23.0967 13.7327C25.3053 13.7327 27.0963 15.5246 27.0963 17.7331C27.0963 19.9417 25.3053 21.7327 23.0967 21.7327C20.8882 21.7327 19.0971 19.9417 19.0971 17.7331C19.0971 15.5246 20.8882 13.7327 23.0967 13.7327Z" fill="#009035" stroke="#009035" stroke-width="0.216"/>
</svg>
