<svg width="248" height="393" viewBox="0 0 248 393" fill="none" xmlns="http://www.w3.org/2000/svg">
<path fill-rule="evenodd" clip-rule="evenodd" d="M124.238 42.082C107.518 42.082 91.4831 48.719 79.6601 60.5332C67.8372 72.3474 61.195 88.3709 61.195 105.079V119.43H19.0809V105.079C19.0809 77.2103 30.1598 50.4831 49.8807 30.777C69.6015 11.0709 96.3487 0 124.238 0C152.128 0 178.875 11.0709 198.596 30.777C218.317 50.4831 229.396 77.2103 229.396 105.079V208.884H187.282V105.079C187.282 88.3709 180.64 72.3474 168.817 60.5332C156.994 48.719 140.958 42.082 124.238 42.082Z" fill="#F68212"/>
<path fill-rule="evenodd" clip-rule="evenodd" d="M124 187.271C78.7757 187.271 42.1141 223.905 42.1141 269.095C42.1141 314.284 78.7757 350.918 124 350.918C169.224 350.918 205.886 314.284 205.886 269.095C205.886 223.905 169.224 187.271 124 187.271ZM0 269.095C0 200.664 55.5167 145.189 124 145.189C192.483 145.189 248 200.664 248 269.095C248 337.526 192.483 393 124 393C55.5167 393 0 337.526 0 269.095Z" fill="#F68212"/>
<path d="M124.404 304.185C143.593 304.185 159.148 288.642 159.148 269.468C159.148 250.294 143.593 234.751 124.404 234.751C105.216 234.751 89.6608 250.294 89.6608 269.468C89.6608 288.642 105.216 304.185 124.404 304.185Z" fill="#F68212"/>
</svg>
