<?xml version="1.0" encoding="utf-8"?>
<!-- Generator: Adobe Illustrator 23.1.1, SVG Export Plug-In . SVG Version: 6.00 Build 0)  -->
<svg version="1.1" id="Layer_1" xmlns="http://www.w3.org/2000/svg" xmlns:xlink="http://www.w3.org/1999/xlink" x="0px" y="0px"
	 viewBox="0 0 24 24" style="enable-background:new 0 0 24 24;" xml:space="preserve">
<style type="text/css">
	.st0{fill:none;}
</style>
<path class="st0" d="M0,0h24v24H0V0z"/>
<g>
	<polygon points="11.2,14.8 12.8,14.8 12.8,11 12.8,10.8 13,10.8 16.8,10.8 16.8,9.2 13,9.2 12.8,9.2 12.8,9 12.8,5.2 11.2,5.2 
		11.2,9 11.2,9.2 11,9.2 7.2,9.2 7.2,10.8 11,10.8 11.2,10.8 11.2,11 	"/>
	<path d="M2.2,16c0,1,0.8,1.8,1.8,1.8h14h0.1l0.1,0.1l3.7,3.7V4c0-1-0.8-1.8-1.8-1.8H4C3,2.2,2.2,3,2.2,4V16z M3.8,16V4V3.8H4h16
		h0.2V4v13.2v0.5l-0.3-0.3l-1.1-1.1H4H3.8V16z"/>
</g>
</svg>
