<?xml version="1.0" encoding="utf-8"?>
<!-- Generator: Adobe Illustrator 23.1.1, SVG Export Plug-In . SVG Version: 6.00 Build 0)  -->
<svg version="1.1" id="Layer_1" xmlns="http://www.w3.org/2000/svg" xmlns:xlink="http://www.w3.org/1999/xlink" x="0px" y="0px"
	 viewBox="0 0 24 24" style="enable-background:new 0 0 24 24;" xml:space="preserve">
<style type="text/css">
	.st0{fill:none;}
</style>
<path class="st0" d="M0,0h24v24H0V0z"/>
<g>
	<path d="M18,19.7l2,2l1.1-1.1L3,2.4L1.9,3.5l1.2,1.2l0.2,0.2L3.1,5L2.3,5.7l1,1.2l0.9-0.8L4.4,6l0.1,0.1L5.3,7l0.1,0.1L5.4,7.2
		C4,8.8,3.2,10.9,3.2,13c0,4.9,3.9,8.8,8.8,8.8c2.1,0,4.2-0.8,5.8-2.2l0.1-0.1L18,19.7z M16.6,18.5c-1.3,1.1-2.9,1.7-4.6,1.7
		c-4,0-7.2-3.2-7.2-7.2c0-1.7,0.6-3.3,1.7-4.6l0.1-0.2l0.2,0.2l9.9,9.9l0.2,0.2L16.6,18.5z"/>
	<path d="M12,5.8c4,0,7.2,3.2,7.2,7.2c0,0.6-0.1,1.3-0.3,1.9l1.3,1.3c0.4-1,0.6-2.1,0.6-3.2c0-4.9-3.9-8.8-8.8-8.8
		c-1.1,0-2.2,0.2-3.2,0.6l1.3,1.3C10.7,5.9,11.4,5.8,12,5.8z"/>
	<rect x="18.2" y="1.7" transform="matrix(0.6404 -0.768 0.768 0.6404 3.3753 16.2104)" width="1.6" height="5.6"/>
</g>
</svg>
