<?xml version="1.0" encoding="utf-8"?>
<!-- Generator: Adobe Illustrator 23.1.1, SVG Export Plug-In . SVG Version: 6.00 Build 0)  -->
<svg version="1.1" id="Layer_1" xmlns="http://www.w3.org/2000/svg" xmlns:xlink="http://www.w3.org/1999/xlink" x="0px" y="0px"
	 viewBox="0 0 24 24" style="enable-background:new 0 0 24 24;" xml:space="preserve">
<style type="text/css">
	.st0{fill:none;}
</style>
<path class="st0" d="M0,0h24v24H0V0z"/>
<g>
	<path d="M18.7,8.1l-1.2,1.2c0.4,0.9,0.7,1.8,0.7,2.8c0,3.4-2.8,6.2-6.2,6.2h-0.2V18v-2.5L8.3,19l3.5,3.5V20v-0.2H12
		c4.3,0,7.8-3.5,7.8-7.8C19.8,10.6,19.4,9.3,18.7,8.1z"/>
	<path d="M12.2,5.8V6v2.5L15.7,5l-3.5-3.5V4v0.2H12c-4.3,0-7.8,3.5-7.8,7.8c0,1.4,0.4,2.7,1.1,3.9l1.2-1.2C6,13.9,5.8,13,5.8,12
		c0-3.4,2.8-6.2,6.2-6.2H12.2z"/>
</g>
</svg>
