<?xml version="1.0" encoding="utf-8"?>
<!-- Generator: Adobe Illustrator 23.1.1, SVG Export Plug-In . SVG Version: 6.00 Build 0)  -->
<svg version="1.1" id="Layer_1" xmlns="http://www.w3.org/2000/svg" xmlns:xlink="http://www.w3.org/1999/xlink" x="0px" y="0px"
	 viewBox="0 0 24 24" style="enable-background:new 0 0 24 24;" xml:space="preserve">
<style type="text/css">
	.st0{fill:none;}
</style>
<path d="M19,4.6c0.2,0,0.4,0.2,0.4,0.4v14c0,0.2-0.2,0.4-0.4,0.4H5c-0.2,0-0.4-0.2-0.4-0.4V5c0-0.2,0.2-0.4,0.4-0.4H19 M19,3H5
	C3.9,3,3,3.9,3,5v14c0,1.1,0.9,2,2,2h14c1.1,0,2-0.9,2-2V5C21,3.9,20.1,3,19,3L19,3z"/>
<path class="st0" d="M0,0h24v24H0V0z"/>
<polygon points="10.1,14.3 10,14.5 9.8,14.3 7.4,11.9 6.3,13 10,16.7 17.7,9 16.6,7.9 "/>
</svg>
