<?xml version="1.0" encoding="utf-8"?>
<!-- Generator: Adobe Illustrator 23.1.1, SVG Export Plug-In . SVG Version: 6.00 Build 0)  -->
<svg version="1.1" id="Layer_1" xmlns="http://www.w3.org/2000/svg" xmlns:xlink="http://www.w3.org/1999/xlink" x="0px" y="0px"
	 viewBox="0 0 24 24" style="enable-background:new 0 0 24 24;" xml:space="preserve">
<style type="text/css">
	.st0{fill:none;}
</style>
<path class="st0" d="M0,0h24v24H0V0z"/>
<g>
	<polygon points="8.5,15.7 7.7,19 16.3,19 15.5,15.7 	"/>
	<path d="M20.6,12.7V2.6c0-0.4-0.4-0.8-0.8-0.8H4.2c-0.4,0-0.8,0.4-0.8,0.8v10.1l-1.6,7.7c0,0.2,0,0.5,0.2,0.7s0.4,0.3,0.6,0.3h18.8
		c0.2,0,0.5-0.1,0.6-0.3c0.2-0.2,0.2-0.4,0.2-0.7L20.6,12.7z M5,3.4H19V12H5V3.4z M3.6,19.8l1.3-6.2h14.2l1.3,6.2H3.6z"/>
</g>
</svg>
