<?xml version="1.0" encoding="utf-8"?>
<!-- Generator: Adobe Illustrator 23.1.1, SVG Export Plug-In . SVG Version: 6.00 Build 0)  -->
<svg version="1.1" id="Layer_1" xmlns="http://www.w3.org/2000/svg" xmlns:xlink="http://www.w3.org/1999/xlink" x="0px" y="0px"
	 viewBox="0 0 24 24" style="enable-background:new 0 0 24 24;" xml:space="preserve">
<style type="text/css">
	.st0{fill:none;}
</style>
<path class="st0" d="M0,0h24v24H0V0z"/>
<g>
	<path d="M9.1,15.9h-7v-1.8h7v-2.9l3.7,3.8l-3.7,3.8V15.9z M11.1,9l3.7-3.8v2.9h7v1.8h-7v2.9L11.1,9z"/>
	<path d="M14.8,5.5V8v0.2H15h6.8v1.6H15h-0.2V10v2.5L11.3,9L14.8,5.5 M9.2,11.5l3.5,3.5l-3.5,3.5V16v-0.2H9H2.2v-1.6H9h0.2V14V11.5
		 M15,5l-4,4l4,4v-3h7V8h-7V5L15,5z M9,11v3H2v2h7v3l4-4L9,11L9,11z"/>
</g>
</svg>
