<?xml version="1.0" encoding="utf-8"?>
<!-- Generator: Adobe Illustrator 23.1.1, SVG Export Plug-In . SVG Version: 6.00 Build 0)  -->
<svg version="1.1" id="Layer_1" xmlns="http://www.w3.org/2000/svg" xmlns:xlink="http://www.w3.org/1999/xlink" x="0px" y="0px"
	 viewBox="0 0 24 24" style="enable-background:new 0 0 24 24;" xml:space="preserve">
<style type="text/css">
	.st0{fill:none;}
</style>
<path class="st0" d="M0,0h24v24H0V0z"/>
<path d="M19.4,4.6v2.8h-4.8V4.6H19.4 M9.4,4.6v6.8H4.6V4.6H9.4 M19.4,12.6v6.8h-4.8v-6.8H19.4 M9.4,16.6v2.8H4.6v-2.8H9.4 M21,3h-8
	v6h8V3L21,3z M11,3H3v10h8V3L11,3z M21,11h-8v10h8V11L21,11z M11,15H3v6h8V15L11,15z"/>
</svg>
