<?xml version="1.0" encoding="utf-8"?>
<!-- Generator: Adobe Illustrator 23.1.1, SVG Export Plug-In . SVG Version: 6.00 Build 0)  -->
<svg version="1.1" id="Layer_1" xmlns="http://www.w3.org/2000/svg" xmlns:xlink="http://www.w3.org/1999/xlink" x="0px" y="0px"
	 viewBox="0 0 24 24" style="enable-background:new 0 0 24 24;" xml:space="preserve">
<style type="text/css">
	.st0{fill:none;}
</style>
<path class="st0" d="M0,0h24v24H0V0z"/>
<path d="M22.6,2H1.4C1,2,0.7,2.3,0.7,2.8v15.4c0,0.4,0.3,0.8,0.8,0.8h9.8v1.5H4.8V22h11v-1.6h-3v-1.5h3v-1.6H2.3V3.6h19.4v6.9h1.6
	V2.8C23.3,2.3,23,2,22.6,2z"/>
<path d="M22.3,13.1V21h-4.5v-7.9H22.3 M22.8,12.1h-5.4c-0.3,0-0.6,0.2-0.6,0.6v8.8c0,0.3,0.2,0.6,0.6,0.6h5.4c0.3,0,0.6-0.2,0.6-0.6
	v-8.8C23.3,12.3,23.1,12.1,22.8,12.1L22.8,12.1z"/>
<circle cx="20.1" cy="19.5" r="0.5"/>
</svg>
