<?xml version="1.0" encoding="utf-8"?>
<!-- Generator: Adobe Illustrator 23.1.1, SVG Export Plug-In . SVG Version: 6.00 Build 0)  -->
<svg version="1.1" id="Layer_1" xmlns="http://www.w3.org/2000/svg" xmlns:xlink="http://www.w3.org/1999/xlink" x="0px" y="0px"
	 viewBox="0 0 24 24" style="enable-background:new 0 0 24 24;" xml:space="preserve">
<style type="text/css">
	.st0{fill:none;}
</style>
<path class="st0" d="M0,0h24v24H0V0z"/>
<g>
	<path d="M20.6,17.3v1.6c0,0.9-0.7,1.6-1.6,1.6H5.1c-0.9,0-1.6-0.7-1.6-1.6v-1.6H1.8v1.6c0,1.8,1.5,3.2,3.2,3.2h13.8
		c1.8,0,3.2-1.5,3.2-3.2v-1.6H20.6z"/>
	<path d="M12,18c0.2,0,0.4-0.1,0.6-0.2l6-6l-1.1-1.1l-4.6,4.6V2.6h-1.6v12.6l-4.6-4.6l-1.1,1.1l6,6C11.6,17.9,11.8,18,12,18z"/>
</g>
</svg>
