<?xml version="1.0" encoding="utf-8"?>
<!-- Generator: Adobe Illustrator 23.1.1, SVG Export Plug-In . SVG Version: 6.00 Build 0)  -->
<svg version="1.1" id="Layer_1" xmlns="http://www.w3.org/2000/svg" xmlns:xlink="http://www.w3.org/1999/xlink" x="0px" y="0px"
	 viewBox="0 0 24 24" style="enable-background:new 0 0 24 24;" xml:space="preserve">
<style type="text/css">
	.st0{fill:none;}
</style>
<path class="st0" d="M0,0h24v24H0V0z"/>
<path d="M21.8,8c0-0.6-0.3-1.2-0.8-1.5L12,1.2L3.1,6.5C2.5,6.8,2.2,7.4,2.2,8v10c0,1,0.8,1.8,1.8,1.8h16c1,0,1.8-0.8,1.8-1.8L21.8,8
	z M3.9,7.8l8-4.7L12,3.1l0.1,0.1l8,4.7l0.1,0.1V8v0.1l-0.1,0.1l-8,5L12,13.2l-0.1-0.1l-8-5L3.6,8L3.9,7.8z M20,18.2H4H3.8V18v-7.7
	V10l0.3,0.2l7.9,5l7.9-4.9l0.3-0.2l0,0.4l0,7.6l0,0.2H20z"/>
</svg>
