<?xml version="1.0" encoding="utf-8"?>
<!-- Generator: Adobe Illustrator 23.1.1, SVG Export Plug-In . SVG Version: 6.00 Build 0)  -->
<svg version="1.1" id="Layer_1" xmlns="http://www.w3.org/2000/svg" xmlns:xlink="http://www.w3.org/1999/xlink" x="0px" y="0px"
	 viewBox="0 0 24 24" style="enable-background:new 0 0 24 24;" xml:space="preserve">
<style type="text/css">
	.st0{fill:none;}
</style>
<path class="st0" d="M0,0h24v24H0V0z"/>
<path d="M14.1,8.5l1.5,1.5l-9.5,9.5H4.6v-1.5L14.1,8.5 M17.7,3c-0.2,0-0.5,0.1-0.7,0.3l-1.8,1.8l3.8,3.7L20.7,7c0.4-0.4,0.4-1,0-1.4
	l-2.3-2.3C18.2,3.1,17.9,3,17.7,3L17.7,3z M14.1,6.2L3,17.2V21h3.7L17.8,9.9L14.1,6.2L14.1,6.2z"/>
</svg>
