<?xml version="1.0" encoding="utf-8"?>
<!-- Generator: Adobe Illustrator 23.1.1, SVG Export Plug-In . SVG Version: 6.00 Build 0)  -->
<svg version="1.1" id="Layer_1" xmlns="http://www.w3.org/2000/svg" xmlns:xlink="http://www.w3.org/1999/xlink" x="0px" y="0px"
	 viewBox="0 0 24 24" style="enable-background:new 0 0 24 24;" xml:space="preserve">
<style type="text/css">
	.st0{fill:none;}
</style>
<path class="st0" d="M0,0h24v24H0V0z"/>
<g>
	<path d="M15.8,2.8V1.2H4C3,1.2,2.2,2,2.2,3v13.8h1.6V3V2.8H4H15.8z"/>
	<path d="M20.8,11.1l-5.9-5.9H8C7,5.2,6.2,6,6.2,7l0,14c0,1,0.8,1.8,1.8,1.8h11c1,0,1.8-0.8,1.8-1.8V11.1z M19.2,12v9v0.2H19H8H7.8
		V21V7V6.8H8h6h0.2V7v4.8H19h0.2V12z"/>
</g>
</svg>
