<?xml version="1.0" encoding="utf-8"?>
<!-- Generator: Adobe Illustrator 23.1.1, SVG Export Plug-In . SVG Version: 6.00 Build 0)  -->
<svg version="1.1" id="Layer_1" xmlns="http://www.w3.org/2000/svg" xmlns:xlink="http://www.w3.org/1999/xlink" x="0px" y="0px"
	 viewBox="0 0 24 24" style="enable-background:new 0 0 24 24;" xml:space="preserve">
<style type="text/css">
	.st0{fill:none;}
</style>
<path class="st0" d="M0,0h24v24H0V0z"/>
<g>
	<path d="M6.2,4.8c0.1,0,0.3,0,0.4-0.1c1.7-0.9,3.5-1.4,5.4-1.4c1.9,0,3.6,0.4,5.4,1.4c0.1,0.1,0.2,0.1,0.4,0.1
		c0.3,0,0.6-0.2,0.7-0.4c0.1-0.2,0.1-0.4,0.1-0.6c-0.1-0.2-0.2-0.4-0.4-0.5c-2.1-1.1-4-1.6-6.2-1.6c-2.2,0-4.3,0.5-6.2,1.6
		C5.4,3.5,5.3,4,5.5,4.4C5.6,4.6,5.9,4.8,6.2,4.8z"/>
	<path d="M8.5,18.4c-0.6-1-0.9-2.3-0.9-3.7c0-2.3,2-4.1,4.4-4.1s4.4,1.8,4.4,4.1c0,0.4,0.4,0.8,0.8,0.8c0.4,0,0.8-0.4,0.8-0.8
		c0-3.1-2.7-5.7-6-5.7s-6,2.6-6,5.7c0,1.7,0.4,3.2,1.1,4.5c0.7,1.2,1.2,1.8,2.1,2.7c0.1,0.1,0.3,0.2,0.6,0.2c0.2,0,0.4-0.1,0.6-0.2
		c0.3-0.3,0.3-0.8,0-1.1C9.6,19.9,9.1,19.5,8.5,18.4z"/>
	<path d="M21.1,8.7c-1-1.4-2.3-2.5-3.9-3.3c-1.6-0.8-3.4-1.2-5.3-1.2c-1.9,0-3.7,0.4-5.3,1.3C5.2,6.2,3.9,7.3,2.8,8.8
		C2.6,9.1,2.7,9.6,3,9.9C3.2,10,3.3,10,3.5,10C3.8,10,4,9.9,4.2,9.7c0.9-1.2,2-2.2,3.3-2.8c1.4-0.7,2.9-1.1,4.6-1.1
		c1.6,0,3.2,0.4,4.6,1.1c1.3,0.7,2.4,1.6,3.3,2.8C20,9.9,20.2,10,20.5,10c0.2,0,0.3-0.1,0.5-0.1c0.2-0.1,0.3-0.3,0.3-0.5
		C21.3,9.1,21.3,8.9,21.1,8.7z"/>
	<path d="M18.1,18.5c0,0-0.1,0-0.1,0c-0.4,0.1-0.8,0.1-1,0.1c-0.9,0-1.7-0.2-2.4-0.7c-1.1-0.8-1.8-2-1.8-3.3c0-0.4-0.4-0.8-0.8-0.8
		s-0.8,0.4-0.8,0.8c0,1.8,0.9,3.6,2.5,4.6c0.9,0.6,2,0.9,3.3,0.9c0.1,0,0.7,0,1.3-0.1c0.2,0,0.4-0.2,0.5-0.3
		c0.1-0.2,0.2-0.4,0.1-0.6C18.8,18.8,18.4,18.5,18.1,18.5z"/>
	<path d="M12,6.5c-3.3,0-6.4,1.9-7.8,4.8c-0.5,1-0.7,2.1-0.7,3.4c0,1.4,0.2,2.7,0.7,4.1C4.3,19,4.6,19.2,5,19.2c0.1,0,0.2,0,0.3-0.1
		c0.2-0.1,0.4-0.2,0.4-0.4c0.1-0.2,0.1-0.4,0-0.6c-0.6-1.6-0.7-2.7-0.7-3.5c0-1,0.2-1.9,0.6-2.7C6.7,9.6,9.2,8.1,12,8.1
		c3.8,0,6.9,2.9,6.9,6.5c0,0.9-0.8,1.6-1.8,1.6s-1.8-0.7-1.8-1.6c0-1.8-1.5-3.2-3.4-3.2c-1.9,0-3.4,1.5-3.4,3.2c0,2.1,0.8,4,2.3,5.4
		c1.1,1.1,2.2,1.7,3.9,2.2c0.1,0,0.2,0,0.2,0c0.4,0,0.7-0.3,0.8-0.6c0.1-0.2,0-0.4-0.1-0.6c-0.1-0.2-0.3-0.3-0.5-0.4
		c-1.3-0.4-2.2-0.9-3.1-1.8c-1.1-1.1-1.8-2.7-1.8-4.3c0-0.9,0.8-1.6,1.8-1.6c1,0,1.8,0.7,1.8,1.6c0,1.8,1.5,3.2,3.4,3.2
		c1.9,0,3.4-1.5,3.4-3.2C20.5,10.2,16.7,6.5,12,6.5z"/>
</g>
</svg>
