<?xml version="1.0" encoding="utf-8"?>
<!-- Generator: Adobe Illustrator 23.1.1, SVG Export Plug-In . SVG Version: 6.00 Build 0)  -->
<svg version="1.1" id="Layer_1" xmlns="http://www.w3.org/2000/svg" xmlns:xlink="http://www.w3.org/1999/xlink" x="0px" y="0px"
	 viewBox="0 0 24 24" style="enable-background:new 0 0 24 24;" xml:space="preserve">
<style type="text/css">
	.st0{fill:none;}
</style>
<path class="st0" d="M0,0h24v24H0V0z"/>
<path d="M19,9.6c0-0.2-0.1-0.4-0.2-0.5l-6.3-5.7c-0.1-0.1-0.3-0.2-0.4-0.2c-0.2,0-0.3,0.1-0.4,0.2L5.2,9.1C5.1,9.2,5,9.4,5,9.6
	l0,9.7C5,19.7,5.3,20,5.7,20h5.5H13h5.3c0.4,0,0.7-0.3,0.7-0.7L19,9.6z M14.3,18.4v-5.1c0-0.7-0.6-1.3-1.3-1.3h-1.8
	c-0.7,0-1.3,0.6-1.3,1.3v5.1H6.6l0-8.4L12,5.2l5.4,4.9l0,8.4H14.3z"/>
</svg>
