<?xml version="1.0" encoding="utf-8"?>
<!-- Generator: Adobe Illustrator 23.1.1, SVG Export Plug-In . SVG Version: 6.00 Build 0)  -->
<svg version="1.1" id="Layer_1" xmlns="http://www.w3.org/2000/svg" xmlns:xlink="http://www.w3.org/1999/xlink" x="0px" y="0px"
	 viewBox="0 0 24 24" style="enable-background:new 0 0 24 24;" xml:space="preserve">
<style type="text/css">
	.st0{fill:none;}
</style>
<path class="st0" d="M0,0h24v24H0V0z"/>
<g>
	<rect x="12.2" y="13.2" width="4.6" height="4.6"/>
	<path d="M20.8,6c0-1-0.8-1.8-1.8-1.8h-1h-0.2V4V2.2h-1.6V4v0.2H16H8H7.8V4V2.2H6.2V4v0.2H6H5C4,4.2,3.2,5,3.2,6l0,14
		c0,1,0.8,1.8,1.8,1.8h14c1,0,1.8-0.8,1.8-1.8V6z M19.2,10v10v0.2H19H5H4.8V20V10V9.8H5h14h0.2V10z M19.2,6v2v0.2H19H5H4.8V8V6V5.8
		H5h14h0.2V6z"/>
</g>
</svg>
