<?xml version="1.0" encoding="utf-8"?>
<!-- Generator: Adobe Illustrator 23.1.1, SVG Export Plug-In . SVG Version: 6.00 Build 0)  -->
<svg version="1.1" id="Layer_1" xmlns="http://www.w3.org/2000/svg" xmlns:xlink="http://www.w3.org/1999/xlink" x="0px" y="0px"
	 viewBox="0 0 24 24" style="enable-background:new 0 0 24 24;" xml:space="preserve">
<style type="text/css">
	.st0{fill:none;}
</style>
<path class="st0" d="M0,0h24v24H0V0z"/>
<g>
	<path d="M20.1,19.6L3.4,2.9L2.3,4l1.4,1.4l0.1,0.1L3.7,5.8C3.4,6.1,3.2,6.5,3.2,7v10c0,1,0.8,1.8,1.8,1.8l11,0
		c0.2,0,0.5-0.1,0.7-0.2l0.1-0.1l0.1,0.1l2,2L20.1,19.6z M15,17.2H5H4.8V17V7V6.5l0.3,0.3l10,10l0.3,0.3H15z"/>
	<path d="M10.7,6.8H16h0.1l0.1,0.1l3.5,5l0.1,0.1l-0.1,0.1l-1.5,2.2l1.1,1.1l2.4-3.4l-4.3-6c-0.3-0.5-0.9-0.8-1.5-0.8l-6.9,0
		L10.7,6.8z"/>
</g>
</svg>
