<svg width="24" height="24" viewBox="0 0 24 24" fill="none" xmlns="http://www.w3.org/2000/svg">
<path d="M5.24516 9.90406H8.31437V19.7694H5.24516V9.90406ZM6.78063 5C7.76142 5 8.5577 5.79656 8.5577 6.77798C8.5577 7.7596 7.76142 8.55616 6.78063 8.55616C5.79589 8.55616 5.00185 7.7596 5.00185 6.77798C5.00185 5.79656 5.79589 5 6.78063 5Z" fill="black"/>
<path d="M10.2382 9.90402H13.1772V11.2527H13.2193C13.6282 10.4771 14.6286 9.65918 16.1203 9.65918C19.2247 9.65918 19.7984 11.7019 19.7984 14.3588V19.7693H16.7327V14.9718C16.7327 13.8279 16.713 12.3561 15.1394 12.3561C13.5441 12.3561 13.3006 13.6029 13.3006 14.89V19.7693H10.2382V9.90402Z" fill="black"/>
</svg>
