<?xml version="1.0" encoding="utf-8"?>
<!-- Generator: Adobe Illustrator 23.1.1, SVG Export Plug-In . SVG Version: 6.00 Build 0)  -->
<svg version="1.1" id="Layer_1" xmlns="http://www.w3.org/2000/svg" xmlns:xlink="http://www.w3.org/1999/xlink" x="0px" y="0px"
	 viewBox="0 0 24 24" style="enable-background:new 0 0 24 24;" xml:space="preserve">
<style type="text/css">
	.st0{fill:none;}
</style>
<path class="st0" d="M0,0h24v24H0V0z"/>
<g>
	<path d="M17.4,21.8c-0.7,0-1.4-0.2-2-0.6C10.4,18,6,13.6,2.8,8.7C1.8,7.2,2,5.3,3.2,4.1L4.3,3c1.1-1.1,2.8-1.1,3.8,0l2,2
		c1.1,1.1,1.1,2.8,0,3.8c0,0,0,0,0,0L10,8.9c1.5,1.8,3.2,3.5,5,5l0.2-0.2c1-1,2.8-1,3.8,0l2,2c1.1,1.1,1.1,2.8,0,3.8l-1.1,1.1
		C19.2,21.5,18.3,21.8,17.4,21.8z M6.2,3.8C6,3.8,5.7,3.9,5.5,4.1L4.4,5.2C3.7,5.9,3.6,7,4.1,7.8c3.2,4.8,7.3,9,12.1,12.1
		c0.8,0.5,1.9,0.4,2.6-0.3l1.1-1.1c0.4-0.4,0.4-1.1,0-1.6l-2-2c-0.4-0.4-1.1-0.4-1.6,0l-0.7,0.7c-0.3,0.3-0.8,0.3-1.1,0.1
		c-2.3-1.9-4.4-4-6.3-6.3C8.1,9.1,8.1,8.6,8.4,8.3L9,7.7c0.4-0.4,0.4-1.1,0-1.6l-2-2C6.8,3.9,6.5,3.8,6.2,3.8z M9.6,8.2L9.6,8.2
		L9.6,8.2z"/>
</g>
</svg>
