<?xml version="1.0" encoding="utf-8"?>
<!-- Generator: Adobe Illustrator 23.1.1, SVG Export Plug-In . SVG Version: 6.00 Build 0)  -->
<svg version="1.1" id="Layer_1" xmlns="http://www.w3.org/2000/svg" xmlns:xlink="http://www.w3.org/1999/xlink" x="0px" y="0px"
	 viewBox="0 0 24 24" style="enable-background:new 0 0 24 24;" xml:space="preserve">
<style type="text/css">
	.st0{fill:none;}
</style>
<g>
	<path class="st0" d="M0,0h24v24H0V0z"/>
	<path class="st0" d="M0,0h24v24H0V0z"/>
</g>
<g>
	<circle cx="12" cy="15" r="1.8"/>
	<path d="M19.8,10c0-1-0.8-1.8-1.8-1.8h-1h-0.2V8V6c0-2.6-2.2-4.8-4.8-4.8S7.2,3.4,7.2,6v2v0.2H7H6C5,8.2,4.2,9,4.2,10v10
		c0,1,0.8,1.8,1.8,1.8h12c1,0,1.8-0.8,1.8-1.8V10z M8.8,8V6c0-1.8,1.4-3.2,3.2-3.2s3.2,1.4,3.2,3.2v2v0.2H15H9H8.8V8z M18.2,10v10
		v0.2H18H6H5.8V20V10V9.8H6h12h0.2V10z"/>
</g>
</svg>
