<?xml version="1.0" encoding="utf-8"?>
<!-- Generator: Adobe Illustrator 23.1.1, SVG Export Plug-In . SVG Version: 6.00 Build 0)  -->
<svg version="1.1" id="Layer_1" xmlns="http://www.w3.org/2000/svg" xmlns:xlink="http://www.w3.org/1999/xlink" x="0px" y="0px"
	 viewBox="0 0 24 24" style="enable-background:new 0 0 24 24;" xml:space="preserve">
<style type="text/css">
	.st0{fill:none;}
</style>
<path class="st0" d="M0,0h24v24H0V0z"/>
<g>
	<g>
		<path d="M10,13.8c-2.1,0-3.8-1.7-3.8-3.8V8.4C6.3,6.3,8,4.6,10,4.6s3.8,1.7,3.8,3.8v1.7C13.8,12.1,12.1,13.8,10,13.8z M10,6.2
			c-1.2,0-2.2,1-2.2,2.2v1.7c0,1.2,1,2.2,2.2,2.2s2.2-1,2.2-2.2V8.4C12.2,7.2,11.2,6.2,10,6.2z"/>
	</g>
	<g>
		<path d="M15.6,19.4H4.4c-1.4,0-2.5-1.1-2.5-2.5v-1.3c0-0.7,0.3-1.9,2.2-2.5l1.7-0.5l0.4,1.5l-1.7,0.5c-1.1,0.3-1.1,0.8-1.1,0.9
			v1.3c0,0.5,0.4,0.9,0.9,0.9h11.2c0.5,0,0.9-0.4,0.9-0.9v-1.3c0-0.2,0-0.6-1.1-0.9l-1.6-0.4l0.4-1.5l1.6,0.4
			c1.9,0.6,2.2,1.8,2.2,2.5v1.3C18.1,18.3,17,19.4,15.6,19.4z"/>
	</g>
</g>
<path d="M17.9,13.1c1.9,0.6,2.2,1.8,2.2,2.5v1.3c0,1.4-1.1,2.5-2.5,2.5h2c1.4,0,2.5-1.1,2.5-2.5v-1.3c0-0.7-0.3-1.9-2.2-2.5
	l-1.6-0.4"/>
<g>
	<path d="M15.8,8.4v1.7c0,0.3-0.1,0.7-0.1,1l0.2,0.1c0.7,0.2,1.1,0.5,1.4,0.8c0.3-0.5,0.5-1.1,0.5-1.8V8.4c0-2.1-1.7-3.8-3.8-3.8
		c-0.3,0-0.7,0.1-1,0.2C14.6,5.2,15.8,6.6,15.8,8.4z"/>
</g>
</svg>
