<?xml version="1.0" encoding="utf-8"?>
<!-- Generator: Adobe Illustrator 23.1.1, SVG Export Plug-In . SVG Version: 6.00 Build 0)  -->
<svg version="1.1" id="Layer_1" xmlns="http://www.w3.org/2000/svg" xmlns:xlink="http://www.w3.org/1999/xlink" x="0px" y="0px"
	 viewBox="0 0 24 24" style="enable-background:new 0 0 24 24;" xml:space="preserve">
<style type="text/css">
	.st0{fill:none;}
</style>
<path class="st0" d="M0,0h24v24H0V0z"/>
<g>
	<path d="M12.1,13.3c-2.1,0-3.8-1.7-3.8-3.8V7.9c0-2.1,1.7-3.8,3.8-3.8s3.8,1.7,3.8,3.8v1.7C15.8,11.6,14.2,13.3,12.1,13.3z
		 M12.1,5.7c-1.2,0-2.2,1-2.2,2.2v1.7c0,1.2,1,2.2,2.2,2.2c1.2,0,2.2-1,2.2-2.2V7.9C14.2,6.7,13.3,5.7,12.1,5.7z"/>
</g>
<g>
	<path d="M17.6,20.1H6.5c-1.4,0-2.5-1.1-2.5-2.5v-1.3c0-0.7,0.3-1.9,2.2-2.5l1.7-0.5l0.4,1.5l-1.7,0.5c-1.1,0.3-1.1,0.8-1.1,0.9v1.3
		c0,0.5,0.4,0.9,0.9,0.9h11.2c0.5,0,0.9-0.4,0.9-0.9v-1.3c0-0.2,0-0.6-1.1-0.9l-1.6-0.4l0.4-1.5l1.6,0.4c2,0.6,2.2,1.9,2.2,2.5v1.3
		C20.2,19,19,20.1,17.6,20.1z"/>
</g>
</svg>
