<?xml version="1.0" encoding="utf-8"?>
<!-- Generator: Adobe Illustrator 23.1.1, SVG Export Plug-In . SVG Version: 6.00 Build 0)  -->
<svg version="1.1" id="Layer_1" xmlns="http://www.w3.org/2000/svg" xmlns:xlink="http://www.w3.org/1999/xlink" x="0px" y="0px"
	 viewBox="0 0 24 24" style="enable-background:new 0 0 24 24;" xml:space="preserve">
<style type="text/css">
	.st0{fill:none;}
</style>
<path class="st0" d="M0,0h24v24H0V0z"/>
<g>
	<polygon points="3.7,8.4 3.7,8.4 4.2,8.4 3.7,8.4 	"/>
	<path d="M13.8,5c2,0.2,3.8,1.4,5,3.2c1.4,2.2,1.7,4.8,0.6,7.3c-0.9,2-2.6,3.5-4.6,4.1c-0.7,0.2-1.4,0.3-2.2,0.3
		c-2.1,0-4.1-0.9-5.6-2.4C6,16.4,5.4,15,5.2,13.6l7,0h0.1h1.6V12v-0.1L13.8,5 M13,3.3c-0.1,0-0.3,0-0.5,0c-0.2,0-0.3,0.2-0.3,0.4
		c0,1.6,0,8.2,0,8.2V12h-0.1l-8.2,0c-0.2,0-0.4,0.2-0.4,0.4c-0.3,5,3.9,9.1,9.1,9.1c0.8,0,1.7-0.1,2.6-0.3c2.6-0.7,4.7-2.5,5.7-5
		C23.6,9.8,18.9,3.3,13,3.3L13,3.3z"/>
	<path d="M8.4,3.7l0,4.5l-4.5,0c0.2-1.1,0.7-2.1,1.5-2.9C6.2,4.4,7.2,3.9,8.4,3.7 M9.3,2C5.3,2,2,5.4,2.2,9.4c0,0.2,0.2,0.4,0.4,0.4
		c1.3,0,5.7,0,7,0c0.2,0,0.4-0.2,0.4-0.4c0-1.3,0-5.7,0-7C10,2.2,9.9,2,9.7,2C9.5,2,9.4,2,9.3,2L9.3,2z"/>
</g>
</svg>
