<?xml version="1.0" encoding="utf-8"?>
<!-- Generator: Adobe Illustrator 23.1.1, SVG Export Plug-In . SVG Version: 6.00 Build 0)  -->
<svg version="1.1" id="Layer_1" xmlns="http://www.w3.org/2000/svg" xmlns:xlink="http://www.w3.org/1999/xlink" x="0px" y="0px"
	 viewBox="0 0 24 24" style="enable-background:new 0 0 24 24;" xml:space="preserve">
<style type="text/css">
	.st0{fill:none;}
</style>
<path class="st0" d="M0,0h24v24H0V0z"/>
<path d="M13,3.2c-4.9,0-8.8,3.9-8.8,8.8v0.2H4H1.5L5,15.7l3.5-3.5H6H5.8V12C5.8,8,9,4.8,13,4.8S20.2,8,20.2,12S17,19.2,13,19.2
	c-1.9,0-3.6-0.7-4.9-2l-1.1,1.1c1.6,1.6,3.8,2.4,6.1,2.4c4.9,0,8.8-3.9,8.8-8.8S17.9,3.2,13,3.2z"/>
<path d="M17,14.2l-3.5-2.1V8v0h0H12h0v0v5v0l0,0l4.2,2.5l0,0l0,0L17,14.2L17,14.2L17,14.2z M17,14.2L17,14.2L17,14.2L17,14.2z"/>
</svg>
