<?xml version="1.0" encoding="utf-8"?>
<!-- Generator: Adobe Illustrator 23.1.1, SVG Export Plug-In . SVG Version: 6.00 Build 0)  -->
<svg version="1.1" id="Layer_1" xmlns="http://www.w3.org/2000/svg" xmlns:xlink="http://www.w3.org/1999/xlink" x="0px" y="0px"
	 viewBox="0 0 24 24" style="enable-background:new 0 0 24 24;" xml:space="preserve">
<style type="text/css">
	.st0{fill:none;}
</style>
<path d="M12,3.6c4.6,0,8.4,3.8,8.4,8.4s-3.8,8.4-8.4,8.4c-4.6,0-8.4-3.8-8.4-8.4S7.4,3.6,12,3.6 M12,2C6.5,2,2,6.5,2,12
	s4.5,10,10,10c5.5,0,10-4.5,10-10S17.5,2,12,2L12,2z"/>
<path class="st0" d="M0,0h24v24H0V0z"/>
<circle cx="15.5" cy="9.5" r="1.3"/>
<circle cx="8.5" cy="9.5" r="1.3"/>
<g>
	<path d="M7.2,16.8C7.1,17,7,17.2,6.9,17.5l0,0C7,17.2,7.1,17,7.2,16.8z"/>
	<path d="M8.5,17.5c0.7-1.2,2.1-2,3.5-2c1.4,0,2.7,0.7,3.5,2h1.6C16.2,15.4,14.2,14,12,14s-4.2,1.3-5.1,3.4H8.5z"/>
	<path d="M7.2,16.8c0.1-0.1,0.2-0.2,0.2-0.4C7.4,16.5,7.3,16.6,7.2,16.8z"/>
	<path d="M7.7,16.1c0,0,0.1-0.1,0.1-0.1C7.8,16,7.7,16,7.7,16.1z"/>
</g>
</svg>
