<?xml version="1.0" encoding="utf-8"?>
<!-- Generator: Adobe Illustrator 23.1.1, SVG Export Plug-In . SVG Version: 6.00 Build 0)  -->
<svg version="1.1" id="Layer_1" xmlns="http://www.w3.org/2000/svg" xmlns:xlink="http://www.w3.org/1999/xlink" x="0px" y="0px"
	 viewBox="0 0 24 24" style="enable-background:new 0 0 24 24;" xml:space="preserve">
<style type="text/css">
	.st0{fill:none;}
</style>
<path class="st0" d="M0,0h24v24H0V0z"/>
<g>
	<path d="M7,18.2c-1,0-1.8,0.8-1.8,1.8c0,1,0.8,1.8,1.8,1.8c1,0,1.8-0.8,1.8-1.8C8.8,19,8,18.2,7,18.2z"/>
	<path d="M20.7,4.6c-0.1-0.2-0.4-0.4-0.7-0.4H5.2H5.1L5,4.1L4.1,2.2H1.2v1.6H3h0.1l0.1,0.1l3.6,7.6l0,0.1l0,0.1l-1.4,2.4
		c-0.3,0.6-0.3,1.2,0,1.8c0.3,0.5,0.9,0.9,1.5,0.9h11.8v-1.6H7H6.7l0.2-0.3l1.1-2L8,12.8h0.1h7.5c0.7,0,1.3-0.4,1.6-0.9l3.6-6.5
		C20.8,5.1,20.8,4.8,20.7,4.6z M18.5,6.1l-2.8,5l-0.1,0.1h-0.1h-7H8.4l-0.1-0.1L6,6.1L5.8,5.8h0.3h12.2h0.3L18.5,6.1z"/>
	<path d="M17,18.2c-1,0-1.8,0.8-1.8,1.8c0,1,0.8,1.8,1.8,1.8c1,0,1.8-0.8,1.8-1.8C18.8,19,18,18.2,17,18.2z"/>
</g>
</svg>
