<?xml version="1.0" encoding="utf-8"?>
<!-- Generator: Adobe Illustrator 23.1.1, SVG Export Plug-In . SVG Version: 6.00 Build 0)  -->
<svg version="1.1" id="Layer_1" xmlns="http://www.w3.org/2000/svg" xmlns:xlink="http://www.w3.org/1999/xlink" x="0px" y="0px"
	 viewBox="0 0 24 24" style="enable-background:new 0 0 24 24;" xml:space="preserve">
<style type="text/css">
	.st0{fill:none;}
</style>
<path class="st0" d="M0,0h24v24H0V0z"/>
<path d="M3.5,18.9c0.3,0.6,0.9,0.9,1.5,0.9h13.8c0.6,0,1.2-0.3,1.6-0.9c1.8-3.1,1.8-6.9-0.1-10l-1,1.5c1.2,2.4,1.1,5.3-0.3,7.7
	L19,18.2h-0.1H5.1H5l-0.1-0.1C2.6,14.2,4,9.2,7.9,6.9c1.2-0.7,2.7-1.1,4.1-1.1c1.2,0,2.5,0.3,3.6,0.8l1.5-1c-1.5-0.9-3.2-1.4-5-1.4
	c0,0,0,0,0,0c-3.4,0-6.4,1.7-8.3,4.5C1.8,11.8,1.7,15.7,3.5,18.9z"/>
<path d="M10.7,15.3c0.3,0.3,0.8,0.5,1.3,0.5c0.5,0,0.9-0.2,1.3-0.5l5.1-7.6l-7.7,5.1C10,13.4,10,14.6,10.7,15.3z"/>
</svg>
