<?xml version="1.0" encoding="utf-8"?>
<!-- Generator: Adobe Illustrator 23.1.1, SVG Export Plug-In . SVG Version: 6.00 Build 0)  -->
<svg version="1.1" id="Layer_1" xmlns="http://www.w3.org/2000/svg" xmlns:xlink="http://www.w3.org/1999/xlink" x="0px" y="0px"
	 viewBox="0 0 24 24" style="enable-background:new 0 0 24 24;" xml:space="preserve">
<style type="text/css">
	.st0{fill:none;}
</style>
<g>
	<path d="M12,3.6c4.6,0,8.4,3.8,8.4,8.4s-3.8,8.4-8.4,8.4S3.6,16.6,3.6,12S7.4,3.6,12,3.6 M12,2C6.5,2,2,6.5,2,12s4.5,10,10,10
		s10-4.5,10-10S17.5,2,12,2L12,2z"/>
</g>
<path class="st0" d="M0,0h24v24H0V0z"/>
<g>
	<polygon points="11.2,9.2 11.2,10.8 15,10.8 15.2,10.8 15.2,11 15.2,13 18.2,10 15.2,7 15.2,9 15.2,9.2 15,9.2 	"/>
	<polygon points="12.8,14.8 12.8,13.2 9,13.2 8.8,13.2 8.8,13 8.8,11 5.8,14 8.8,17 8.8,15 8.8,14.8 9,14.8 	"/>
</g>
</svg>
