<?xml version="1.0" encoding="utf-8"?>
<!-- Generator: Adobe Illustrator 23.1.1, SVG Export Plug-In . SVG Version: 6.00 Build 0)  -->
<svg version="1.1" id="Layer_1" xmlns="http://www.w3.org/2000/svg" xmlns:xlink="http://www.w3.org/1999/xlink" x="0px" y="0px"
	 viewBox="0 0 24 24" style="enable-background:new 0 0 24 24;" xml:space="preserve">
<style type="text/css">
	.st0{fill:none;}
</style>
<path class="st0" d="M0,0h24v24H0V0z M0,0h24v24H0V0z"/>
<g>
	<path d="M9.9,7.8C8.1,8.7,6.5,10,6.4,10c-0.2,0.2-0.3,0.4-0.3,0.6v9.2c0,0.3,0.1,0.5,0.3,0.6c1.1,0.8,5.8,1.8,8.6,1.8
		c1,0,1.7-0.1,2.1-0.3c0.8-0.5,2.1-2.9,3.6-7l0,0l0,0c1.2-0.9,1.8-2,1.6-3.2c-0.2-1.1-1-2-2.2-2.4c-0.7-0.2-1.9-0.5-2.8-0.7
		l-0.2-0.1l0.1-0.2c1.2-1.8,2.3-4.3,1.4-6.2c-0.4-0.8-1.1-1.3-1.9-1.3c-1.8,0-2.4,1.7-2.8,2.9C13.6,4.9,12,6.6,9.9,7.8z M15.4,4.3
		c0.5-1.4,0.7-1.8,1.3-1.8c0.1,0,0.3,0,0.5,0.4c0.4,1,0.1,3.4-2.1,5.7c-0.2,0.2-0.3,0.5-0.2,0.8c0.1,0.3,0.3,0.5,0.6,0.5
		c0,0,3,0.6,4.2,1c0.6,0.2,1.1,0.6,1.1,1.1c0.1,0.6-0.3,1.2-1.2,1.8c-0.1,0.1-0.2,0.2-0.3,0.4c-1,2.7-2.4,5.9-3,6.4l0,0l0,0
		c-0.2,0.1-0.6,0.1-1.1,0.1c-1.9,0-5.8-0.6-7.4-1.3l-0.1,0v-0.1v-8.2v-0.1l0.1,0c0.6-0.4,1.7-1.2,2.9-1.9
		C12.9,7.9,14.9,5.9,15.4,4.3z"/>
	<path d="M1.7,9.2h1.9C3.8,9.2,4,9.4,4,9.6v11.3c0,0.3-0.2,0.5-0.5,0.5H1.7c-0.3,0-0.5-0.2-0.5-0.5V9.6C1.2,9.4,1.4,9.2,1.7,9.2z"/>
</g>
</svg>
