<?xml version="1.0" encoding="utf-8"?>
<!-- Generator: Adobe Illustrator 23.1.1, SVG Export Plug-In . SVG Version: 6.00 Build 0)  -->
<svg version="1.1" id="Layer_1" xmlns="http://www.w3.org/2000/svg" xmlns:xlink="http://www.w3.org/1999/xlink" x="0px" y="0px"
	 viewBox="0 0 24 24" style="enable-background:new 0 0 24 24;" xml:space="preserve">
<style type="text/css">
	.st0{fill:none;}
</style>
<path class="st0" d="M0,0h24v24H0V0z M0,0h24v24H0V0z"/>
<g>
	<path d="M14,15.6c1.7-0.9,3.4-2.2,3.4-2.3c0.2-0.2,0.3-0.4,0.3-0.6V3.4c0-0.3-0.1-0.5-0.3-0.6C16.3,2,11.6,1,8.8,1
		c-1,0-1.7,0.1-2.1,0.3c-0.8,0.5-2.1,2.9-3.6,7l0,0l0,0c-1.2,0.9-1.8,2-1.6,3.2c0.2,1.1,1,2,2.2,2.4c0.7,0.2,1.9,0.5,2.8,0.7
		l0.2,0.1l-0.1,0.2c-1.2,1.8-2.3,4.3-1.4,6.2c0.4,0.8,1.1,1.3,1.9,1.3c1.8,0,2.4-1.7,2.8-2.9C10.3,18.5,11.8,16.8,14,15.6z M8.4,19
		c-0.5,1.4-0.7,1.8-1.3,1.8c-0.1,0-0.3,0-0.5-0.4c-0.4-1-0.1-3.4,2.1-5.7C9,14.5,9,14.2,8.9,14c-0.1-0.3-0.3-0.5-0.6-0.5
		c0,0-3-0.6-4.2-1c-0.6-0.2-1.1-0.6-1.1-1.1C3,10.7,3.4,10.1,4.3,9.5c0.1-0.1,0.2-0.2,0.3-0.4c1-2.7,2.4-5.9,3-6.4l0,0l0,0
		c0.2-0.1,0.6-0.1,1.1-0.1c1.9,0,5.8,0.6,7.4,1.3l0.1,0V4v8.2v0.1l-0.1,0c-0.6,0.4-1.7,1.2-2.9,1.9C10.9,15.4,9,17.4,8.4,19z"/>
	<path d="M22.2,14.1h-1.9c-0.3,0-0.5-0.2-0.5-0.5V2.4c0-0.3,0.2-0.5,0.5-0.5h1.9c0.3,0,0.5,0.2,0.5,0.5v11.3
		C22.6,13.9,22.4,14.1,22.2,14.1z"/>
</g>
</svg>
