<?xml version="1.0" encoding="utf-8"?>
<!-- Generator: Adobe Illustrator 23.1.1, SVG Export Plug-In . SVG Version: 6.00 Build 0)  -->
<svg version="1.1" id="Layer_1" xmlns="http://www.w3.org/2000/svg" xmlns:xlink="http://www.w3.org/1999/xlink" x="0px" y="0px"
	 viewBox="0 0 24 24" style="enable-background:new 0 0 24 24;" xml:space="preserve">
<style type="text/css">
	.st0{fill:none;}
</style>
<path class="st0" d="M0,0h24v24H0V0z M0,0h24v24H0V0z M0,0h24v24H0V0z M0,0h24v24H0V0z"/>
<g>
	<path d="M16.5,18l3.3,3.3l1.1-1.1L3.4,2.7L2.3,3.9l2.5,2.5L5,6.6L4.8,6.7C3.2,8,2,9.6,1.2,11.5c1.8,4.4,6,7.3,10.8,7.3
		c1.5,0,2.9-0.3,4.2-0.8L16.5,18L16.5,18z M9.3,11.4v-0.5l0.3,0.3l2.6,2.6l0.2,0.2l-0.3,0.1c0,0-0.1,0-0.2,0
		C10.5,14.2,9.3,13,9.3,11.4C9.3,11.5,9.3,11.4,9.3,11.4z M14.8,16.8c-0.9,0.3-1.9,0.4-2.8,0.4c-3.9,0-7.3-2.2-9-5.6l0-0.1l0-0.1
		C3.7,10,4.7,8.8,6,7.8l0.1-0.1l0.1,0.1L8,9.6l0.1,0.1L8,9.8c-0.2,0.5-0.3,1.1-0.3,1.7c0,2.4,1.9,4.3,4.3,4.3c0.6,0,1.2-0.1,1.7-0.3
		l0.1-0.1l0.1,0.1l1,1l0.2,0.2L14.8,16.8z"/>
	<path d="M12,5.8c3.9,0,7.3,2.2,9,5.6l0,0.1l0,0.1c-0.6,1.2-1.3,2.2-2.3,3l1.1,1.1c1.3-1.2,2.3-2.7,3-4.3C21,7.1,16.8,4.2,12,4.2
		c-1.1,0-2.2,0.2-3.3,0.5L10.1,6C10.8,5.9,11.4,5.8,12,5.8z"/>
	<path d="M14.4,10.4l1.8,1.8c0-0.2,0.1-0.5,0.1-0.7c0-1.1-0.4-2.2-1.2-3c-0.8-0.8-1.9-1.3-3-1.3c-0.2,0-0.4,0-0.7,0.1L13.1,9
		C13.7,9.3,14.2,9.8,14.4,10.4z"/>
</g>
</svg>
