<?xml version="1.0" encoding="utf-8"?>
<!-- Generator: Adobe Illustrator 23.1.1, SVG Export Plug-In . SVG Version: 6.00 Build 0)  -->
<svg version="1.1" id="Layer_1" xmlns="http://www.w3.org/2000/svg" xmlns:xlink="http://www.w3.org/1999/xlink" x="0px" y="0px"
	 viewBox="0 0 24 24" style="enable-background:new 0 0 24 24;" xml:space="preserve">
<style type="text/css">
	.st0{fill:none;}
</style>
<path class="st0" d="M0,0h24v24H0V0z"/>
<path d="M14.2,15.4l4.8,4.8l1.2-1.2l-4.8-4.8h-0.7h-0.1l-0.1-0.1l-0.3-0.3l-0.1-0.1l0.1-0.1c1-1.1,1.5-2.6,1.5-4.1
	c0-3.5-2.8-6.3-6.3-6.3S3.2,6,3.2,9.5s2.8,6.3,6.3,6.3c1.5,0,3-0.5,4.1-1.5l0.1-0.1l0.1,0.1l0.3,0.3l0.1,0.1v0.1V15.4z M9.5,14.2
	c-2.6,0-4.7-2.1-4.7-4.7s2.1-4.7,4.7-4.7s4.7,2.1,4.7,4.7S12.1,14.2,9.5,14.2z"/>
<polygon points="12,8.7 7,8.7 6.7,8.7 6.7,9 6.7,10 6.7,10.3 7,10.3 12,10.3 12.3,10.3 12.3,10 12.3,9 12.3,8.7 "/>
</svg>
