<svg width="578" height="537" viewBox="0 0 578 537" fill="none" xmlns="http://www.w3.org/2000/svg">
<path d="M81.2161 240.411L69.2356 259.502C65.4711 254.77 61.4155 250.166 56.3603 246.767C48.2075 241.099 37.5708 239.818 28.0305 242.034C20.1465 243.873 13.4449 249.273 9.13184 256.006C4.92637 262.567 3.3883 270.526 3.4851 278.227C3.72173 288.08 8.65849 297.792 16.8221 303.417C33.1492 315.055 53.1224 321.358 67.449 335.802C76.0858 344.213 78.0011 358.228 72.5695 368.865C69.0739 375.609 62.5882 380.826 55.1345 382.483C43.1849 385.29 30.1385 380.687 22.0072 371.63C10.348 359.164 5.70107 341.998 3.24877 325.52H0L0.0220084 386.032L3.01721 385.983L13.025 366.661C17.2089 372.405 22.1249 377.739 28.1911 381.547C36.1181 386.688 46.0673 388.496 55.3172 386.603C65.7395 384.796 74.7743 377.76 80.0769 368.747C85.4225 359.68 86.8319 348.634 85.1218 338.352C83.4869 328.607 77.2477 320.271 69.6326 314.258C54.3918 301.524 34.7085 295.555 19.7903 282.39C16.0043 278.97 12.3364 274.872 11.2178 269.753C10.3466 263.439 12.9295 256.846 17.6082 252.565C24.5134 245.66 35.1817 243.788 44.4854 245.8C52.8103 247.596 59.759 253.275 64.6098 260.083C72.2141 270.473 75.5703 283.132 78.4635 295.469L81.4429 295.856L81.2161 240.411ZM527.479 284.673C525.405 284.723 523.33 284.965 521.281 285.415C512.977 287.082 505.631 291.944 499.942 298.097C487.874 311.003 481.916 328.502 479.743 345.776C477.603 365.77 479.442 387.057 489.724 404.75C496.145 416.312 506.579 426.305 519.658 429.596C530.102 432.414 541.469 429.779 550.257 423.691C563.432 414.699 571.317 399.695 575.168 384.54C579.104 367.794 578.846 350.099 574.963 333.364C571.295 318.456 564.09 303.819 552.291 293.698C545.439 287.86 536.465 284.457 527.479 284.673ZM528.962 288.446C535.728 288.662 542.358 291.95 547.021 296.871C554.797 304.518 557.216 315.789 557.98 326.297C559.217 344.238 559.087 362.254 558.571 380.226C558.162 389.874 557.797 399.953 553.441 408.783C549.569 416.226 543.546 423.283 535.221 425.692C527.208 428.198 518.087 425.83 511.977 420.173C503.986 413.009 499.792 402.438 498.985 391.876C497.512 374.344 497.932 356.726 498.19 339.162C498.695 328.524 498.726 317.521 502.845 307.507C506.233 299.021 513.311 291.814 522.217 289.308C524.435 288.644 526.706 288.375 528.962 288.446ZM140.08 288.859C132.166 288.89 124.258 291.92 118.571 297.503C99.4685 315.809 96.5969 347.838 110.698 369.919C115.452 377.244 122.229 383.784 130.833 386.193C140.384 388.914 151.602 386.828 158.615 379.503C166.724 371.533 169.585 359.916 170.586 348.946L167.111 348.892C166.477 355.292 165.369 361.746 162.572 367.586C159.356 374.287 153.914 380.407 146.568 382.494C139.684 384.57 131.166 383.86 126.036 378.342C121.55 373.362 120.422 366.424 119.54 360.025C118.055 346.742 118.409 333.329 119.506 320.034C120.367 313.119 120.991 305.73 124.906 299.749C130.036 292.113 140.912 290.725 148.968 293.984C155.206 296.566 158.841 302.718 160.627 308.946C157.335 306.246 152.495 304.935 148.687 307.366C142.728 310.872 143.029 320.863 149.171 324.025C154.323 327.037 161.583 324.176 163.401 318.508C167.198 306.816 159.594 293.264 147.914 289.844C145.356 289.172 142.718 288.849 140.08 288.859ZM338.504 289.209L238.777 289.22V293.253H259.213V426.625H238.777V430.658L340.73 430.678L340.645 374.222L338.085 374.674C336.923 381.784 336.03 388.979 333.857 395.884C331.567 404.22 327.974 412.545 321.552 418.547C315.981 424.054 308.044 426.635 300.311 426.625L276.1 426.58L276.142 356.433C283.897 356.476 292.836 355.615 299.074 361.197C305.646 367.328 306.324 376.922 307.388 385.29L309.421 386.139L309.496 321.594L307.453 321.369C306.775 331.415 304.635 342.826 295.912 349.097C290.265 353.453 282.821 352.71 276.142 352.678L276.111 293.285L302.526 293.264C311.303 293.383 320.552 296.953 325.575 304.471C332.125 314.184 333.975 326.048 336.137 337.331L338.482 337.89L338.504 289.209ZM361.661 289.22L361.65 293.253L380.914 293.264L381.01 426.625H361.65C361.65 426.625 361.65 429.312 361.661 430.667L462.743 430.658L462.786 366.984C461.99 366.963 461.204 366.941 460.419 366.931C459.473 374.352 458.215 381.751 456.236 388.979C452.805 401.864 446.642 415.374 434.434 422.074C423.302 428.334 397.951 426.625 397.951 426.625L397.973 293.211L417.344 293.414C417.344 292.016 417.364 289.242 417.364 289.242L361.661 289.22ZM179.802 293.635V297.118L193.516 297.129L193.603 383.896L179.802 383.983V387.466L222.545 387.477L222.503 383.938L208.542 383.96L208.553 293.635H179.802Z" fill="white"/>
<path fill-rule="evenodd" clip-rule="evenodd" d="M300.479 452.704C284.8 479.887 267.793 507.823 249.48 536.29C274.368 508.814 297.1 480.798 317.721 452.704H300.479ZM392.109 268.102H424.945C539.572 5.31247 450.85 -160.793 204.553 239.728C429.958 -47.9364 483.977 41.5254 392.109 268.102Z" fill="white"/>
</svg>
