<svg width="578" height="538" viewBox="0 0 578 538" fill="none" xmlns="http://www.w3.org/2000/svg">
<g clip-path="url(#clip0)">
<path d="M398.22 296.267C400.76 296.31 403.31 296.352 405.86 296.447C404.96 298.997 403.765 301.42 402.389 303.737C401.321 305.631 400.368 307.599 399.691 309.684L398.495 309.599C397.977 305.166 398.199 300.711 398.22 296.267Z" fill="black"/>
<path d="M363.959 336.57C369.927 323.587 375.387 310.372 381.45 297.453C381.577 312.107 381.598 326.772 381.46 341.427C376.604 351.489 370.445 360.906 364.869 370.598C357.399 383.168 349.749 395.632 341.888 407.97C341.845 399.844 341.793 391.717 341.898 383.602C349.347 367.974 356.891 352.378 363.959 336.57Z" fill="black"/>
<path d="M323.043 419.567C326.852 412.023 330.799 404.521 335.148 397.273C332.894 405.473 329.36 413.663 323.043 419.567Z" fill="black"/>
<g filter="url(#filter0_ddd)">
<path fill-rule="evenodd" clip-rule="evenodd" d="M249.526 532.599C496.867 148.103 502.199 -138.012 205.33 240.858L249.526 532.599ZM249.526 532.599C575.034 173.24 525.626 -280 205.33 240.858L249.526 532.599ZM249.526 532.599C496.867 148.103 502.199 -138.012 205.33 240.858L249.526 532.599ZM249.526 532.599C575.034 173.24 525.626 -280 205.33 240.858L249.526 532.599ZM249.526 532.599C496.867 148.103 502.199 -138.012 205.33 240.857L249.526 532.599ZM249.526 532.599C575.034 173.24 525.626 -280 205.33 240.857L249.526 532.599Z" fill="black"/>
</g>
<path d="M83.8773 241.837L72.0916 260.617C68.3883 255.962 64.3986 251.433 59.4256 248.089C51.4053 242.513 40.9415 241.254 31.5563 243.433C23.8005 245.243 17.2078 250.555 12.9648 257.178C8.82773 263.632 7.31466 271.462 7.40989 279.038C7.64268 288.73 12.4992 298.285 20.5301 303.819C36.5918 315.267 56.2403 321.467 70.334 335.677C78.8304 343.952 80.7146 357.738 75.3713 368.203C71.9325 374.837 65.5523 379.969 58.2197 381.599C46.4644 384.36 33.63 379.832 25.6309 370.923C14.1612 358.66 9.58984 341.773 7.1774 325.563H3.98145L4.0031 385.091L6.94961 385.042L16.7947 366.034C20.9106 371.685 25.7467 376.933 31.7143 380.678C39.5124 385.736 49.2999 387.514 58.3995 385.652C68.6523 383.874 77.5403 376.953 82.7566 368.086C88.0153 359.167 89.4019 348.301 87.7195 338.185C86.1112 328.599 79.9734 320.398 72.4821 314.484C57.4891 301.956 38.1257 296.084 23.4501 283.133C19.7256 279.769 16.1173 275.738 15.0169 270.701C14.1599 264.49 16.7007 258.004 21.3034 253.793C28.0963 247 38.5912 245.159 47.7437 247.138C55.9333 248.905 62.769 254.492 67.541 261.189C75.0216 271.41 78.3232 283.863 81.1695 295.999L84.1004 296.381L83.8772 241.837L83.8773 241.837ZM522.886 285.379C520.846 285.428 518.804 285.667 516.788 286.109C508.62 287.749 501.393 292.532 495.796 298.585C483.924 311.282 478.063 328.496 475.926 345.489C473.82 365.158 475.63 386.098 485.745 403.504C492.062 414.878 502.326 424.709 515.192 427.946C525.466 430.719 536.649 428.126 545.293 422.137C558.255 413.292 566.011 398.531 569.799 383.623C573.672 367.149 573.417 349.742 569.598 333.278C565.99 318.613 558.901 304.214 547.294 294.257C540.554 288.514 531.726 285.167 522.886 285.379ZM524.344 289.091C531.001 289.303 537.523 292.538 542.11 297.379C549.76 304.902 552.14 315.989 552.891 326.327C554.108 343.976 553.98 361.699 553.472 379.379C553.07 388.87 552.711 398.785 548.426 407.472C544.617 414.794 538.692 421.736 530.502 424.106C522.62 426.571 513.646 424.242 507.636 418.676C499.775 411.629 495.649 401.23 494.855 390.839C493.406 373.593 493.819 356.26 494.073 338.982C494.57 328.517 494.6 317.693 498.653 307.842C501.986 299.494 508.948 292.404 517.709 289.939C519.891 289.286 522.125 289.021 524.344 289.091ZM141.784 289.497C133.999 289.528 126.219 292.509 120.625 298C101.833 316.009 99.0081 347.517 112.88 369.24C117.556 376.445 124.223 382.879 132.688 385.249C142.083 387.926 153.119 385.873 160.018 378.668C167.996 370.827 170.81 359.399 171.794 348.607L168.376 348.554C167.752 354.85 166.662 361.199 163.911 366.944C160.747 373.536 155.394 379.557 148.167 381.61C141.395 383.652 133.015 382.954 127.968 377.526C123.556 372.627 122.445 365.802 121.578 359.506C120.118 346.439 120.466 333.244 121.545 320.166C122.392 313.362 123.005 306.093 126.857 300.21C131.904 292.698 142.602 291.333 150.527 294.539C156.664 297.079 160.24 303.131 161.997 309.257C158.759 306.602 153.997 305.312 150.252 307.703C144.39 311.152 144.686 320.981 150.727 324.092C155.796 327.054 162.938 324.24 164.726 318.664C168.461 307.162 160.981 293.831 149.49 290.466C146.975 289.805 144.379 289.487 141.784 289.497V289.497ZM336.983 289.841L238.877 289.852V293.82H258.981V425.023H238.877V428.991L339.173 429.011L339.089 373.473L336.57 373.917C335.428 380.911 334.549 387.99 332.412 394.783C330.158 402.983 326.624 411.173 320.307 417.077C314.826 422.494 307.018 425.034 299.411 425.023L275.593 424.98L275.635 355.972C283.263 356.015 292.057 355.168 298.194 360.659C304.659 366.69 305.325 376.129 306.373 384.361L308.372 385.196L308.447 321.7L306.436 321.479C305.77 331.361 303.664 342.587 295.083 348.756C289.528 353.041 282.205 352.311 275.635 352.279L275.604 293.851L301.59 293.831C310.224 293.947 319.322 297.46 324.264 304.856C330.707 314.41 332.528 326.082 334.654 337.181L336.961 337.731L336.983 289.841ZM359.763 289.852L359.753 293.82L378.704 293.831L378.798 425.023H359.753C359.753 425.023 359.753 427.667 359.763 429L459.202 428.991L459.244 366.352C458.461 366.331 457.689 366.31 456.916 366.3C455.985 373.6 454.748 380.879 452.801 387.989C449.426 400.665 443.362 413.955 431.353 420.547C420.402 426.705 395.463 425.023 395.463 425.023L395.485 293.778L414.541 293.978C414.541 292.603 414.561 289.874 414.561 289.874L359.763 289.852ZM180.861 294.195V297.622L194.352 297.633L194.437 382.989L180.861 383.074V386.501L222.909 386.512L222.867 383.031L209.133 383.053L209.144 294.195L180.861 294.195Z" fill="#DA202C"/>
</g>
<defs>
<filter id="filter0_ddd" x="183.33" y="-11.9736" width="309.542" height="573.573" filterUnits="userSpaceOnUse" color-interpolation-filters="sRGB">
<feFlood flood-opacity="0" result="BackgroundImageFix"/>
<feColorMatrix in="SourceAlpha" type="matrix" values="0 0 0 0 0 0 0 0 0 0 0 0 0 0 0 0 0 0 127 0"/>
<feOffset dy="7"/>
<feGaussianBlur stdDeviation="4"/>
<feColorMatrix type="matrix" values="0 0 0 0 0 0 0 0 0 0 0 0 0 0 0 0 0 0 0.2 0"/>
<feBlend mode="normal" in2="BackgroundImageFix" result="effect1_dropShadow"/>
<feColorMatrix in="SourceAlpha" type="matrix" values="0 0 0 0 0 0 0 0 0 0 0 0 0 0 0 0 0 0 127 0"/>
<feOffset dy="5"/>
<feGaussianBlur stdDeviation="11"/>
<feColorMatrix type="matrix" values="0 0 0 0 0 0 0 0 0 0 0 0 0 0 0 0 0 0 0.12 0"/>
<feBlend mode="normal" in2="effect1_dropShadow" result="effect2_dropShadow"/>
<feColorMatrix in="SourceAlpha" type="matrix" values="0 0 0 0 0 0 0 0 0 0 0 0 0 0 0 0 0 0 127 0"/>
<feOffset dy="12"/>
<feGaussianBlur stdDeviation="8.5"/>
<feColorMatrix type="matrix" values="0 0 0 0 0 0 0 0 0 0 0 0 0 0 0 0 0 0 0.14 0"/>
<feBlend mode="normal" in2="effect2_dropShadow" result="effect3_dropShadow"/>
<feBlend mode="normal" in="SourceGraphic" in2="effect3_dropShadow" result="shape"/>
</filter>
<clipPath id="clip0">
<rect width="578" height="537.54" fill="white"/>
</clipPath>
</defs>
</svg>
